<svg width="41" height="32" viewBox="0 0 41 32" version="1.1" xmlns="http://www.w3.org/2000/svg" xmlns:xlink="http://www.w3.org/1999/xlink">
<title>Group 65</title>
<desc>Created using Figma</desc>
<g id="Canvas" transform="translate(-8189 -18523)">
<g id="Group 65">
<g id="Group 64">
<g id="Vector">
<use xlink:href="#path0_stroke" transform="translate(8208.9 18534.8)" fill="#F0F0F0"/>
</g>
<g id="Vector">
<use xlink:href="#path0_stroke" transform="matrix(-4.37114e-08 1 -1 -4.37114e-08 8213.83 18539.8)" fill="#F0F0F0"/>
</g>
</g>
<g id="Vector">
<use xlink:href="#path1_stroke" transform="translate(8190.18 18524.6)" fill="#F0F0F0"/>
</g>
<g id="Ellipse">
<mask id="mask0_outline_ins">
<use xlink:href="#path2_fill" fill="white" transform="translate(8199.12 18530)"/>
</mask>
<g mask="url(#mask0_outline_ins)">
<use xlink:href="#path3_stroke_2x" transform="translate(8199.12 18530)" fill="#F0F0F0"/>
</g>
</g>
</g>
</g>
<defs>
<path id="path0_stroke" d="M -0.75 0L -0.75 9.86447L 0.75 9.86447L 0.75 0L -0.75 0Z"/>
<path id="path1_stroke" d="M 8.60973 3.28957L 8.60973 4.28957L 9.02942 4.28957L 9.32341 3.99003L 8.60973 3.28957ZM 0 3.28957L 0 2.28957L -1 2.28957L -1 3.28957L 0 3.28957ZM 0 29.0578L -1 29.0578L -1 30.0578L 0 30.0578L 0 29.0578ZM 38.7438 29.0578L 38.7438 30.0578L 39.7438 30.0578L 39.7438 29.0578L 38.7438 29.0578ZM 38.7438 3.28957L 39.7438 3.28957L 39.7438 2.28957L 38.7438 2.28957L 38.7438 3.28957ZM 29.5959 3.28957L 28.8822 3.99003L 29.1762 4.28957L 29.5959 4.28957L 29.5959 3.28957ZM 26.3673 0L 27.081 -0.700468L 26.787 -1L 26.3673 -1L 26.3673 0ZM 11.8384 0L 11.8384 -1L 11.4187 -1L 11.1247 -0.700468L 11.8384 0ZM 8.60973 2.28957L 0 2.28957L 0 4.28957L 8.60973 4.28957L 8.60973 2.28957ZM -1 3.28957L -1 29.0578L 1 29.0578L 1 3.28957L -1 3.28957ZM 0 30.0578L 38.7438 30.0578L 38.7438 28.0578L 0 28.0578L 0 30.0578ZM 39.7438 29.0578L 39.7438 3.28957L 37.7438 3.28957L 37.7438 29.0578L 39.7438 29.0578ZM 38.7438 2.28957L 29.5959 2.28957L 29.5959 4.28957L 38.7438 4.28957L 38.7438 2.28957ZM 30.3096 2.5891L 27.081 -0.700468L 25.6536 0.700468L 28.8822 3.99003L 30.3096 2.5891ZM 26.3673 -1L 11.8384 -1L 11.8384 1L 26.3673 1L 26.3673 -1ZM 11.1247 -0.700468L 7.89604 2.5891L 9.32341 3.99003L 12.5521 0.700468L 11.1247 -0.700468Z"/>
<path id="path2_fill" d="M 19.5535 9.77673C 19.5535 15.1763 15.1763 19.5535 9.77673 19.5535C 4.37719 19.5535 0 15.1763 0 9.77673C 0 4.37719 4.37719 0 9.77673 0C 15.1763 0 19.5535 4.37719 19.5535 9.77673Z"/>
<path id="path3_stroke_2x" d="M 18.0535 9.77673C 18.0535 14.3478 14.3478 18.0535 9.77673 18.0535L 9.77673 21.0535C 16.0047 21.0535 21.0535 16.0047 21.0535 9.77673L 18.0535 9.77673ZM 9.77673 18.0535C 5.20562 18.0535 1.5 14.3478 1.5 9.77673L -1.5 9.77673C -1.5 16.0047 3.54876 21.0535 9.77673 21.0535L 9.77673 18.0535ZM 1.5 9.77673C 1.5 5.20562 5.20562 1.5 9.77673 1.5L 9.77673 -1.5C 3.54876 -1.5 -1.5 3.54876 -1.5 9.77673L 1.5 9.77673ZM 9.77673 1.5C 14.3478 1.5 18.0535 5.20562 18.0535 9.77673L 21.0535 9.77673C 21.0535 3.54876 16.0047 -1.5 9.77673 -1.5L 9.77673 1.5Z"/>
</defs>
</svg>
