<svg width="17" height="20" viewBox="0 0 17 20" version="1.1" xmlns="http://www.w3.org/2000/svg" xmlns:xlink="http://www.w3.org/1999/xlink">
<title>Vector</title>
<desc>Created using Figma</desc>
<g id="Canvas" transform="translate(-9322 -18809)">
<g id="Vector">
<use xlink:href="#path0_fill" transform="translate(9322.27 18809.4)" fill="#222222"/>
</g>
</g>
<defs>
<path id="path0_fill" d="M 15.2917 5.04688C 15.3889 5.14583 15.4861 5.27307 15.5833 5.42857L 10.6667 5.42857L 10.6667 0.424107C 10.8194 0.523065 10.9444 0.622024 11.0417 0.720982L 15.2917 5.04688ZM 10.3333 6.78571L 16 6.78571L 16 17.9821C 16 18.2649 15.9028 18.5052 15.7083 18.7031C 15.5139 18.901 15.2778 19 15 19L 1 19C 0.722222 19 0.486111 18.901 0.291667 18.7031C 0.0972222 18.5052 0 18.2649 0 17.9821L 0 1.01786C 0 0.735119 0.0972222 0.494792 0.291667 0.296875C 0.486111 0.0989583 0.722222 0 1 0L 9.33333 0L 9.33333 5.76786C 9.33333 6.05059 9.43056 6.29092 9.625 6.48884C 9.81944 6.68676 10.0556 6.78571 10.3333 6.78571ZM 12 14.5893L 12 13.9107C 12 13.8118 11.9688 13.7305 11.9062 13.6669C 11.8438 13.6032 11.7639 13.5714 11.6667 13.5714L 4.33333 13.5714C 4.23611 13.5714 4.15625 13.6032 4.09375 13.6669C 4.03125 13.7305 4 13.8118 4 13.9107L 4 14.5893C 4 14.6882 4.03125 14.7695 4.09375 14.8331C 4.15625 14.8968 4.23611 14.9286 4.33333 14.9286L 11.6667 14.9286C 11.7639 14.9286 11.8438 14.8968 11.9062 14.8331C 11.9688 14.7695 12 14.6882 12 14.5893ZM 12 11.875L 12 11.1964C 12 11.0975 11.9688 11.0162 11.9062 10.9526C 11.8438 10.889 11.7639 10.8571 11.6667 10.8571L 4.33333 10.8571C 4.23611 10.8571 4.15625 10.889 4.09375 10.9526C 4.03125 11.0162 4 11.0975 4 11.1964L 4 11.875C 4 11.974 4.03125 12.0552 4.09375 12.1189C 4.15625 12.1825 4.23611 12.2143 4.33333 12.2143L 11.6667 12.2143C 11.7639 12.2143 11.8438 12.1825 11.9062 12.1189C 11.9688 12.0552 12 11.974 12 11.875ZM 12 9.16071L 12 8.48214C 12 8.38318 11.9688 8.3019 11.9062 8.23828C 11.8438 8.17466 11.7639 8.14286 11.6667 8.14286L 4.33333 8.14286C 4.23611 8.14286 4.15625 8.17466 4.09375 8.23828C 4.03125 8.3019 4 8.38318 4 8.48214L 4 9.16071C 4 9.25967 4.03125 9.34096 4.09375 9.40458C 4.15625 9.46819 4.23611 9.5 4.33333 9.5L 11.6667 9.5C 11.7639 9.5 11.8438 9.46819 11.9062 9.40458C 11.9688 9.34096 12 9.25967 12 9.16071Z"/>
</defs>
</svg>
