<svg width="16" height="18" viewBox="0 0 16 18" version="1.1" xmlns="http://www.w3.org/2000/svg" xmlns:xlink="http://www.w3.org/1999/xlink">
<title>Vector</title>
<desc>Created using Figma</desc>
<g id="Canvas" transform="translate(-9603 -18771)">
<g id="Vector">
<use xlink:href="#path0_fill" transform="translate(9603.27 18771.4)" fill="#222222"/>
</g>
</g>
<defs>
<path id="path0_fill" d="M 4.54187 2.97767L 4.54187 4.69134L 4.54187 6.48219L 4.54187 11.5226C 4.0885 11.2475 3.5572 11.0861 2.98656 11.0861C 1.33757 11.0861 6.00124e-08 12.4103 6.00124e-08 14.0422C 6.00124e-08 15.6758 1.33721 17 2.98656 17C 4.63483 17 5.97168 15.6762 5.97204 14.0429L 5.97204 6.07502L 13.5698 3.91205L 13.5698 8.9709C 13.1165 8.6958 12.5852 8.53434 12.0145 8.53434C 10.3648 8.53434 9.02796 9.85819 9.02796 11.4901C 9.02796 13.1234 10.3648 14.4479 12.0145 14.4479C 13.5677 14.4479 14.8441 13.2706 14.9857 11.7677L 15 11.7677L 15 3.50487L 15 2.2352L 15 1.08052e-08L 4.54187 2.97767Z"/>
</defs>
</svg>
