<svg width="25" height="18" viewBox="0 0 25 18" version="1.1" xmlns="http://www.w3.org/2000/svg" xmlns:xlink="http://www.w3.org/1999/xlink">
<title>Group</title>
<desc>Created using Figma</desc>
<g id="Canvas" transform="translate(-9599 -18810)">
<g id="Group">
<g id="Vector">
<use xlink:href="#path0_fill" transform="matrix(-1 0 0 1 9623.27 18817.6)" fill="#222222"/>
</g>
<g id="Vector">
<use xlink:href="#path1_fill" transform="matrix(-1 0 0 1 9618.54 18810.4)" fill="#222222"/>
</g>
<g id="Vector">
<use xlink:href="#path2_fill" transform="matrix(-1 0 0 1 9604 18820.9)" fill="#222222"/>
</g>
</g>
</g>
<defs>
<path id="path0_fill" d="M 0 7.04534C 1.10539 6.84744 1.72869 6.02119 1.70435 4.81893C 1.68487 3.963 1.17843 2.87454 0 2.77064C 0 2.57274 0 2.36989 0 2.16704C 0 1.67228 0 1.17752 0 0.682765C 0 0.188008 0.189913 -1.50988e-07 0.681738 -1.50988e-07C 5.84347 -1.50988e-07 11.0003 -1.50988e-07 16.1621 -1.50988e-07C 17.2188 -1.50988e-07 18.2706 -1.50988e-07 19.3273 -1.50988e-07C 19.8094 -1.50988e-07 20.0042 0.197903 20.0042 0.687713C 20.0042 1.38037 20.0042 2.06808 20.0042 2.7558C 18.9085 2.98338 18.3047 3.74531 18.2998 4.8783C 18.2949 6.05088 18.8744 6.80291 19.9895 7.05524C 19.9944 7.11461 20.0042 7.17893 20.0042 7.24324C 20.0042 7.88643 20.0042 8.52961 20.0042 9.1728C 20.0042 9.59829 19.7899 9.81598 19.3808 9.81598C 13.1332 9.81598 6.88556 9.81598 0.637912 9.81598C 0.204522 9.81598 0.00486956 9.60818 0.00486956 9.1629C 0 8.4554 0 7.75284 0 7.04534ZM 16.3471 2.1324C 12.1057 2.1324 7.88382 2.1324 3.65217 2.1324C 3.65217 2.4441 3.65217 2.74095 3.65217 3.0477C 7.88869 3.0477 12.1106 3.0477 16.3471 3.0477C 16.3471 2.74095 16.3471 2.44905 16.3471 2.1324ZM 3.65217 5.27906C 7.9033 5.27906 12.1252 5.27906 16.3422 5.27906C 16.3422 4.96241 16.3422 4.66061 16.3422 4.36871C 12.1009 4.36871 7.87895 4.36871 3.65217 4.36871C 3.65217 4.67545 3.65217 4.97231 3.65217 5.27906ZM 16.352 6.59511C 12.1106 6.59511 7.88869 6.59511 3.65704 6.59511C 3.65704 6.90681 3.65704 7.20861 3.65704 7.51041C 7.89356 7.51041 12.1155 7.51041 16.352 7.51041C 16.352 7.20366 16.352 6.91176 16.352 6.59511Z"/>
<path id="path1_fill" d="M 15.8212 10.4049C 15.8212 9.53906 15.8212 8.73261 15.8212 7.92615C 15.8212 7.04549 15.3975 6.6101 14.521 6.61505C 14.1315 6.61505 13.7419 6.61505 13.3426 6.56557C 13.6689 6.42209 14 6.27861 14.3506 6.12029C 14.2337 5.83333 14.1169 5.55627 13.9951 5.25447C 13.888 5.29405 13.7955 5.32868 13.6981 5.37321C 12.8021 5.75912 11.9109 6.14503 11.0149 6.53094C 10.9322 6.56557 10.8445 6.60515 10.7617 6.60515C 9.7586 6.6101 8.7506 6.6101 7.72799 6.55568C 9.64173 5.72943 11.5555 4.90319 13.4936 4.06705C 13.3718 3.77514 13.2549 3.49808 13.1332 3.20123C 13.0309 3.24081 12.9433 3.27544 12.8556 3.31502C 10.3722 4.38864 7.88869 5.45732 5.40521 6.52599C 5.29808 6.57052 5.17147 6.6101 5.0546 6.6101C 3.4233 6.61505 1.792 6.61505 0.160696 6.61505C 0.10713 6.61505 0.0584346 6.60515 -7.43036e-08 6.56063C 0.43826 6.37262 0.871651 6.18461 1.30991 5.9966C 5.86295 4.02747 10.4209 2.05834 14.9788 0.0941507C 15.1443 0.0248847 15.3391 -0.0146959 15.5095 0.00509439C 15.6215 0.0149895 15.7774 0.133731 15.8261 0.242578C 16.1377 0.935238 16.4299 1.64274 16.7221 2.34035C 15.7871 3.03301 15.5436 3.93347 15.9819 4.99719C 16.4104 6.03618 17.2188 6.48641 18.3777 6.30335C 18.5871 6.80306 18.8014 7.30771 19.0108 7.81236C 19.0887 7.99542 19.1666 8.17353 19.2348 8.36154C 19.3273 8.62376 19.2445 8.91072 19.001 9.01957C 17.9541 9.48464 16.9022 9.92992 15.8212 10.4049Z"/>
<path id="path2_fill" d="M 0.871652 0.0186199C 0.579478 0.142309 0.292173 0.270946 -5.94429e-07 0.394636C 0.204521 0.0730434 0.496696 -0.0506461 0.871652 0.0186199Z"/>
</defs>
</svg>
