<svg width="22" height="19" viewBox="0 0 22 19" version="1.1" xmlns="http://www.w3.org/2000/svg" xmlns:xlink="http://www.w3.org/1999/xlink">
<title>Vector</title>
<desc>Created using Figma</desc>
<g id="Canvas" transform="translate(-9319 -18770)">
<g id="Vector">
<use xlink:href="#path0_fill" transform="translate(9319.27 18770.4)" fill="#222222"/>
</g>
</g>
<defs>
<path id="path0_fill" fill-rule="evenodd" d="M 18.375 2.57143C 17.1483 2.57143 15.8664 2.57143 15.8664 2.57143L 15.05 0.857143C 14.8619 0.430286 14.1094 0 13.4522 0L 7.66412 0C 7.007 0 6.2545 0.430286 6.06638 0.857143L 5.25 2.57143C 5.25 2.57143 3.92263 2.57143 2.625 2.57143C 0.534625 2.57143 0 4.28571 0 4.28571L 0 16.2857C 0 16.2857 1.3125 18 2.625 18C 3.9375 18 16.9802 18 18.375 18C 19.7698 18 21 16.2857 21 16.2857L 21 4.28571C 21 4.28571 20.559 2.57143 18.375 2.57143ZM 10.5 15.4294C 7.60112 15.4294 5.25 13.1263 5.25 10.2857C 5.25 7.446 7.60112 5.14286 10.5 5.14286C 13.3997 5.14286 15.75 7.446 15.75 10.2857C 15.75 13.1263 13.3997 15.4294 10.5 15.4294ZM 10.5 6.85714C 8.56713 6.85714 7 8.39229 7 10.2857C 7 12.1791 8.56713 13.7143 10.5 13.7143C 12.4329 13.7143 14 12.1791 14 10.2857C 14 8.39229 12.4329 6.85714 10.5 6.85714Z"/>
</defs>
</svg>
