<svg width="44" height="52" viewBox="0 0 44 52" version="1.1" xmlns="http://www.w3.org/2000/svg" xmlns:xlink="http://www.w3.org/1999/xlink">
<g id="Canvas" fill="none">
<g id="Group 2">
<g id="Rectangle">
<rect x="1" y="1" width="40.949" height="30.6874" rx="4" stroke-width="2" transform="translate(0.852539 18.8691)" stroke="white"/>
</g>
<g id="Rectangle 2">
<path d="M 26.2792 19.0696L 26.2792 13.1396C 26.2792 5.8828 20.3964 0 13.1396 0L 13.1396 0C 5.8828 0 0 5.8828 0 13.1396L 0 19.0696" stroke-width="2" transform="translate(9.1875 1.44336)" stroke="white"/>
</g>
<g id="Rectangle 2.1">
<path d="M 18.6138 14.9569L 18.6138 9.30691C 18.6138 4.16685 14.447 0 9.30691 0L 9.30691 0C 4.16684 0 0 4.16685 0 9.30692L 0 14.9569" stroke-width="2" transform="translate(12.9897 5.53906)" stroke="white"/>
</g>
<g id="Group">
<g id="Vector">
<path d="M 9.28398 4.59098C 9.28398 2.04044 7.24354 0 4.693 0C 2.14246 0 0 2.04044 0 4.59098C 0 6.22333 0.816174 7.54961 2.04043 8.46781L 2.04043 12.2426C 2.04043 13.4669 3.16267 14.3851 4.59098 14.3851L 4.693 14.3851C 6.1213 14.3851 7.24354 13.4669 7.24354 12.2426L 7.24354 8.46781C 8.4678 7.65163 9.28398 6.22333 9.28398 4.59098Z" stroke-width="2" stroke-miterlimit="10" transform="translate(17.6851 28.2266)" stroke="white"/>
</g>
</g>
</g>
</g>
</svg>

