<svg width="22" height="11" viewBox="0 0 22 11" version="1.1" xmlns="http://www.w3.org/2000/svg" xmlns:xlink="http://www.w3.org/1999/xlink">
<title>18+</title>
<desc>Created using Figma</desc>
<g id="Canvas" transform="translate(-3627 -20842)">
<g id="18+">
<use xlink:href="#path0_fill" transform="translate(3627 20842.7)" fill="#FFFFFF"/>
<use xlink:href="#path1_fill" transform="translate(3627 20842.7)" fill="#FFFFFF"/>
<use xlink:href="#path2_fill" transform="translate(3627 20842.7)" fill="#FFFFFF"/>
</g>
</g>
<defs>
<path id="path0_fill" d="M 3.94275 0.138889L 3.94275 9.86111L 2.09902 9.86111L 2.09902 1.65278L 0 1.65278L 0 0.138889L 3.94275 0.138889Z"/>
<path id="path1_fill" d="M 12.351 4.75C 12.871 4.98148 13.2681 5.2963 13.5423 5.69444C 13.826 6.08333 13.9678 6.54167 13.9678 7.06945C 13.9678 7.66204 13.7976 8.18056 13.4572 8.625C 13.1263 9.06944 12.6536 9.41204 12.039 9.65278C 11.4244 9.88426 10.7106 10 9.89742 10C 9.08429 10 8.37043 9.88426 7.75585 9.65278C 7.15073 9.41204 6.68271 9.06944 6.35178 8.625C 6.02086 8.18056 5.85539 7.66204 5.85539 7.06945C 5.85539 6.54167 5.99249 6.08333 6.26669 5.69444C 6.54088 5.2963 6.93327 4.98148 7.44384 4.75C 7.04673 4.53704 6.73944 4.25926 6.52197 3.91667C 6.31396 3.56481 6.20996 3.16204 6.20996 2.70833C 6.20996 2.16204 6.36124 1.68519 6.6638 1.27778C 6.97581 0.87037 7.41075 0.555556 7.96859 0.333333C 8.52644 0.111111 9.16938 0 9.89742 0C 10.6349 0 11.2826 0.111111 11.8404 0.333333C 12.3983 0.555556 12.8332 0.87037 13.1452 1.27778C 13.4572 1.68519 13.6132 2.16204 13.6132 2.70833C 13.6132 3.16204 13.5045 3.56019 13.287 3.90278C 13.0696 4.24537 12.7576 4.52778 12.351 4.75ZM 9.89742 1.41667C 9.32066 1.41667 8.86209 1.53704 8.52171 1.77778C 8.19079 2.01852 8.02532 2.35648 8.02532 2.79167C 8.02532 3.20833 8.19079 3.54167 8.52171 3.79167C 8.86209 4.03241 9.32066 4.15278 9.89742 4.15278C 10.4836 4.15278 10.9469 4.03241 11.2873 3.79167C 11.6277 3.54167 11.7979 3.20833 11.7979 2.79167C 11.7979 2.35648 11.623 2.01852 11.2731 1.77778C 10.9327 1.53704 10.4742 1.41667 9.89742 1.41667ZM 9.89742 8.58333C 10.5782 8.58333 11.1171 8.44444 11.5142 8.16667C 11.9113 7.88889 12.1099 7.50463 12.1099 7.01389C 12.1099 6.53241 11.9113 6.15278 11.5142 5.875C 11.1171 5.59722 10.5782 5.45833 9.89742 5.45833C 9.21666 5.45833 8.68245 5.59722 8.29479 5.875C 7.90713 6.15278 7.71331 6.53241 7.71331 7.01389C 7.71331 7.50463 7.90713 7.88889 8.29479 8.16667C 8.68245 8.44444 9.21666 8.58333 9.89742 8.58333Z"/>
<path id="path2_fill" d="M 22 5.69444L 19.4897 5.69444L 19.4897 8.125L 17.9722 8.125L 17.9722 5.69444L 15.4618 5.69444L 15.4618 4.30556L 17.9722 4.30556L 17.9722 1.875L 19.4897 1.875L 19.4897 4.30556L 22 4.30556L 22 5.69444Z"/>
</defs>
</svg>
