<svg width="32" height="30" viewBox="0 0 32 30" version="1.1" xmlns="http://www.w3.org/2000/svg" xmlns:xlink="http://www.w3.org/1999/xlink">
<title>Group</title>
<desc>Created using Figma</desc>
<g id="Canvas" transform="translate(-29036 -3019)">
<g id="Group">
<g id="Vector">
<use xlink:href="#path0_fill" transform="translate(29036.6 3019.1)" fill="#FFFFFF"/>
</g>
<g id="Vector">
<use xlink:href="#path1_fill" transform="translate(29039.7 3036.04)" fill="#FFFFFF"/>
</g>
<g id="Vector">
<use xlink:href="#path2_fill" transform="translate(29053.1 3036.04)" fill="#FFFFFF"/>
</g>
</g>
</g>
<defs>
<path id="path0_fill" d="M 5.74312 0.133664C 6.16877 0.0422202 6.6042 0 7.03955 0C 7.23323 0 7.42699 0 7.61995 0C 7.74065 0 7.85978 0.0218936 7.97735 0.0491986C 8.00224 0.05498 8.02715 0.0583838 8.05251 0.0615391C 10.5291 0.369661 12.7189 1.32111 14.622 2.89103C 14.6235 2.89229 14.6251 2.89355 14.6266 2.89481C 14.8636 3.08869 15.0759 3.30675 15.3026 3.52347C 15.3566 3.57506 15.446 3.58372 15.4996 3.53174C 15.5003 3.53105 15.5008 3.53052 15.5015 3.52981C 17.0712 1.92819 19.0005 0.931025 21.1676 0.356001C 21.1734 0.354481 21.1791 0.352963 21.1848 0.351459C 21.5731 0.249622 21.9695 0.179384 22.3651 0.111544C 22.7874 0.0391289 23.2151 0 23.6435 0C 23.819 0 23.9945 0 24.1694 0C 24.3338 0 24.4937 0.0361092 24.656 0.062288C 24.6597 0.0628892 24.6635 0.0634359 24.6672 0.0639823C 25.3086 0.157827 25.9311 0.325671 26.4853 0.676484C 26.4979 0.684437 26.5105 0.692556 26.523 0.700618C 27.6058 1.3994 28.1153 2.37909 27.9779 3.65171C 27.9748 3.6805 27.9715 3.70956 27.9678 3.73828C 27.8695 4.51569 27.5072 5.19052 27.0393 5.81057C 27.039 5.81093 27.0387 5.8113 27.0384 5.81166C 26.9018 5.99158 26.7539 6.16597 26.5928 6.3532C 26.492 6.47045 26.5749 6.6512 26.7296 6.6512C 27.8377 6.6512 28.9394 6.6512 30.0475 6.6512C 30.0475 6.6512 30.0475 6.6512 30.0475 6.6512C 30.6208 6.6512 30.8012 6.82806 30.8012 7.3839C 30.8012 7.3839 30.8012 7.3839 30.8012 7.3839C 30.8012 9.51886 30.8012 11.6538 30.8012 13.7951C 30.8012 13.7951 30.8012 13.7951 30.8012 13.7951C 30.8012 14.3699 30.6273 14.5404 30.0281 14.5404C 25.6408 14.5404 21.2471 14.5404 16.8598 14.5404C 16.6535 14.5404 16.4862 14.3731 16.4862 14.1667C 16.4862 12.0198 16.4862 9.89697 16.4862 7.78121C 16.4862 7.17456 15.9944 6.68278 15.3877 6.68278C 14.7811 6.68278 14.2893 7.17458 14.2893 7.78123C 14.2893 9.95381 14.2893 12.1152 14.2893 14.2762C 14.2893 14.4176 14.1794 14.5404 14.038 14.5404C 9.65697 14.5404 5.26966 14.5404 0.8884 14.5404C 0.747106 14.5404 0.604428 14.546 0.46568 14.5193C 0.140088 14.4566 0 14.254 0 13.8519C 0 13.8519 0 13.8519 0 13.8519C 0 11.6917 0 9.53781 0 7.37759C 0 7.37759 0 7.37759 0 7.37759C 0 6.82806 0.18683 6.64488 0.753763 6.64488C 0.753763 6.64488 0.753764 6.64488 0.753763 6.64488C 1.8683 6.64488 2.98928 6.64488 4.10382 6.64488C 4.23703 6.64488 4.31274 6.49361 4.2316 6.38797C 3.93685 6.00422 3.64785 5.64637 3.4104 5.25912C 3.40883 5.25655 3.40724 5.25398 3.40564 5.25143C 2.90556 4.45158 2.66186 3.57643 2.8787 2.63223C 2.8794 2.62918 2.88012 2.62607 2.88084 2.62302C 3.16932 1.38582 4.01979 0.662507 5.20702 0.275197C 5.22737 0.268559 5.24784 0.261919 5.26825 0.255465C 5.42295 0.206536 5.58203 0.16827 5.74312 0.133664ZM 20.6111 4.08976C 18.6681 4.9296 19.4274 6.66472 21.3768 5.83999C 21.3809 5.83826 21.385 5.83652 21.3892 5.83477C 23.3548 5.0004 22.5712 3.24254 20.6111 4.08976ZM 10.4534 4.20586C 8.49093 3.30367 7.61212 5.11075 9.61673 5.91502C 9.62778 5.91946 9.63884 5.92387 9.6499 5.92827C 11.4958 6.66184 12.2582 5.03552 10.4534 4.20586Z"/>
<path id="path1_fill" d="M 11.5033 -3.04311e-07C 11.5033 4.10833 11.5033 8.19173 11.5033 12.32C 11.4044 12.32 11.3055 12.32 11.2066 12.32C 7.70804 12.32 4.20326 12.32 0.704665 12.32C 0.179257 12.32 -4.71593e-08 12.1804 -4.71593e-08 11.7516C -4.71593e-08 7.91252 -4.71593e-08 4.07343 -4.71593e-08 0.239321C -4.71593e-08 0.164533 0.00618127 0.0947309 0.0123625 0.00498584C 3.84475 0 7.65859 -3.04311e-07 11.5033 -3.04311e-07Z"/>
<path id="path2_fill" d="M -3.77275e-07 12.32C -3.77275e-07 8.19173 -3.77275e-07 4.10334 -3.77275e-07 -6.08623e-07C 3.75203 -6.08623e-07 7.47933 -6.08623e-07 11.2499 -6.08623e-07C 11.2499 0.114674 11.2499 0.209405 11.2499 0.309122C 11.2499 4.09836 11.2499 7.88261 11.2499 11.6718C 11.2499 12.2053 11.1077 12.32 10.4587 12.32C 7.08992 12.32 3.72112 12.32 0.358514 12.32C 0.247251 12.32 0.135988 12.32 -3.77275e-07 12.32Z"/>
</defs>
</svg>
