<svg width="22" height="33" viewBox="0 0 22 33" version="1.1" xmlns="http://www.w3.org/2000/svg" xmlns:xlink="http://www.w3.org/1999/xlink">
<title>Vector</title>
<desc>Created using Figma</desc>
<g id="Canvas" transform="translate(-29324 -3018)">
<g id="Vector">
<use xlink:href="#path0_fill" transform="translate(29324.9 3018.46)" fill="#FFFFFF"/>
</g>
</g>
<defs>
<path id="path0_fill" fill-rule="evenodd" d="M 2.60687 0C 1.16657 0 0 1.19652 0 2.67348L 0 9.36418C 0 10.3003 0.378097 11.1495 0.983943 11.757L 3.81907 14.6644C 1.87693 16.4965 0.651826 19.1298 0.651826 22.0575C 0.651826 27.592 5.03148 32.0833 10.4276 32.0833C 15.8234 32.0833 20.2034 27.592 20.2034 22.0575C 20.2034 19.1298 18.9783 16.4965 17.0365 14.6644L 19.871 11.757C 20.477 11.1495 20.855 10.3003 20.855 9.36418L 20.855 2.67356C 20.855 1.19652 19.6884 7.36685e-05 18.2482 7.36685e-05L 2.60687 7.36685e-05L 2.60687 0ZM 10.4275 16.7101C 10.6557 16.7101 10.8446 16.8578 10.9099 17.0646L 12.0964 20.0521L 15.1398 20.0521C 15.4133 20.0521 15.6413 20.3532 15.6413 20.6272C 15.6413 20.7942 15.5629 20.9411 15.4387 21.028L 12.8778 22.8124C 12.8778 22.8124 13.699 25.9874 13.7256 26.0808C 13.7447 26.1277 13.751 26.1814 13.751 26.2348C 13.751 26.5157 13.5295 26.736 13.2494 26.736C 13.126 26.736 13.0082 26.6899 12.9235 26.6159L 10.4275 24.6174L 7.9313 26.6159C 7.84673 26.6899 7.7293 26.736 7.60557 26.736C 7.32546 26.736 7.10373 26.5157 7.10373 26.2348C 7.10373 26.1814 7.10997 26.1277 7.12977 26.0808C 7.15581 25.9874 7.98998 22.8263 7.98998 22.8263L 5.41581 21.0281C 5.29208 20.9411 5.21382 20.7942 5.21382 20.6273C 5.21382 20.3532 5.44207 20.0521 5.71558 20.0521L 8.75909 20.0521L 9.94517 17.0647C 10.0103 16.8578 10.1993 16.7101 10.4275 16.7101ZM 5.86543 4.67889L 5.86543 9.35756C 5.86543 10.0927 5.27909 10.6944 4.56206 10.6944C 3.84503 10.6944 3.2587 10.0926 3.2587 9.35756L 3.2587 4.67889C 3.2587 3.94379 3.84503 3.34193 4.56206 3.34193C 5.27909 3.34193 5.86543 3.94386 5.86543 4.67889ZM 11.731 4.67889L 11.731 10.6945C 11.731 11.4295 11.1442 12.0313 10.4275 12.0313C 9.71046 12.0313 9.12413 11.4295 9.12413 10.6945L 9.12413 4.67889C 9.12413 3.94379 9.71053 3.34193 10.4275 3.34193C 11.1442 3.34193 11.731 3.94386 11.731 4.67889ZM 17.5962 4.67889L 17.5962 9.35756C 17.5962 10.0927 17.0094 10.6944 16.2931 10.6944C 15.5763 10.6944 14.9895 10.0926 14.9895 9.35756L 14.9895 4.67889C 14.9895 3.94379 15.5763 3.34193 16.2931 3.34193C 17.0095 3.34193 17.5962 3.94386 17.5962 4.67889Z"/>
</defs>
</svg>
