<svg width="30" height="35" viewBox="0 0 30 35" version="1.1" xmlns="http://www.w3.org/2000/svg" xmlns:xlink="http://www.w3.org/1999/xlink">
<title>Group</title>
<desc>Created using Figma</desc>
<g id="Canvas" transform="translate(-29610 -3016)">
<g id="Group">
<g id="Group">
<g id="Vector">
<use xlink:href="#path0_fill" transform="translate(29610.5 3016.85)" fill="#FFFFFF"/>
<use xlink:href="#path1_fill" transform="translate(29610.5 3016.85)" fill="#FFFFFF"/>
</g>
</g>
</g>
</g>
<defs>
<path id="path0_fill" d="M 26.0968 10.8846C 26.0406 10.8008 25.9843 10.717 25.9139 10.5983C 26.4557 10.0747 26.9974 9.572 27.511 9.04837C 28.2286 8.31528 28.2568 7.25405 27.6025 6.52097C 26.8778 5.71108 25.6958 5.67618 24.8797 6.45813C 24.352 6.9678 23.8384 7.49143 23.3108 8.02205C 23.2193 7.95223 23.1279 7.8894 23.0364 7.81958C 22.9942 7.78467 22.952 7.74976 22.9097 7.72183C 21.2212 6.50002 19.3427 5.68316 17.2954 5.26425C 17.225 5.25029 17.1547 5.23632 17.0914 5.22236C 16.416 5.08273 16.3104 5.06178 16.2893 4.58004C 16.2893 4.2868 16.2893 4.00055 16.2893 3.69335C 16.43 3.69335 16.5637 3.69335 16.6903 3.69335C 17.0351 3.69335 17.3657 3.70034 17.6964 3.68637C 18.808 3.65845 19.603 2.87649 19.596 1.81526C 19.596 0.998393 18.9699 0.230398 18.1819 0.0558541C 18.1748 0.0558541 18.1608 0.0488724 18.1537 0.0488724C 18.1467 0.0488724 18.1326 0.0418906 18.1256 0.0418906C 18.0341 0.0279271 17.9497 0.0139635 17.8512 0.0139635C 16.7466 0.00698177 15.642 0 14.5445 0C 14.5093 0 14.4741 0 14.439 0C 14.4038 0 14.3686 0 14.3334 0C 13.2289 0 12.1243 0.00698177 11.0267 0.0139635C 10.9353 0.0139635 10.8438 0.0209453 10.7523 0.0418906C 10.7453 0.0418906 10.7312 0.0488724 10.7242 0.0488724C 10.7172 0.0488724 10.7031 0.0558541 10.6961 0.0558541C 9.90808 0.230398 9.28895 0.998393 9.28192 1.81526C 9.27488 2.87649 10.0629 3.65845 11.1815 3.68637C 11.5122 3.69335 11.8429 3.69335 12.1876 3.69335C 12.3142 3.69335 12.4409 3.69335 12.5886 3.69335L 12.5886 4.58004C 12.5745 5.06178 12.462 5.08273 11.7866 5.22236C 11.7162 5.23632 11.6459 5.25029 11.5825 5.26425C 9.5352 5.68316 7.65671 6.50002 5.96818 7.72183C 5.90486 7.76372 5.84858 7.8126 5.79229 7.86147C 5.09577 8.39208 4.28669 8.82495 2.61223 11.115C -2.91067 18.9834 0.747814 29.7353 9.60555 32.8352C 11.1674 33.4078 12.7786 33.694 14.439 33.687C 16.0994 33.701 17.7175 33.4078 19.2794 32.8352C 28.2145 29.7004 31.859 18.774 26.0968 10.8846ZM 7.91702 10.8148C 8.0507 10.7449 8.18437 10.6681 8.31805 10.5774C 9.10603 10.0398 9.91512 9.62087 10.7453 9.29971C 11.1674 9.14611 11.6036 9.02044 12.0539 8.91572C 12.863 8.73419 13.658 8.64343 14.4319 8.63644C 15.2129 8.64343 16.0079 8.73419 16.8099 8.91572C 17.2602 9.02044 17.6964 9.14611 18.1186 9.29971C 18.9487 9.61389 19.7649 10.0398 20.5458 10.5774C 20.6795 10.6681 20.8132 10.7449 20.9468 10.8148C 25.6958 14.3685 26.8497 21.4829 22.5087 26.3701C 21.8615 27.0962 21.1649 27.7106 20.4262 28.2203C 20.2855 28.2762 20.1518 28.346 20.0111 28.4298C 18.6533 29.2536 17.1828 29.7772 15.5998 29.9308C 15.1988 29.9657 14.8119 29.9867 14.4249 29.9867C 14.0379 29.9867 13.651 29.9657 13.25 29.9308C 11.6599 29.7842 10.1895 29.2606 8.83868 28.4298C 8.705 28.346 8.56429 28.2762 8.42358 28.2203C 7.68485 27.7176 6.98833 27.0962 6.34106 26.3701C 2.01421 21.4829 3.16804 14.3685 7.91702 10.8148Z"/>
<path id="path1_fill" d="M 14.383 22.216C 15.9871 22.216 17.3027 20.9244 17.2816 19.3326C 17.2746 19.0324 17.359 18.8089 17.5489 18.5785C 18.5198 17.3986 19.4696 16.2047 20.4335 15.0178C 20.7079 14.6757 20.8979 14.3127 20.7853 13.8658C 20.5742 13.0211 19.6104 12.7069 18.8927 13.2654C 17.6474 14.2359 16.4162 15.2203 15.185 16.2047C 14.9528 16.3932 14.7347 16.5887 14.4533 16.47C 12.807 16.4631 11.5125 17.7337 11.4913 19.3186C 11.4773 20.9105 12.7789 22.216 14.383 22.216Z"/>
</defs>
</svg>
