<svg width="24" height="33" viewBox="0 0 24 33" version="1.1" xmlns="http://www.w3.org/2000/svg" xmlns:xlink="http://www.w3.org/1999/xlink">
<title>Group</title>
<desc>Created using Figma</desc>
<g id="Canvas" transform="translate(-29901 -3020)">
<g id="Group">
<g id="Vector">
<use xlink:href="#path0_fill" transform="translate(29902 3020.06)" fill="#FFFFFF"/>
<use xlink:href="#path1_fill" transform="translate(29902 3020.06)" fill="#FFFFFF"/>
<use xlink:href="#path2_fill" transform="translate(29902 3020.06)" fill="#FFFFFF"/>
</g>
</g>
</g>
<defs>
<path id="path0_fill" d="M 16.8701 22.0078C 13.1029 22.0078 9.38847 22.0078 5.69158 22.0078C 5.66524 21.9641 5.63889 21.9291 5.63889 21.9117C 5.80574 21.1079 5.36668 20.7059 4.73443 20.2691C 0.976071 17.648 -0.753828 13.0261 0.308699 8.58765C 1.35366 4.19291 4.96274 0.872823 9.4675 0.147648C 15.9129 -0.9008 21.928 3.75605 22.4198 10.2564C 22.7535 14.6512 20.9621 18.0848 17.3179 20.5662C 16.9667 20.8021 16.7998 21.0292 16.8613 21.4399C 16.8876 21.6146 16.8701 21.7893 16.8701 22.0078ZM 11.0657 14.0833C 9.97681 12.9911 8.92307 11.9339 7.86932 10.8855C 7.30732 10.3263 6.78045 10.3263 6.23601 10.868C 5.7267 11.3835 5.73549 11.9165 6.27992 12.4669C 7.70248 13.891 9.13381 15.3064 10.5564 16.7306C 10.7144 16.8966 10.8462 17.0888 10.9603 17.2373C 11.1008 17.1762 11.1359 17.1674 11.1535 17.15C 12.7605 15.5598 14.3586 13.9609 15.9656 12.3708C 16.2378 12.0999 16.3432 11.7679 16.2378 11.4097C 16.1061 10.9641 15.7988 10.6496 15.3509 10.5185C 14.947 10.3962 14.6133 10.5447 14.3235 10.8418C 13.261 11.9077 12.1897 12.9736 11.0657 14.0833Z"/>
<path id="path1_fill" d="M 5.6383 28.7614C 9.39666 28.7614 13.1023 28.7614 16.8519 28.7614C 16.8431 29.7575 16.4831 30.5613 15.7455 31.1903C 15.1308 31.7233 14.3932 32.0291 13.5853 32.0466C 12.0222 32.0815 10.4504 32.1077 8.88735 32.0466C 7.11355 31.9767 5.70855 30.6224 5.6383 29.0323C 5.6383 28.9536 5.6383 28.875 5.6383 28.7614Z"/>
<path id="path2_fill" d="M 16.8531 24.2967C 16.8619 24.4016 16.8707 24.4889 16.8707 24.5763C 16.8707 25.1966 16.8707 25.8257 16.8707 26.481C 13.1211 26.481 9.40668 26.481 5.6571 26.481C 5.6571 25.7558 5.6571 25.0394 5.6571 24.2967C 9.38912 24.2967 13.1123 24.2967 16.8531 24.2967Z"/>
</defs>
</svg>
