<svg width="28" height="31" viewBox="0 0 28 31" version="1.1" xmlns="http://www.w3.org/2000/svg" xmlns:xlink="http://www.w3.org/1999/xlink">
<title>Group</title>
<desc>Created using Figma</desc>
<g id="Canvas" transform="translate(-30189 -3018)">
<g id="Group">
<g id="Vector">
<use xlink:href="#path0_fill" transform="matrix(-1 0 0 1 30216.9 3018.46)" fill="#FFFFFF"/>
</g>
</g>
</g>
<defs>
<path id="path0_fill" d="M 13.6076 30.4702C 11.2729 30.4702 8.94579 30.4702 6.61106 30.4702C 3.21924 30.4702 0.610727 28.4378 0.0707729 25.3681C -0.0128819 24.8916 0.00993304 24.387 0.00993304 23.9034C 0.00993304 21.7098 -0.0204869 19.5091 0.025143 17.3155C 0.0783779 14.8556 1.91118 12.662 4.46645 11.9401C 4.79347 11.849 4.88473 11.7159 4.88473 11.4075C 4.86952 10.167 4.8467 8.93356 4.89233 7.69308C 5.05964 3.33389 9.15112 -0.149255 13.8814 0.0049284C 18.6497 0.159112 22.361 3.6773 22.3914 8.08555C 22.399 9.22791 22.399 10.3773 22.3914 11.5196C 22.3914 11.7439 22.4598 11.835 22.7032 11.9051C 25.479 12.7181 27.2586 14.9537 27.2662 17.6449C 27.2738 19.9086 27.2738 22.1723 27.2662 24.443C 27.2586 27.8561 24.4752 30.4492 20.7639 30.4772C 18.3684 30.4842 15.988 30.4702 13.6076 30.4702ZM 17.5166 11.6248C 17.5166 10.3282 17.5698 9.06672 17.5014 7.80521C 17.4101 6.08817 15.8739 4.64445 14.0715 4.50428C 11.6836 4.30805 9.79755 5.8639 9.74431 8.07854C 9.7215 9.04569 9.73671 10.0128 9.73671 10.98C 9.73671 11.1832 9.73671 11.3935 9.73671 11.6178C 12.3528 11.6248 14.9157 11.6248 17.5166 11.6248ZM 11.676 22.6138C 11.676 23.1044 11.676 23.595 11.676 24.0856C 11.6836 25.1719 12.4973 25.9708 13.6076 25.9849C 14.7256 25.9989 15.5621 25.1929 15.5697 24.0856C 15.5773 23.1885 15.5849 22.2915 15.5621 21.3874C 15.5545 21.03 15.6382 20.7636 15.8967 20.4763C 16.855 19.411 16.7333 17.8552 15.661 16.888C 14.6039 15.9349 12.9384 15.8648 11.7824 16.7268C 10.6417 17.5748 10.3071 19.1657 11.1893 20.245C 11.6151 20.7636 11.6988 21.2682 11.676 21.8499C 11.6684 22.1022 11.676 22.3615 11.676 22.6138Z"/>
</defs>
</svg>
