<svg width="122" height="108" viewBox="0 0 122 108" fill="none" xmlns="http://www.w3.org/2000/svg">
<path d="M3 102.203H113.659C115.316 102.203 116.659 100.86 116.659 99.2031V3C116.659 1.34315 115.316 0 113.659 0H3C1.34315 0 0 1.34315 0 3V99.2031C0 100.86 1.34314 102.203 3 102.203Z" transform="translate(2.91797 2.95898)" stroke="white" stroke-width="4" stroke-miterlimit="10"/>
<path d="M0 -6.19155e-06H13.5426V12.6803H0V-6.19155e-06Z" transform="translate(2.91797 16.0469)" stroke="white" stroke-width="4" stroke-miterlimit="10"/>
<path d="M-6.19155e-06 -6.19155e-06H13.5425V12.6803H-6.19155e-06V-6.19155e-06Z" transform="translate(28.6855 16.0469)" stroke="white" stroke-width="4" stroke-miterlimit="10"/>
<path d="M6.19155e-06 -6.19155e-06H13.5426V12.6803H6.19155e-06V-6.19155e-06Z" transform="translate(54.502 16.0469)" stroke="white" stroke-width="4" stroke-miterlimit="10"/>
<path d="M0 -6.19155e-06H13.5426V12.6803H0V-6.19155e-06Z" transform="translate(80.2695 16.0469)" stroke="white" stroke-width="4" stroke-miterlimit="10"/>
<path d="M-6.19155e-06 -6.19155e-06H13.5425V12.6803H-6.19155e-06V-6.19155e-06Z" transform="translate(106.035 16.0469)" stroke="white" stroke-width="4" stroke-miterlimit="10"/>
<path d="M0 6.19155e-06H13.5426V12.6803H0V6.19155e-06Z" transform="translate(2.91797 79.3926)" stroke="white" stroke-width="4" stroke-miterlimit="10"/>
<path d="M-6.19155e-06 6.19155e-06H13.5425V12.6803H-6.19155e-06V6.19155e-06Z" transform="translate(28.6855 79.3926)" stroke="white" stroke-width="4" stroke-miterlimit="10"/>
<path d="M6.19155e-06 6.19155e-06H13.5426V12.6803H6.19155e-06V6.19155e-06Z" transform="translate(54.502 79.3926)" stroke="white" stroke-width="4" stroke-miterlimit="10"/>
<path d="M0 6.19155e-06H13.5426V12.6803H0V6.19155e-06Z" transform="translate(80.2695 79.3926)" stroke="white" stroke-width="4" stroke-miterlimit="10"/>
<path d="M-6.19155e-06 6.19155e-06H13.5425V12.6803H-6.19155e-06V6.19155e-06Z" transform="translate(106.035 79.3926)" stroke="white" stroke-width="4" stroke-miterlimit="10"/>
</svg>
