<svg width="147" height="125" viewBox="0 0 147 125" fill="none" xmlns="http://www.w3.org/2000/svg">
<path d="M56.3777 9.17909V3.1903C56.3777 1.45522 54.9766 4.27018e-07 53.1833 4.27018e-07H18.0453C16.3081 4.27018e-07 14.851 1.39925 14.851 3.1903V11.0261C14.851 12.7612 13.4499 14.2164 11.6566 14.2164H3.19436C1.45708 14.2164 -1.06891e-07 15.6157 -1.06891e-07 17.4067V103.433C-1.06891e-07 105.168 1.40104 106.623 3.19436 106.623H117.687" transform="translate(2.81836 16.377)" stroke="white" stroke-width="4" stroke-miterlimit="10"/>
<path d="M121.275 70.8581H1.5705C0.561759 70.8581 -0.222821 69.9066 0.0573858 68.8992L17.4863 8.54036e-07H140.497L122.844 69.6827C122.676 70.3544 122.004 70.8581 121.275 70.8581Z" transform="translate(3.32031 52.0293)" stroke="white" stroke-width="4" stroke-miterlimit="10"/>
<path d="M-8.55124e-07 49.0298L48.5319 1.06754e-07L98.1846 49.0298" transform="translate(33.0254 3)" stroke="white" stroke-width="4" stroke-miterlimit="10"/>
<path d="M-1.71025e-06 8.54036e-07L10.6479 11.194" transform="translate(92.4863 30.7637)" stroke="white" stroke-width="4" stroke-miterlimit="10"/>
<path d="M1.71025e-06 8.54036e-07L15.5235 15.6716" transform="translate(70.4043 36.3594)" stroke="white" stroke-width="4" stroke-miterlimit="10"/>
<path d="M8.55124e-07 -8.54036e-07L3.2504 3.24627" transform="translate(57.291 47.9473)" stroke="white" stroke-width="4" stroke-miterlimit="10"/>
</svg>
