<svg width="109" height="121" viewBox="0 0 109 121" fill="none" xmlns="http://www.w3.org/2000/svg">
<path d="M41.3348 20.6674C41.3348 32.0792 32.0792 41.3348 20.6674 41.3348C9.25563 41.3348 8.02442e-07 32.0792 8.02442e-07 20.6674C8.02442e-07 9.25563 9.25563 -8.02442e-07 20.6674 -8.02442e-07C24.4012 -8.02442e-07 27.9247 0.99919 30.9748 2.73462" transform="translate(64.7461 61.1914)" stroke="white" stroke-width="4" stroke-miterlimit="10" stroke-linejoin="round"/>
<path d="M-8.02442e-07 78.4626V20.9304L72.783 -5.01526e-08V79.304" transform="translate(33.2988 2.55664)" stroke="white" stroke-width="4" stroke-miterlimit="10" stroke-linejoin="round"/>
<path d="M93.0823 34.4983V8.02442e-07L41.2822 14.2516V69.0492V68.1551C41.2822 79.5669 32.0266 88.8226 20.6148 88.8226C9.20305 88.8226 1.00305e-07 79.5143 1.00305e-07 68.1026C1.00305e-07 56.6908 9.25564 47.4351 20.6674 47.4351C24.296 47.4351 27.7143 48.3817 30.7119 50.012" transform="translate(2.63867 30.0605)" stroke="white" stroke-width="4" stroke-miterlimit="10" stroke-linejoin="round"/>
</svg>
