<svg width="21" height="19" viewBox="0 0 21 19" fill="none" xmlns="http://www.w3.org/2000/svg">
<path d="M6.6669 6.86851C6.88961 6.86851 7.04454 6.86851 7.19947 6.86851C8.53576 6.86851 9.88173 6.85855 11.218 6.87848C12.196 6.88845 12.8157 7.29717 12.99 8.29405C13.1643 9.26103 13.1837 10.2679 13.1837 11.2548C13.1837 12.4909 12.9513 13.6972 12.5059 14.8535C11.5666 17.3059 9.78489 18.5719 7.25757 18.7414C4.85613 18.9009 2.54184 18.3526 0.285655 17.575C0.169456 17.5351 0.014525 17.3358 0.014525 17.2062C-0.00484146 14.0959 -0.00484146 10.9956 0.014525 7.88533C0.014525 7.70589 0.0919907 7.47661 0.208189 7.33705C0.905381 6.49967 1.61226 5.65232 2.35786 4.85481C2.81297 4.36634 3.35524 3.95762 3.84908 3.50902C5.2822 2.20311 6.26988 0 7.96445 0C8.49702 0 8.71006 1.50529 8.49702 2.4922C8.19684 3.91774 7.66427 5.2436 6.88961 6.46976C6.82183 6.56945 6.76373 6.67911 6.6669 6.86851Z" transform="translate(7.04297 0.148438)" fill="white"/>
<path d="M1.06514 -1.52112e-07H3.8248C4.41547 -1.52112e-07 4.88994 0.488472 4.88994 1.09657V10.7364C4.88994 11.3445 4.41547 11.833 3.8248 11.833H1.06514C0.474469 11.833 0 11.3445 0 10.7364C0 7.72583 0 4.69531 0 1.09657C0 0.488472 0.474469 -1.52112e-07 1.06514 -1.52112e-07Z" transform="translate(0.482422 7.03906)" fill="white"/>
</svg>
