<svg width="43" height="37" viewBox="0 0 43 37" fill="none" xmlns="http://www.w3.org/2000/svg">
<mask id="path-1-inside-1" fill="white">
<path d="M10 0C4.5 0 0 4.5 0 10C0 17.3 4.6 22.1 21.3 35.8C38 22.1 42.6 17.3 42.6 10C42.6 4.5 38.1 0 32.6 0C27.6 0 24.9 3.00001 22.8 5.40001L21.3 7.10001L19.8 5.40001C17.7 3.00001 15 0 10 0Z"/>
</mask>
<path d="M10 0C4.5 0 0 4.5 0 10C0 17.3 4.6 22.1 21.3 35.8C38 22.1 42.6 17.3 42.6 10C42.6 4.5 38.1 0 32.6 0C27.6 0 24.9 3.00001 22.8 5.40001L21.3 7.10001L19.8 5.40001C17.7 3.00001 15 0 10 0Z" transform="translate(0.128906 0.628906)" stroke="white" stroke-width="4" mask="url(#path-1-inside-1)"/>
</svg>
