<svg width="72" height="37" viewBox="0 0 72 37" fill="none" xmlns="http://www.w3.org/2000/svg">
<path d="M11 1.90735e-07C4.9 1.90735e-07 0 4.9 0 11C0 17.1 4.9 22 11 22C17.1 22 22 17.1 22 11C22 5 17.1 1.90735e-07 11 1.90735e-07ZM11 20C6 20 2 16 2 11C2 6 6 2 11 2C16 2 20 6 20 11C20 16 16 20 11 20Z" transform="translate(24.7324 7.36133)" fill="white"/>
<path d="M-4.76837e-08 17.3333C34.2 56.3333 68.4 17.3333 68.4 17.3333C34.2 -21.6667 -4.76837e-08 17.3333 -4.76837e-08 17.3333ZM34.2 28.3333C28.1 28.3333 23.2 23.4333 23.2 17.3333C23.2 11.2333 28.1 6.33333 34.2 6.33333C40.3 6.33333 45.2 11.2333 45.2 17.3333C45.2 23.4333 40.3 28.3333 34.2 28.3333Z" transform="translate(1.5332 1.02734)" fill="white"/>
<path d="M-4.76837e-08 17.3333C34.2 56.3333 68.4 17.3333 68.4 17.3333C34.2 -21.6667 -4.76837e-08 17.3333 -4.76837e-08 17.3333ZM34.2 28.3333C28.1 28.3333 23.2 23.4333 23.2 17.3333C23.2 11.2333 28.1 6.33333 34.2 6.33333C40.3 6.33333 45.2 11.2333 45.2 17.3333C45.2 23.4333 40.3 28.3333 34.2 28.3333Z" transform="translate(1.5332 1.02734)" stroke="white" stroke-width="2" stroke-miterlimit="10"/>
</svg>
