<svg width="21" height="19" viewBox="0 0 21 19" fill="none" xmlns="http://www.w3.org/2000/svg">
<path d="M6.66684 6.86851C6.88955 6.86851 7.04448 6.86851 7.19941 6.86851C8.53568 6.86851 9.88163 6.85855 11.2179 6.87848C12.1959 6.88845 12.8156 7.29717 12.9899 8.29405C13.1642 9.26103 13.1836 10.2679 13.1836 11.2548C13.1836 12.4909 12.9512 13.6972 12.5058 14.8535C11.5665 17.3059 9.7848 18.5719 7.25751 18.7414C4.85609 18.9009 2.54182 18.3526 0.285652 17.575C0.169454 17.5351 0.0145248 17.3358 0.0145248 17.2062C-0.00484142 14.0959 -0.00484142 10.9956 0.0145248 7.88533C0.0145248 7.70589 0.0919899 7.47661 0.208187 7.33705C0.905373 6.49967 1.61224 5.65232 2.35784 4.85481C2.81295 4.36634 3.3552 3.95762 3.84904 3.50902C5.28215 2.20311 6.26983 0 7.96437 0C8.49695 0 8.70998 1.50529 8.49695 2.4922C8.19677 3.91774 7.6642 5.2436 6.88955 6.46976C6.82176 6.56945 6.76367 6.67911 6.66684 6.86851Z" transform="translate(7.44531 18.8672) scale(1 -1)" fill="white"/>
<path d="M1.06514 -1.52112e-07H3.8248C4.41547 -1.52112e-07 4.88994 0.488472 4.88994 1.09657V10.7364C4.88994 11.3445 4.41547 11.833 3.8248 11.833H1.06514C0.474469 11.833 0 11.3445 0 10.7364C0 7.72583 0 4.69531 0 1.09657C0 0.488472 0.474469 -1.52112e-07 1.06514 -1.52112e-07Z" transform="translate(0.884766 11.9766) scale(1 -1)" fill="white"/>
</svg>
