<svg width="35" height="37" viewBox="0 0 35 37" fill="none" xmlns="http://www.w3.org/2000/svg">
<path d="M31.7 5.5H0.3C0.134315 5.5 0 5.36569 0 5.2V0.3C0 0.134315 0.134315 0 0.3 0H31.7C31.8657 0 32 0.134315 32 0.3V5.2C32 5.36569 31.8657 5.5 31.7 5.5Z" transform="translate(1.42773 30.0586)" fill="white"/>
<path d="M32 0.3V5.2C32 5.36569 31.8657 5.5 31.7 5.5H0.3C0.134315 5.5 0 5.36569 0 5.2V0.3C0 0.134315 0.134315 0 0.3 0H31.7C31.8657 0 32 0.134315 32 0.3Z" transform="translate(1.42773 30.0586)" stroke="white" stroke-width="2" stroke-linecap="round"/>
<path d="M0 0V20.1923" transform="translate(17.9277 1.05859)" stroke="white" stroke-width="2" stroke-linecap="round"/>
<path d="M0 0L5.28496 5.43279C5.40275 5.55388 5.59725 5.55388 5.71504 5.43279L11 0" transform="translate(12.4277 16.4043)" stroke="white" stroke-width="2" stroke-linecap="round"/>
</svg>
