<svg width="18" height="18" viewBox="0 0 18 18" version="1.1" xmlns="http://www.w3.org/2000/svg" xmlns:xlink="http://www.w3.org/1999/xlink">
<title>Vector</title>
<desc>Created using Figma</desc>
<g id="Canvas" transform="translate(-4451 -19364)">
<g id="Vector">
<use xlink:href="#path0_fill" transform="translate(4451 19364)" fill="#BDBDBD"/>
</g>
</g>
<defs>
<path id="path0_fill" d="M 17.1985 2.55434L 15.455 0.804681C 14.9386 0.286062 14.2513 2.05712e-07 13.52 2.05712e-07C 12.7886 2.05712e-07 12.1013 0.285641 11.5849 0.80426L 1.8914 10.5308C 1.85151 10.5708 1.81877 10.6159 1.79022 10.6627C 1.78182 10.6761 1.77552 10.6896 1.76797 10.7039C 1.74781 10.7427 1.73102 10.7827 1.71843 10.824C 1.71549 10.8329 1.70961 10.8413 1.70751 10.8506L 0.0248165 17.0967C -0.0419371 17.3445 0.0281751 17.609 0.208704 17.7902C 0.34431 17.9258 0.526518 18 0.713344 18C 0.775479 18 0.838034 17.9916 0.89933 17.9751L 6.85635 16.359C 6.90379 16.3687 6.95249 16.3742 7.00077 16.3742C 7.18382 16.3742 7.36603 16.3043 7.50542 16.1644L 17.1985 6.43829C 17.7154 5.91967 18.0004 5.22959 18 4.4961C 18.0004 3.76262 17.7158 3.07296 17.1985 2.55434ZM 7.00119 14.6452L 3.40574 11.0372L 11.0589 3.35733L 14.6548 6.96491L 7.00119 14.6452ZM 1.72682 16.2672L 2.76381 12.4186L 5.562 15.2266L 1.72682 16.2672ZM 16.1893 5.42549L 15.6645 5.95211L 12.0686 2.34453L 12.5942 1.81748C 13.0888 1.32119 13.9511 1.32119 14.4457 1.81748L 16.1893 3.56756C 16.4365 3.8157 16.573 4.146 16.573 4.49695C 16.573 4.84789 16.437 5.17734 16.1893 5.42549Z"/>
</defs>
</svg>
