<svg width="17" height="16" viewBox="0 0 17 16" version="1.1" xmlns="http://www.w3.org/2000/svg" xmlns:xlink="http://www.w3.org/1999/xlink">
<title>Group</title>
<desc>Created using Figma</desc>
<g id="Canvas" transform="translate(-386 -16096)">
<g id="Group">
<g id="Vector">
<use xlink:href="#path0_fill" transform="translate(386 16096)" fill="#222222"/>
</g>
<g id="Vector">
<use xlink:href="#path1_fill" transform="translate(389.589 16104)" fill="#222222"/>
</g>
<g id="Vector">
<use xlink:href="#path2_fill" transform="translate(389.589 16106.9)" fill="#222222"/>
</g>
</g>
</g>
<defs>
<path id="path0_fill" d="M 0.600345 16L 16.3997 16C 16.7364 16 17 15.7316 17 15.3886L 17 1.74464C 17 1.40168 16.7364 1.13327 16.3997 1.13327L 13.4272 1.13327L 13.4272 0.61137C 13.4272 0.268406 13.1637 2.84414e-08 12.8269 2.84414e-08C 12.4901 2.84414e-08 12.2265 0.268406 12.2265 0.61137L 12.2265 1.13327L 4.87597 1.13327L 4.87597 0.61137C 4.87597 0.268406 4.6124 2.84414e-08 4.27562 2.84414e-08C 3.93885 2.84414e-08 3.67528 0.268406 3.67528 0.61137L 3.67528 1.13327L 0.600345 1.13327C 0.263566 1.13327 1.39642e-08 1.40168 1.39642e-08 1.74464L 1.39642e-08 15.4035C 1.39642e-08 15.7316 0.278208 16 0.600345 16ZM 1.20069 2.35601L 3.67528 2.35601L 3.67528 2.68406C 3.67528 3.02703 3.93885 3.29543 4.27562 3.29543C 4.6124 3.29543 4.87597 3.02703 4.87597 2.68406L 4.87597 2.35601L 12.2265 2.35601L 12.2265 2.68406C 12.2265 3.02703 12.4901 3.29543 12.8269 3.29543C 13.1637 3.29543 13.4272 3.02703 13.4272 2.68406L 13.4272 2.35601L 15.814 2.35601L 15.814 3.93663L 1.20069 3.93663L 1.20069 2.35601ZM 1.20069 5.15937L 15.7993 5.15937L 15.7993 14.7922L 1.20069 14.7922L 1.20069 5.15937Z"/>
<path id="path1_fill" d="M 9.23945 -4.55062e-07L 0.600345 -4.55062e-07C 0.263566 -4.55062e-07 -5.58569e-08 0.268407 -5.58569e-08 0.61137C -5.58569e-08 0.954334 0.263566 1.22274 0.600345 1.22274L 9.23945 1.22274C 9.57623 1.22274 9.83979 0.954334 9.83979 0.61137C 9.83979 0.268407 9.57623 -4.55062e-07 9.23945 -4.55062e-07Z"/>
<path id="path2_fill" d="M 4.9199 0L 0.600345 0C 0.263566 0 -5.58569e-08 0.268406 -5.58569e-08 0.61137C -5.58569e-08 0.954333 0.263566 1.22274 0.600345 1.22274L 4.9199 1.22274C 5.25668 1.22274 5.52024 0.954333 5.52024 0.61137C 5.52024 0.268406 5.25668 0 4.9199 0Z"/>
</defs>
</svg>
