<svg width="18" height="12" viewBox="0 0 18 12" version="1.1" xmlns="http://www.w3.org/2000/svg" xmlns:xlink="http://www.w3.org/1999/xlink">
<title>Group</title>
<desc>Created using Figma</desc>
<g id="Canvas" transform="translate(-425 -15825)">
<g id="Group">
<g id="Group">
<g id="Rectangle">
<mask id="mask0_outline_ins">
<use xlink:href="#path0_fill" fill="white" transform="translate(426 15826)"/>
</mask>
<g mask="url(#mask0_outline_ins)">
<use xlink:href="#path1_stroke_2x" transform="translate(426 15826)" fill="#222222"/>
</g>
</g>
<g id="Vector 2">
<use xlink:href="#path2_stroke" transform="translate(426.531 15826.8)" fill="#222222"/>
</g>
</g>
</g>
</g>
<defs>
<path id="path0_fill" d="M 0 0L 17 0L 17 10.9997L 0 10.9997L 0 0Z"/>
<path id="path1_stroke_2x" d="M 0 0L 0 -2L -2 -2L -2 0L 0 0ZM 17 0L 19 0L 19 -2L 17 -2L 17 0ZM 17 10.9997L 17 12.9997L 19 12.9997L 19 10.9997L 17 10.9997ZM 0 10.9997L -2 10.9997L -2 12.9997L 0 12.9997L 0 10.9997ZM 0 2L 17 2L 17 -2L 0 -2L 0 2ZM 15 0L 15 10.9997L 19 10.9997L 19 0L 15 0ZM 17 8.9997L 0 8.9997L 0 12.9997L 17 12.9997L 17 8.9997ZM 2 10.9997L 2 0L -2 0L -2 10.9997L 2 10.9997Z"/>
<path id="path2_stroke" d="M 7.96845 5.28675L 7.41561 6.12003L 7.97791 6.4931L 8.5343 6.11126L 7.96845 5.28675ZM -0.552849 0.833281L 7.41561 6.12003L 8.5213 4.45347L 0.552849 -0.833281L -0.552849 0.833281ZM 8.5343 6.11126L 16.2377 0.824509L 15.106 -0.824509L 7.40261 4.46224L 8.5343 6.11126Z"/>
</defs>
</svg>
