<svg width="27" height="27" viewBox="0 0 27 27" version="1.1" xmlns="http://www.w3.org/2000/svg" xmlns:xlink="http://www.w3.org/1999/xlink">
<title>Vector</title>
<desc>Created using Figma</desc>
<g id="Canvas" transform="translate(-6268 -19310)">
<g id="Vector">
<use xlink:href="#path0_fill" transform="translate(6268 19310)" fill="#FFFFFF"/>
</g>
</g>
<defs>
<path id="path0_fill" d="M 21.6 16.2C 19.9756 16.2 18.522 16.9212 17.5318 18.0566L 10.6795 14.6306C 10.7571 14.2658 10.8 13.8878 10.8 13.5C 10.8 13.1122 10.7571 12.7342 10.6795 12.3697L 17.5318 8.94341C 18.5217 10.0791 19.9756 10.8 21.6 10.8C 24.5822 10.8 27 8.38215 27 5.4C 27 2.41785 24.5822 0 21.6 0C 18.6178 0 16.2 2.41785 16.2 5.4C 16.2 5.78779 16.2429 6.16579 16.3205 6.53029L 9.46823 9.95659C 8.47834 8.8209 7.02472 8.1 5.4 8.1C 2.41785 8.1 0 10.5178 0 13.5C 0 16.4822 2.41785 18.9 5.4 18.9C 7.02472 18.9 8.478 18.1788 9.46823 17.0434L 16.3208 20.4697C 16.2429 20.8342 16.2 21.2122 16.2 21.6C 16.2 24.5822 18.6178 27 21.6 27C 24.5822 27 27 24.5822 27 21.6C 27 18.6178 24.5822 16.2 21.6 16.2ZM 21.6 2.7C 23.0911 2.7 24.3 3.90893 24.3 5.4C 24.3 6.89108 23.0911 8.1 21.6 8.1C 20.1089 8.1 18.9 6.89108 18.9 5.4C 18.9 3.90893 20.1089 2.7 21.6 2.7ZM 5.4 16.2C 3.90893 16.2 2.7 14.9911 2.7 13.5C 2.7 12.0089 3.90893 10.8 5.4 10.8C 6.89108 10.8 8.1 12.0089 8.1 13.5C 8.1 14.9911 6.89108 16.2 5.4 16.2ZM 21.6 24.3C 20.1089 24.3 18.9 23.0911 18.9 21.6C 18.9 20.1089 20.1089 18.9 21.6 18.9C 23.0911 18.9 24.3 20.1089 24.3 21.6C 24.3 23.0911 23.0911 24.3 21.6 24.3Z"/>
</defs>
</svg>
