<svg width="20" height="22" viewBox="0 0 20 22" version="1.1" xmlns="http://www.w3.org/2000/svg" xmlns:xlink="http://www.w3.org/1999/xlink">
<title>if_bell_sound_notification_remind_reminder_ring_ringing_schedule_392523</title>
<desc>Created using Figma</desc>
<g id="Canvas" transform="translate(-1156 -21079)">
<g id="if_bell_sound_notification_remind_reminder_ring_ringing_schedule_392523">
<g id="Vector">
<use xlink:href="#path0_fill" transform="translate(1156 21079)" fill="#222222"/>
</g>
</g>
</g>
<defs>
<path id="path0_fill" d="M 19.8899 18.4525L 17.6922 14.7109L 17.6922 9.42857C 17.6922 5.36093 14.6507 2.00671 10.7691 1.6115L 10.7691 0.785714C 10.7691 0.352 10.4245 0 9.99985 0C 9.57523 0 9.23062 0.352 9.23062 0.785714L 9.23062 2.35714C 9.23062 2.79086 9.57523 3.14286 9.99985 3.14286C 13.393 3.14286 16.1538 5.96279 16.1538 9.42857L 16.1538 14.9286C 16.1538 15.0716 16.1914 15.2106 16.2638 15.3332L 17.8715 18.0714L 2.12748 18.0714L 3.73595 15.3332C 3.80826 15.2106 3.84596 15.0716 3.84596 14.9286L 3.84596 9.42857C 3.84596 7.00936 5.23058 4.77714 7.37291 3.74157C 7.75676 3.55614 7.9206 3.08786 7.73906 2.695C 7.55752 2.30293 7.09906 2.13557 6.71444 2.321C 4.0375 3.61507 2.30748 6.40436 2.30748 9.42857L 2.30748 14.7109L 0.10977 18.4533C -0.0333083 18.6961 -0.0363851 18.9978 0.0997699 19.2453C 0.235925 19.4912 0.492081 19.6429 0.769006 19.6429L 7.03214 19.6429C 7.37598 20.9951 8.57061 22 9.99985 22C 11.4299 22 12.6237 20.9951 12.9676 19.6429L 19.2307 19.6429C 19.5076 19.6429 19.763 19.4912 19.8999 19.2445C 20.0369 18.9978 20.033 18.6953 19.8899 18.4525ZM 9.99985 20.4286C 9.43293 20.4286 8.94215 20.1104 8.67523 19.6429L 11.3237 19.6429C 11.0576 20.1104 10.5668 20.4286 9.99985 20.4286Z"/>
</defs>
</svg>
