<svg width="11" height="12" viewBox="0 0 11 12" fill="none" xmlns="http://www.w3.org/2000/svg">
<path d="M2.80341 2.09608C2.80341 1.54016 3.02425 1.00702 3.41734 0.613927C3.81043 0.220836 4.34358 0 4.89949 0C5.45541 0 5.98855 0.220836 6.38164 0.613927C6.77473 1.00702 6.99557 1.54016 6.99557 2.09608V3.49346C6.99557 4.04938 6.77473 4.58253 6.38164 4.97562C5.98855 5.36871 5.45541 5.58954 4.89949 5.58954C4.34358 5.58954 3.81043 5.36871 3.41734 4.97562C3.02425 4.58253 2.80341 4.04938 2.80341 3.49346V2.09608ZM0.00864011 8.38431C0.357987 7.33628 2.80341 6.28824 4.2008 6.28824H5.59818C6.99557 6.28824 9.441 7.33628 9.79034 8.38431C9.79034 8.38431 9.80978 8.81084 9.79034 9.08301C9.60698 11.6501 0.191614 11.6446 0.00864011 9.08301C-0.0108001 8.81084 0.00864011 8.38431 0.00864011 8.38431Z" transform="translate(0.243652 0.366211)" fill="#53A6E4"/>
</svg>
