<svg width="102" height="102" viewBox="0 0 102 102" xmlns="http://www.w3.org/2000/svg" xmlns:xlink="http://www.w3.org/1999/xlink"><title>Vector</title><desc>Created using Figma</desc><g fill="#FFF"><use xlink:href="#a"/><use xlink:href="#b"/><use xlink:href="#c"/><use xlink:href="#d"/><use xlink:href="#e"/><use xlink:href="#f"/><use xlink:href="#g"/><use xlink:href="#h"/><use xlink:href="#i"/><use xlink:href="#j"/><use xlink:href="#k"/><use xlink:href="#l"/><use xlink:href="#m"/><use xlink:href="#n"/></g><defs><path id="a" d="M15.497 55.565c.19-1.354.163-2.682 0-4.037a2.01 2.01 0 0 0 0-1.381c.19-1.355.163-2.682.027-4.037.136-.46.136-.921-.027-1.382.19-1.354.163-2.709.027-4.063 0-.867.408-1.274 1.279-1.274 1.36.136 2.72.163 4.053-.027 1.714.244 1.714.244 1.605-1.436 0-1.273.19-2.438 1.306-3.332.788-.623 1.686-.406 2.53-.65a2.21 2.21 0 0 0 1.387.027c1.36.136 2.693.163 4.053-.027a2.21 2.21 0 0 0 1.387.027c1.36.136 2.693.163 4.053-.027a2.21 2.21 0 0 0 1.388.027c1.36.136 2.693.163 4.053-.027a2.21 2.21 0 0 0 1.387.027c1.36.136 2.693.163 4.053-.027a2.21 2.21 0 0 0 1.387.027c1.55.108 3.129.38 4.597-.38.572.055 1.089-.216 1.633-.351 1.904-.488 3.862-.84 5.712-1.517.653.027 1.279-.217 1.877-.434 1.85-.433 3.7-.786 5.468-1.436.625-.135 1.224-.27 1.85-.406 1.659-.434 3.29-.867 4.95-1.3.218.026.436.026.572-.19v.027c.462-.027.924-.027 1.305-.325 1.85-.325 3.672-.759 5.44-1.409.545.054 1.061.081 1.606.135a6.097 6.097 0 0 1 1.686 1.545c.082.352.163.731.245 1.083v10.837c-.462 1.626 1.006 1.653 1.85 2.194.38.325.761.65 1.17.976.543.65 1.06 1.327 1.604 1.977.136.271.272.57.408.84.435 1.111.517 2.276.517 3.468l-.326 1.625c-1.007 2.14-2.421 3.847-4.625 4.823-.516.216-.652.542-.625 1.056.027 1.192.027 2.411.054 3.603v6.503c-.272.84.272 1.787-.408 2.546-.816.921-1.822 1.382-3.101 1.138-.3-.217-.626-.217-.98-.217-1.087-.46-2.23-.677-3.372-.92-.463-.11-.925-.245-1.388-.353-.979-.244-1.958-.515-2.965-.759-.38-.108-.761-.19-1.142-.298-1.061-.27-2.15-.541-3.21-.785-.38-.109-.762-.19-1.115-.298l-3.264-.813c-.354-.108-.735-.19-1.089-.298-.925-.298-1.85-.596-2.829-.677-.299-.244-.68-.244-1.06-.298-1.143-.298-2.313-.624-3.455-.922-.354-.08-.735-.19-1.088-.27-1.143-.353-2.313-.705-3.51-.84-1.85-.596-1.958-.515-2.121 1.354-.027.271-.027.542-.027.786-.762 2.167-1.796 4.308-3.945 5.229-2.203.948-2.53 2.41-2.285 4.389.028.216.028.433.028.677-.11.623-.218 1.273-.354 1.896-1.415 3.793-4.108 6.258-7.916 7.613-.544.108-1.088.19-1.632.298-.98.054-1.931.054-2.748-.596-.244-.271-.516-.569-.761-.84-.544-1.219-.19-2.52-.354-3.766V63.638c.055-.569.218-1.219-.761-1.002-1.36 0-2.72 0-4.08.027-.354-.054-.708-.081-1.062-.135-.788-.515-1.414-1.165-1.85-1.978a11.88 11.88 0 0 0-.108-.975c.054-2.439.653-2.222-2.693-2.114h-1.116c-.57-.027-1.142 0-1.713-.054-.517-.054-1.197.298-1.442-.514.163-.407.163-.867 0-1.328zm31.201 2.71c3.645.026 2.992.677 2.965-2.954-.054-.487.354-1.083-.272-1.463-1.36-.135-2.693-.162-4.053.027a2.21 2.21 0 0 0-1.388-.027c-1.441-.135-2.883-.216-4.325.055-.462-.055-.925-.109-1.387-.19l-.081-3.007c-.11-1.03.272-1.382 1.36-1.355 3.019.081 6.038 0 9.058.027.762 0 1.142-.162 1.115-1.03-.054-2.004-.054-4.036-.054-6.068.027-.975.027-1.977.081-2.953.055-.704-.272-.92-.952-.92-3.318.053-6.637.053-9.956.08h-1.088c-3.291-.027-6.61-.027-9.901-.054-.653 0-1.034.136-.98.894.055.975.055 1.978.082 2.98.027 2.628.027 5.256.054 7.857-.163 1.436-.108 2.872-.027 4.307 0 .461 0 .922.027 1.382-.217 2.574-.217 2.574 2.34 2.384h1.088c1.523 0 3.074.271 4.597-.19.218.353.544.217.843.19h9.793c.327.027.707.027 1.061.027zm31.772 6.637c1.007.298 1.986.65 3.047.731.245.027.408-.027.353-.325.19-1.354.164-2.682.028-4.037.136-.46.136-.92-.028-1.381.19-1.355.164-2.682.028-4.037a2.18 2.18 0 0 0-.028-1.382 14.36 14.36 0 0 0 0-4.036 2.01 2.01 0 0 0 0-1.382c.19-1.355.19-2.682 0-4.037a2.01 2.01 0 0 0 0-1.381c.19-1.355.19-2.682 0-4.037a2.01 2.01 0 0 0 0-1.381c.19-1.355.164-2.683.028-4.037a2.18 2.18 0 0 0-.028-1.382c.245-1.734.245-1.734-1.333-1.327-.952.243-1.877.541-2.801.812-.68 0-1.279.19-1.904.46-1.85.38-3.673.787-5.441 1.41-.653-.027-1.279.216-1.877.433-1.85.407-3.7.786-5.467 1.436-.653-.027-1.252.217-1.877.406a328.59 328.59 0 0 1-4.924 1.274c-1.034.243-2.557-.027-2.067 1.869 0 1.355 0 2.71-.028 4.037 0 .46 0 .92.028 1.381 0 1.355 0 2.71-.028 4.037 0 .46 0 .921.028 1.382 0 1.354 0 2.709-.028 4.036 0 .46 0 .922.028 1.382-.028.488 0 .975-.082 1.463-.218 1.273.38 1.788 1.605 1.76.272.082.544.163.843.245 1.143.352 2.312.704 3.51.84.244.19.516.298.815.243 1.143.38 2.313.732 3.537.84.244.19.516.271.816.244 1.142.38 2.312.732 3.536.867.245.217.517.27.816.244 1.142.406 2.312.731 3.51.867.298.27.706.244 1.06.298.98.352 1.986.65 3.02.731.38.38.87.325 1.305.434zm-41.565-1.95c-.734.297-2.149-.922-2.149 1.002 0 5.174.027 10.376-.027 15.55 0 1.11.408 1.057 1.197.732 2.366-.921 3.4-2.764 3.645-5.175.027-3.224.082-6.448.082-9.672.027-2.627.027-2.627-2.748-2.438zM19.958 48.493c.027 0 .027 0 0 0 0 1.246.055 2.52 0 3.766-.054.921.49.948 1.116.84.544-.081 1.468.487 1.468-.759a362.74 362.74 0 0 1 0-7.694c0-1.192-.87-.758-1.441-.813-.626-.08-1.17-.027-1.116.867.028 1.3-.027 2.547-.027 3.793zM44.06 66.998c1.605-.976 1.905-2.303 2.013-3.685.055-.704-.544-.677-1.06-.677-.572-.027-.98.054-.953.759v3.603zm42.327-15.686c1.605-1.626 1.55-4.145 0-5.175v5.175zm-2.53-22.54c.245.514-.163 1.327.653 1.57.109.028.408-.135.435-.243.109-.759-.653-.921-1.088-1.328z"/><path id="b" d="M79.749 8.778c.734.542 1.496 1.056 2.23 1.598.381.298.735.596 1.115.867.735.623 1.47 1.22 2.204 1.842.272.271.544.515.816.786.952.786 1.06 1.517-.055 2.248-.19.109-.326.299-.49.461-1.414 1.409-1.414 1.409-2.964.163a1.907 1.907 0 0 0-.843-.759c-.544-.65-1.197-1.165-1.932-1.598-.353-.271-.707-.57-1.06-.84-.762-.65-1.524-1.273-2.449-1.68-.136-.081-.272-.19-.408-.27-.843-.705-1.822-1.22-2.829-1.708-.19-.08-.38-.19-.571-.27-1.007-.678-2.122-1.138-3.264-1.545-.19-.27-.49-.244-.762-.325-.952-.515-1.986-.84-3.02-1.11-.38-.109-.761-.244-1.142-.353-1.06-.379-2.149-.677-3.264-.812-.354-.082-.735-.163-1.088-.271-1.17-.163-2.34-.326-3.51-.515-.38-.027-.761-.054-1.115-.081-1.36-.217-2.693-.353-4.08-.217h-1.36c-1.55-.054-3.101.108-4.625.38-.353.053-.707.08-1.088.135-1.85.162-3.672.514-5.44 1.11-.735.217-1.469.407-2.203.623-2.15.678-4.271 1.436-6.23 2.574-.217 0-.435.081-.544.271-.925.271-1.686.759-2.448 1.328-.163.108-.354.19-.517.298-.109.054-.217.135-.299.19a32.643 32.643 0 0 0-7.317 5.58c-.925.948-1.578 1.057-2.421.054l-.19-.19c-.028-.027-.028-.08-.055-.108-1.605-1.815-1.605-1.815.217-3.468 3.4-3.007 7.209-5.472 11.208-7.666.897-.407 1.822-.813 2.72-1.22 2.067-.758 4.162-1.544 6.23-2.302.68-.027 1.278-.244 1.903-.488 1.633-.325 3.265-.623 4.897-.948.49.081.925-.054 1.36-.217L49.69 0h1.116c1.36.027 2.693.081 4.053.108.435.244.924.19 1.387.163l3.51.488c.353.054.733.108 1.087.162 1.17.271 2.367.542 3.536.813.354.108.708.244 1.034.352 1.007.298 2.04.623 3.047.921.272.109.544.217.789.325.87.38 1.768.732 2.638 1.111.354.27.735.46 1.17.515.898.46 1.795.92 2.72 1.409.272.162.544.325.843.487.762.46 1.55.948 2.313 1.409.272.162.544.325.816.515z"/><path id="c" d="M28.2 96.555a93.65 93.65 0 0 0-2.311-1.193c-.409-.243-.816-.487-1.224-.704-.79-.515-1.605-1.002-2.394-1.517-.3-.217-.572-.407-.87-.623-.68-.488-1.334-1.003-2.014-1.49a23.393 23.393 0 0 1-.952-.759l-1.877-1.625c-.38-.353-.761-.705-1.115-1.057-.19-.325-.517-.623-.082-1.03.762-.73 1.496-1.49 2.258-2.248.653-.623.87.298 1.306.38.163.162.326.324.517.487a9.049 9.049 0 0 0 2.176 1.896c.38.298.734.596 1.115.894.68.624 1.387 1.165 2.203 1.572.19.27.49.46.817.542a7.016 7.016 0 0 0 2.148 1.3c.327.352.735.542 1.17.704.816.46 1.632 1.003 2.584 1.22.381.19.79.352 1.17.541.952.515 1.931.894 2.992 1.165.381.136.762.244 1.143.38 1.06.379 2.122.785 3.264.84.245.189.517.27.843.243 1.252.325 2.503.623 3.782.596.326.217.707.244 1.088.19 1.278.081 2.53.352 3.808.244.38 0 .734.027 1.115.027 1.55.081 3.074.027 4.597-.244.463.054.925.054 1.36-.108 1.741-.19 3.482-.38 5.169-.976.68.027 1.306-.19 1.904-.46 2.312-.488 4.461-1.355 6.583-2.384.98-.298 1.85-.786 2.72-1.3 3.672-1.897 6.964-4.363 9.983-7.18.354-.352.626-.948 1.306-.759.19.38.49.65.87.867.599.596 1.17 1.192 1.769 1.788.027.542-.408.786-.735 1.057-1.496 1.328-3.02 2.628-4.543 3.928-3.1 2.222-6.392 4.091-9.792 5.77-.708.299-1.415.597-2.15.895-1.985.65-3.998 1.3-5.984 1.95-.544.136-1.088.244-1.632.38-1.714.298-3.427.623-5.168.921l-1.36.081-4.353.244c-.38 0-.734 0-1.115-.027l-4.053-.244-1.088-.081c-1.279-.19-2.53-.38-3.809-.596-.244-.19-.516-.217-.816-.19-1.17-.298-2.34-.569-3.536-.867-.3-.27-.68-.27-1.06-.352-1.007-.325-2.014-.677-3.02-1.002-.163-.244-.463-.271-.707-.299-1.034-.433-2.068-.894-3.102-1.327-.353-.162-.625-.325-.897-.46z"/><path id="d" d="M98.436 32.293c.136.271.245.569.381.84.136.975.762 1.788.789 2.79l.027.055c-1.36.379-2.72.731-4.08 1.11-.218-.541-.463-1.083-.68-1.625-.109-.867-.572-1.599-.898-2.357.082-.705.816-.596 1.17-.921.49-.19 1.006-.352 1.469-.623.979-.596 1.523-.298 1.822.731z"/><path id="e" d="M101.646 45.758c.082.108.163.244.245.352.027 1.355.082 2.71.109 4.064-.055.406 0 .867-.626.867l-3.754-.082-.081-1.056c.027-.217.027-.46.054-.678.109-.975-.544-2.275.136-2.817.68-.569 1.959-.406 2.992-.542.3-.054.599-.081.925-.108z"/><path id="f" d="M3.42 69.138c-.164-.38-.3-.732-.463-1.11-.49-1.979-.49-1.979 1.523-2.547.572-.163 1.116-.353 1.687-.515.19.027.38.054.544.108a10.665 10.665 0 0 0 1.115 2.98c.109.352.245.732.354 1.084-.218.162-.435.298-.653.46-.816.326-1.632.678-2.475 1.003-1.524.569-1.061-1.03-1.633-1.463z"/><path id="g" d="M.291 56.052l-.163-1.3c.19-1.22-.571-2.872.3-3.576.734-.623 2.311-.217 3.535-.244.164.027.327.054.517.081.082 1.355-.081 2.71.19 4.037-.027.433-.217.759-.68.84-1.25-.163-2.448.46-3.699.162z"/><path id="h" d="M1.624 38.254a3.858 3.858 0 0 0 .462-1.653c.218-.27.19-.84.79-.677.271.081.543.135.815.217.87.352 1.768.623 2.693.785.136.434 0 .867-.081 1.273-.136.461-.3.922-.436 1.41-.544 1.868-.544 1.896-2.42 1.598-.354-.109-.708-.244-1.061-.353-2.04-.325-.735-1.652-.762-2.6z"/><path id="i" d="M100.967 61.823c-.164.623-.3 1.246-.463 1.87h.027c-.217.135-.244.352-.217.568-.082.163-.191.326-.191.488-.109 1.11-.653 1.517-1.713 1.084-.354-.109-.708-.244-1.061-.352-.599-.434-1.986-.028-1.633-1.49.3-.597.49-1.22.517-1.897.49-.542.11-2.005 1.578-1.544.354.108.707.244 1.034.352.68.38 1.632.163 2.122.921z"/><path id="j" d="M13.702 78.647c.217.433.462.813.87 1.084.408.46.109.758-.245 1.11-.598.57-1.25 1.138-1.768 1.788-.571.732-1.006.46-1.469-.027-.136-.162-.272-.352-.408-.514-.571-.813-1.17-1.599-1.74-2.412-.164-.758.516-.812.897-1.11.653-.515 1.36-.976 2.067-1.436 1.252-.244 1.088 1.138 1.796 1.517z"/><path id="k" d="M92.86 21.863c.109.136.19.271.3.407-.164 1.246-1.551 1.246-2.177 2.058-.544.082-.843.84-1.523.542-.463-.867-.98-1.68-1.687-2.33-.081-.27-.272-.433-.517-.569.762-1.354 1.823-2.438 3.21-3.17.163.163.327.353.463.516.653.84 1.305 1.706 1.931 2.546z"/><path id="l" d="M7.119 27.335a36.28 36.28 0 0 1-.844-.514c.544-.976 1.17-1.924 1.66-2.926.49-1.057 1.115-1.22 2.04-.542.136.108.3.19.435.298.463.325.898.704 1.36 1.002.49.298.49.65.245 1.084-.49.759-1.006 1.49-1.442 2.276-.272.541-.598.731-1.142.46-.762-.352-1.55-.758-2.312-1.138z"/><path id="m" d="M94.547 74.42c.19.11.38.19.57.299.518.27.762.569.354 1.138-.353.514-.625 1.083-.952 1.625-1.088 1.788-1.088 1.761-2.91.759-.3-.19-.572-.407-.87-.596-.926-.46-1.007-1.003-.354-1.843.544-.677.897-1.517 1.332-2.275.055-.082.082-.163.136-.217.925.352 1.796.731 2.694 1.11z"/><path id="n" d="M34.457 53.831h-1.36c-1.714.27-1.714-.867-1.687-2.032v-1.355a.46.46 0 0 0 0-.27c0-.542.218-.732.817-.786 2.72-.244 2.72-.244 2.747 2.438 0 .434.054.894.054 1.328-.027.352-.163.623-.57.677z"/></defs></svg>