<svg width="17" height="18" viewBox="0 0 17 18" version="1.1" xmlns="http://www.w3.org/2000/svg" xmlns:xlink="http://www.w3.org/1999/xlink">
<title>Group</title>
<desc>Created using Figma</desc>
<g id="Canvas" transform="translate(-8009 -14227)">
<g id="Group">
<g id="Group">
<g id="Vector">
<use xlink:href="#path0_fill" transform="translate(8009 14227.1)" fill="#FFFFFF"/>
</g>
<g id="Vector">
<use xlink:href="#path1_stroke" transform="translate(8014.05 14233.5)" fill="#353535"/>
</g>
</g>
</g>
</g>
<defs>
<path id="path0_fill" fill-rule="evenodd" d="M 6.18728 15.7463L 4.82651 15.9649C 4.41701 16.0307 4.01756 15.8001 3.86979 15.4126L 3.37875 14.1251C 3.28988 13.892 3.1058 13.708 2.87274 13.6191L 1.58496 13.1282C 1.19743 12.9804 0.966806 12.581 1.0326 12.1716L 1.25124 10.811C 1.2908 10.5648 1.22343 10.3134 1.06602 10.1199L 0.196295 9.05095C -0.0654316 8.72926 -0.0654316 8.26808 0.196295 7.9464L 1.06602 6.87742C 1.22343 6.68396 1.2908 6.43254 1.25124 6.18631L 1.0326 4.82575C 0.966806 4.41632 1.19743 4.01693 1.58496 3.86918L 2.87274 3.37822C 3.1058 3.28937 3.28988 3.10532 3.37875 2.87229L 3.86979 1.58471C 4.01756 1.19724 4.41701 0.966655 4.82651 1.03244L 6.18728 1.25104C 6.43355 1.2906 6.685 1.22324 6.87849 1.06586L 7.94764 0.196264C 8.26937 -0.0654214 8.73063 -0.0654214 9.05236 0.196264L 10.1215 1.06586C 10.315 1.22324 10.5665 1.2906 10.8127 1.25104L 12.1735 1.03244C 12.583 0.966655 12.9824 1.19724 13.1302 1.58471L 13.6213 2.87229C 13.7101 3.10532 13.8942 3.28937 14.1273 3.37822L 15.415 3.86918C 15.8026 4.01693 16.0332 4.41632 15.9674 4.82575L 15.7488 6.18631C 15.7092 6.43254 15.7766 6.68396 15.934 6.87742L 16.8037 7.9464C 17.0654 8.26808 17.0654 8.72926 16.8037 9.05095L 15.934 10.1199C 15.7766 10.3134 15.7092 10.5648 15.7488 10.811L 15.9674 12.1716C 16.0332 12.581 15.8026 12.9804 15.415 13.1282L 14.1273 13.6191C 13.8942 13.708 13.7101 13.892 13.6213 14.1251L 13.1302 15.4126C 12.9824 15.8001 12.583 16.0307 12.1735 15.9649L 10.8127 15.7463C 10.5665 15.7067 10.315 15.7741 10.1215 15.9315L 9.05236 16.8011C 8.73063 17.0628 8.26937 17.0628 7.94764 16.8011L 6.87849 15.9315C 6.685 15.7741 6.43355 15.7067 6.18728 15.7463Z"/>
<path id="path1_stroke" d="M 0.353763 2.03373C 0.158616 1.83835 -0.157966 1.83816 -0.353344 2.03331C -0.548722 2.22846 -0.548909 2.54504 -0.353763 2.74042L 0.353763 2.03373ZM 2.38531 4.77521L 2.03155 5.12855C 2.12529 5.22241 2.25249 5.27516 2.38514 5.27521C 2.51779 5.27525 2.64503 5.22258 2.73884 5.12879L 2.38531 4.77521ZM 7.51477 0.35358C 7.71004 0.158333 7.71007 -0.15825 7.51482 -0.353527C 7.31957 -0.548803 7.00299 -0.548827 6.80771 -0.35358L 7.51477 0.35358ZM -0.353763 2.74042L 2.03155 5.12855L 2.73907 4.42186L 0.353763 2.03373L -0.353763 2.74042ZM 2.73884 5.12879L 7.51477 0.35358L 6.80771 -0.35358L 2.03178 4.42163L 2.73884 5.12879Z"/>
</defs>
</svg>
