<svg width="17" height="18" viewBox="0 0 17 18" xmlns="http://www.w3.org/2000/svg" xmlns:xlink="http://www.w3.org/1999/xlink"><title>Group</title><desc>Created using Figma</desc><use xlink:href="#a" transform="translate(0 .1)" fill="#222"/><use xlink:href="#b" transform="translate(4.55 6.13)" fill="#FFF"/><defs><path id="a" fill-rule="evenodd" d="M6.187 16.133l-1.36.224a.873.873 0 0 1-.957-.566l-.491-1.32a.886.886 0 0 0-.506-.518l-1.288-.503a.9.9 0 0 1-.552-.98l.218-1.394a.913.913 0 0 0-.185-.708l-.87-1.095a.914.914 0 0 1 0-1.132l.87-1.095a.913.913 0 0 0 .185-.708l-.218-1.394a.9.9 0 0 1 .552-.98l1.288-.503a.886.886 0 0 0 .506-.518l.49-1.32a.873.873 0 0 1 .958-.565l1.36.224a.86.86 0 0 0 .691-.19l1.07-.89a.86.86 0 0 1 1.104 0l1.07.89a.86.86 0 0 0 .69.19l1.362-.224a.873.873 0 0 1 .956.566l.491 1.319a.886.886 0 0 0 .506.518l1.288.503a.9.9 0 0 1 .552.98l-.218 1.394c-.04.252.028.51.185.708l.87 1.095a.914.914 0 0 1 0 1.132l-.87 1.095a.913.913 0 0 0-.185.708l.218 1.394a.9.9 0 0 1-.552.98l-1.288.503a.886.886 0 0 0-.506.519l-.49 1.319a.873.873 0 0 1-.957.566l-1.361-.224a.86.86 0 0 0-.692.19l-1.069.89a.859.859 0 0 1-1.104 0l-1.07-.89a.86.86 0 0 0-.69-.19z"/><path id="b" fill-rule="evenodd" d="M8.01.142a.5.5 0 0 1 .01.708L3.243 5.742a.5.5 0 0 1-.716 0L.142 3.294a.5.5 0 1 1 .716-.698l2.028 2.08L7.303.15a.5.5 0 0 1 .708-.009z"/></defs></svg>