<svg width="11" height="11" viewBox="0 0 11 11" fill="none" xmlns="http://www.w3.org/2000/svg">
<path d="M7.30336 5.11034C7.30336 5.1245 7.30336 5.13909 7.30336 5.15325C7.29649 5.18071 7.29263 5.20947 7.28147 5.23478C7.25744 5.28971 7.23255 5.34421 7.20209 5.39614C7.15917 5.47038 7.10853 5.5399 7.06605 5.61456C7.03644 5.66649 7.01112 5.72142 6.99181 5.77763C6.96006 5.87118 6.97593 5.96216 7.03172 6.04327C7.05747 6.0806 7.08879 6.11493 7.12012 6.14797C7.28233 6.31962 7.31666 6.52175 7.21968 6.73717C7.16518 6.85775 7.08365 6.9586 6.98495 7.04528C6.93688 7.08777 6.9077 7.14012 6.8914 7.20063C6.86994 7.28045 6.87809 7.36026 6.9047 7.43708C6.93259 7.51776 6.96778 7.59629 6.99868 7.6761C7.02228 7.73747 7.0476 7.79841 7.06605 7.86106C7.09738 7.96791 7.09437 8.07348 7.03472 8.17175C7.01198 8.20951 6.98537 8.24599 6.95576 8.2786C6.87208 8.37044 6.7854 8.45969 6.70043 8.55067C6.64207 8.61375 6.58843 8.68027 6.54766 8.75665C6.49188 8.86136 6.47342 8.97165 6.49574 9.0888C6.50046 9.1124 6.50389 9.13686 6.50561 9.16089C6.51247 9.27719 6.48201 9.38447 6.42493 9.48489C6.37558 9.57157 6.31078 9.64538 6.23912 9.71404C6.13141 9.81703 6.01039 9.90415 5.88895 9.98997C5.85977 10.0106 5.8293 10.0303 5.79668 10.0432C5.7173 10.0745 5.63705 10.1058 5.55509 10.1303C5.37871 10.1831 5.19719 10.2084 5.01395 10.2135C4.71657 10.2221 4.41918 10.2256 4.12179 10.2234C3.8759 10.2217 3.63001 10.2093 3.38455 10.199C3.19873 10.1917 3.01292 10.1831 2.82754 10.1706C2.64644 10.1582 2.46535 10.1427 2.28512 10.1221C2.10789 10.102 1.93066 10.0771 1.75471 10.0479C1.60967 10.0239 1.46677 9.98869 1.32215 9.96122C0.945802 9.89084 0.569455 9.82218 0.193108 9.75266C0.13303 9.74151 0.0733811 9.72863 0.0107282 9.71576C0.0111573 8.31894 0.000429077 6.92556 -5.2384e-08 5.53217C0.0244603 5.53217 0.0429129 5.53131 0.0613655 5.53217C0.182809 5.53861 0.296958 5.51157 0.405099 5.45793C0.524397 5.39871 0.625671 5.31546 0.715359 5.21762C0.837661 5.08416 0.937649 4.93439 1.0342 4.78248C1.19556 4.52844 1.32773 4.25937 1.45089 3.98516C1.57491 3.7088 1.6985 3.43201 1.82123 3.15522C1.8474 3.09557 1.88259 3.04279 1.92336 2.99258C2.01648 2.87757 2.12634 2.77973 2.23748 2.68275C2.34219 2.59177 2.44819 2.50252 2.54989 2.40811C2.68292 2.28452 2.79406 2.14333 2.86187 1.97211C2.88676 1.90989 2.91122 1.84723 2.93482 1.78415C3.05369 1.46445 3.11033 1.13102 3.14938 0.793721C3.16397 0.667557 3.17685 0.540963 3.18972 0.41437C3.19959 0.314812 3.20946 0.215254 3.21719 0.115696C3.2189 0.0950975 3.22663 0.0792197 3.2425 0.0684915C3.29228 0.0341611 3.34721 0.00755503 3.40772 0.00283461C3.53303 -0.00703538 3.65619 0.00884242 3.77505 0.0508971C4.11879 0.171912 4.35395 0.407504 4.49771 0.739221C4.55865 0.879976 4.57967 1.0306 4.59813 1.1808C4.63031 1.43742 4.60971 1.69146 4.55135 1.94293C4.49256 2.19655 4.4003 2.43772 4.27842 2.66687C4.17758 2.85612 4.0836 3.0488 3.9952 3.24405C3.96001 3.32215 3.92911 3.4024 3.90122 3.48308C3.85359 3.6204 3.82784 3.76244 3.83728 3.90834C3.83985 3.95083 3.84758 3.99288 3.85273 4.03451C3.87161 4.03923 3.88491 4.04309 3.89864 4.04652C3.98833 4.06626 4.07931 4.07399 4.17114 4.07227C4.25826 4.07056 4.3458 4.06927 4.43248 4.06326C4.63117 4.0491 4.82943 4.05511 5.02854 4.06026C5.29589 4.06712 5.56324 4.06626 5.83059 4.07184C6.03228 4.07613 6.23182 4.1036 6.4318 4.13106C6.58929 4.15295 6.71803 4.22375 6.83475 4.32417C6.85449 4.34091 6.87337 4.3585 6.8914 4.37653C7.06991 4.55333 7.18964 4.76575 7.2686 5.0022C7.28105 5.03781 7.2922 5.07429 7.30336 5.11034Z" transform="translate(3.44751 0.0078125)" fill="#385492"/>
<path d="M0 0.397192C0.00514956 0.375307 0.0115865 0.353421 0.0158778 0.331107C0.0502082 0.140144 0.208557 0.00325134 0.403382 0.0011057C0.586191 -0.00103995 0.76943 0.000676252 0.952668 0.000247122C1.18569 0.000247122 1.4187 0.000676252 1.65215 0.000247122C1.77703 -0.000182008 1.88045 0.0457349 1.96241 0.139714C2.02463 0.211379 2.05596 0.295918 2.05939 0.390755C2.05982 0.400625 2.05939 0.410924 2.05939 0.420794C2.05939 1.70647 2.05939 2.99214 2.05982 4.27781C2.05982 4.35978 2.04395 4.43702 1.99932 4.50654C1.92121 4.62884 1.80878 4.69579 1.66374 4.69621C1.24491 4.69836 0.825646 4.6975 0.406815 4.69664C0.21199 4.69622 0.0510664 4.55718 0.0158778 4.3645C0.0120156 4.34347 0.00557869 4.3233 0.00042913 4.3027C0 3.00029 0 1.69874 0 0.397192Z" transform="translate(0.976318 5.32129)" fill="#385492"/>
</svg>
