<svg width="20" height="17" viewBox="0 0 20 17" version="1.1" xmlns="http://www.w3.org/2000/svg" xmlns:xlink="http://www.w3.org/1999/xlink">
<title>Group</title>
<desc>Created using Figma</desc>
<g id="Canvas" transform="translate(-4061 -15161)">
<g id="Group">
<g id="Ellipse 3">
<mask id="mask0_outline_ins">
<use xlink:href="#path0_fill" fill="white" transform="translate(4065.46 15161)"/>
</mask>
<g mask="url(#mask0_outline_ins)">
<use xlink:href="#path1_stroke_2x" transform="translate(4065.46 15161)" fill="#222222"/>
</g>
</g>
<g id="Ellipse 3.1">
<use xlink:href="#path2_stroke" transform="translate(4063 15172.3)" fill="#222222"/>
</g>
</g>
</g>
<defs>
<path id="path0_fill" d="M 11.0769 5.66667C 11.0769 8.79628 8.59727 11.3333 5.53846 11.3333C 2.47965 11.3333 0 8.79628 0 5.66667C 0 2.53705 2.47965 0 5.53846 0C 8.59727 0 11.0769 2.53705 11.0769 5.66667Z"/>
<path id="path1_stroke_2x" d="M 8.87692 5.66667C 8.87692 7.62898 7.33505 9.13333 5.53846 9.13333L 5.53846 13.5333C 9.85949 13.5333 13.2769 9.96357 13.2769 5.66667L 8.87692 5.66667ZM 5.53846 9.13333C 3.74187 9.13333 2.2 7.62898 2.2 5.66667L -2.2 5.66667C -2.2 9.96357 1.21744 13.5333 5.53846 13.5333L 5.53846 9.13333ZM 2.2 5.66667C 2.2 3.70435 3.74187 2.2 5.53846 2.2L 5.53846 -2.2C 1.21744 -2.2 -2.2 1.36976 -2.2 5.66667L 2.2 5.66667ZM 5.53846 2.2C 7.33505 2.2 8.87692 3.70435 8.87692 5.66667L 13.2769 5.66667C 13.2769 1.36976 9.85949 -2.2 5.53846 -2.2L 5.53846 2.2Z"/>
<path id="path2_stroke" d="M 1.1 5.66667C 1.1 4.55344 1.73532 3.43827 2.97896 2.55736C 4.21995 1.67832 5.99168 1.1 8 1.1L 8 -1.1C 5.59004 -1.1 3.36177 -0.409794 1.70733 0.762101C 0.0555369 1.93212 -1.1 3.65028 -1.1 5.66667L 1.1 5.66667ZM 8 1.1C 10.0083 1.1 11.78 1.67832 13.021 2.55736C 14.2647 3.43827 14.9 4.55344 14.9 5.66667L 17.1 5.66667C 17.1 3.65028 15.9445 1.93212 14.2927 0.762101C 12.6382 -0.409794 10.41 -1.1 8 -1.1L 8 1.1Z"/>
</defs>
</svg>
