<svg width="30" height="26" viewBox="0 0 30 26" fill="none" xmlns="http://www.w3.org/2000/svg">
<mask id="path-1-inside-1" fill="white">
<path d="M6.83594 0C3.07617 0 0 3.07617 0 6.83593C0 11.8262 3.14453 15.1074 14.5605 24.4726C25.9766 15.1074 29.1211 11.8262 29.1211 6.83593C29.1211 3.07617 26.0449 0 22.2852 0C18.8672 0 17.0215 2.05079 15.5859 3.69141L14.5605 4.85352L13.5352 3.69141C12.0996 2.05079 10.2539 0 6.83594 0Z"/>
</mask>
<path d="M6.83594 0C3.07617 0 0 3.07617 0 6.83593C0 11.8262 3.14453 15.1074 14.5605 24.4726C25.9766 15.1074 29.1211 11.8262 29.1211 6.83593C29.1211 3.07617 26.0449 0 22.2852 0C18.8672 0 17.0215 2.05079 15.5859 3.69141L14.5605 4.85352L13.5352 3.69141C12.0996 2.05079 10.2539 0 6.83594 0Z" transform="translate(0.4375 0.902344)" fill="#D41122" stroke="#D41122" stroke-width="4" mask="url(#path-1-inside-1)"/>
</svg>
