<svg width="5" height="9" viewBox="0 0 5 9" version="1.1" xmlns="http://www.w3.org/2000/svg" xmlns:xlink="http://www.w3.org/1999/xlink">
<title>?</title>
<desc>Created using Figma</desc>
<g id="Canvas" transform="translate(-4788 -14604)">
<g id="?">
<use xlink:href="#path0_fill" transform="translate(4788.6 14604)" fill="#6C6860"/>
</g>
</g>
<defs>
<path id="path0_fill" d="M 1.2544 5.8912L 2.3072 5.8912L 2.3072 5.432C 2.3072 4.0768 4.2896 3.8976 4.2896 2.0496C 4.2896 0.8064 3.2144 0 1.9488 0C 1.1424 0 0.4256 0.336 0 0.7168L 0.6048 1.4896C 0.952 1.2096 1.4112 1.0192 1.8704 1.0192C 2.6096 1.0192 3.1472 1.5008 3.1472 2.128C 3.1472 3.472 1.2544 3.6624 1.2544 5.3648L 1.2544 5.8912ZM 1.2208 8.064L 2.3408 8.064L 2.3408 6.9552L 1.2208 6.9552L 1.2208 8.064Z"/>
</defs>
</svg>
