<svg width="15" height="13" viewBox="0 0 15 13" fill="none" xmlns="http://www.w3.org/2000/svg">
<path fill-rule="evenodd" clip-rule="evenodd" d="M3.73811 2.70982C3.73826 2.70967 3.73842 2.70951 3.35343 2.32213C2.96845 1.93475 2.96863 1.93457 2.96883 1.93437L2.9704 1.93282L2.9735 1.92977L2.98315 1.92039C2.99109 1.91272 3.00207 1.90224 3.01599 1.88921C3.04383 1.86315 3.0835 1.82684 3.13439 1.78231C3.23607 1.69332 3.38303 1.57106 3.57023 1.43198C3.94348 1.15471 4.48318 0.805774 5.14868 0.521817C6.48576 -0.048685 8.35661 -0.363645 10.3681 0.72118C12.0243 1.61445 12.589 3.21816 12.7539 4.50662C12.8303 5.10384 12.8245 5.65326 12.7965 6.07119L13.8509 5.04748L14.6118 5.8312L12.1697 8.20202L9.70968 5.8327L10.4674 5.04597L11.6882 6.22173C11.6923 6.18007 11.6962 6.13602 11.6999 6.08978C11.7299 5.7131 11.7414 5.19941 11.6704 4.6453C11.5274 3.52798 11.066 2.3386 9.84956 1.68257C8.21273 0.799786 6.7059 1.04495 5.57735 1.52648C5.01005 1.76854 4.54496 2.0686 4.22161 2.30881C4.06052 2.42848 3.93624 2.53208 3.85375 2.60427C3.81255 2.64033 3.78191 2.66844 3.76245 2.68665C3.75272 2.69576 3.7458 2.70238 3.74177 2.70627L3.73811 2.70982ZM3.73811 2.70982C3.73806 2.70986 3.73807 2.70986 3.73811 2.70982V2.70982ZM2.44211 4.0142L4.90211 6.38352L4.14438 7.17025L2.92362 5.99449C2.91953 6.03615 2.91558 6.0802 2.91191 6.12644C2.88194 6.50312 2.87044 7.01681 2.94137 7.57093C3.08438 8.68824 3.54584 9.87762 4.76223 10.5337C6.39906 11.4164 7.90589 11.1713 9.03444 10.6897C9.60174 10.4477 10.0668 10.1476 10.3902 9.90742C10.5513 9.78775 10.6756 9.68414 10.758 9.61195C10.7992 9.57589 10.8299 9.54778 10.8493 9.52957C10.8591 9.52046 10.866 9.51384 10.87 9.50995L10.8737 9.5064C10.8735 9.50655 10.8734 9.50671 11.2584 9.89409C11.6433 10.2815 11.6432 10.2817 11.643 10.2818L11.6414 10.2834L11.6383 10.2865L11.6286 10.2958C11.6207 10.3035 11.6097 10.314 11.5958 10.327C11.568 10.3531 11.5283 10.3894 11.4774 10.4339C11.3757 10.5229 11.2288 10.6452 11.0416 10.7842C10.6683 11.0615 10.1286 11.4104 9.46311 11.6944C8.12604 12.2649 6.25518 12.5799 4.24373 11.495C2.58746 10.6018 2.02283 8.99806 1.85791 7.70961C1.78147 7.11238 1.78732 6.56296 1.81534 6.14504L0.760846 7.16875L0 6.38502L2.44211 4.0142Z" transform="translate(0.363281 0.0117188)" fill="#385492"/>
</svg>
