<svg width="11" height="10" viewBox="0 0 11 10" fill="none" xmlns="http://www.w3.org/2000/svg">
<path d="M2.6441 7.92645C2.6441 8.65661 2.0522 9.24851 1.32204 9.24851C0.591884 9.24851 0 8.65661 0 7.92645C0 7.1963 0.591904 6.60439 1.32206 6.60439C2.05222 6.60439 2.6441 7.19632 2.6441 7.92645ZM6.27042 8.90188C6.09797 5.71032 3.5416 3.15073 0.346633 2.97809C0.15805 2.96789 0 3.11942 0 3.30827V4.3006C0 4.47432 0.133979 4.62001 0.307327 4.63128C2.61599 4.78165 4.46653 6.62759 4.61721 8.94117C4.62851 9.11451 4.77419 9.24849 4.94789 9.24849H5.94022C6.1291 9.24851 6.28062 9.09046 6.27042 8.90188ZM9.2483 8.90783C9.07501 4.08085 5.19124 0.174347 0.340688 0.000214474C0.154273 -0.00647418 0 0.144124 0 0.330642V1.32296C0 1.50101 0.141102 1.64593 0.319012 1.65324C4.26571 1.81507 7.43349 4.98345 7.59529 8.92952C7.60258 9.10743 7.7475 9.24854 7.92558 9.24854H8.91789C9.10439 9.24851 9.25499 9.09424 9.2483 8.90783Z" transform="translate(0.935303 0.496094)" fill="#385492"/>
</svg>
