<svg width="13" height="20" viewBox="0 0 13 20" xmlns="http://www.w3.org/2000/svg" xmlns:xlink="http://www.w3.org/1999/xlink"><title>Vector</title><desc>Created using Figma</desc><use xlink:href="#a" fill="#FFF"/><defs><path id="a" fill-rule="evenodd" d="M1.625 0C.727 0 0 .746 0 1.667v4.17C0 6.421.236 6.95.613 7.33l1.768 1.812a6.32 6.32 0 0 0-1.975 4.61C.406 17.2 3.136 20 6.5 20c3.364 0 6.094-2.8 6.094-6.25a6.321 6.321 0 0 0-1.974-4.609l1.767-1.812c.377-.379.613-.908.613-1.492v-4.17C13 .746 12.273 0 11.375 0h-9.75zM6.5 10.417c.142 0 .26.092.3.22l.74 1.863h1.897c.17 0 .313.188.313.358a.302.302 0 0 1-.126.25l-1.597 1.113s.512 1.979.529 2.037a.31.31 0 0 1-.297.408.313.313 0 0 1-.203-.074L6.5 15.346l-1.556 1.246a.312.312 0 0 1-.203.075.31.31 0 0 1-.297-.409c.017-.058.537-2.029.537-2.029l-1.605-1.12a.303.303 0 0 1-.126-.25c0-.171.142-.359.313-.359H5.46l.74-1.862a.314.314 0 0 1 .3-.221zm-2.844-7.5v2.916a.826.826 0 0 1-.812.834.826.826 0 0 1-.813-.834V2.917c0-.459.366-.834.813-.834.447 0 .812.376.812.834zm3.657 0v3.75A.826.826 0 0 1 6.5 7.5a.826.826 0 0 1-.812-.833v-3.75c0-.459.365-.834.812-.834.447 0 .813.376.813.834zm3.656 0v2.916a.826.826 0 0 1-.813.834.826.826 0 0 1-.812-.834V2.917c0-.459.366-.834.812-.834.447 0 .813.376.813.834z"/></defs></svg>