<svg width="10" height="10" viewBox="0 0 10 10" xmlns="http://www.w3.org/2000/svg" xmlns:xlink="http://www.w3.org/1999/xlink"><title>Vector</title><desc>Created using Figma</desc><g fill="#FFF"><use xlink:href="#a"/><use xlink:href="#b"/><use xlink:href="#c"/></g><defs><path id="a" d="M7.5 0h-5A2.507 2.507 0 0 0 0 2.5v5C0 8.875 1.125 10 2.5 10h5C8.875 10 10 8.875 10 7.5v-5C10 1.125 8.875 0 7.5 0zm1.667 7.5A1.67 1.67 0 0 1 7.5 9.167h-5A1.669 1.669 0 0 1 .833 7.5v-5c0-.92.748-1.667 1.667-1.667h5c.92 0 1.667.748 1.667 1.667v5z"/><path id="b" d="M7.708 2.916a.625.625 0 1 0 0-1.25.625.625 0 0 0 0 1.25z"/><path id="c" d="M5 2.5a2.5 2.5 0 1 0 0 5 2.5 2.5 0 0 0 0-5zm0 4.167a1.667 1.667 0 1 1 0-3.334 1.667 1.667 0 0 1 0 3.334z"/></defs></svg>