<svg width="11" height="6" viewBox="0 0 11 6" xmlns="http://www.w3.org/2000/svg" xmlns:xlink="http://www.w3.org/1999/xlink"><title>Vector</title><desc>Created using Figma</desc><use xlink:href="#a" transform="translate(0 .75)" fill="#FFF"/><defs><path id="a" d="M2.535 4.154C3.755 5.258 5.14 5.185 5.14 5.185h.63s.19-.018.287-.11c.089-.083.086-.24.086-.24s-.014-.73.379-.84c.384-.105.882.707 1.406 1.02.398.236.699.184.699.184l1.4-.016s.734-.04.388-.54c-.03-.041-.202-.37-1.043-1.047-.88-.71-.761-.595.298-1.82.645-.748.903-1.203.823-1.4C10.415.19 9.94.24 9.94.24L8.36.25s-.119-.015-.205.03a.39.39 0 0 0-.14.147s-.25.579-.583 1.069c-.704 1.036-.984 1.092-1.1 1.027-.265-.15-.2-.602-.2-.924 0-1.006.174-1.424-.342-1.534-.172-.035-.299-.06-.737-.063-.565-.005-1.04.002-1.312.117-.18.077-.317.247-.234.257.105.011.342.056.465.203.162.191.156.62.156.62s.094 1.184-.217 1.331c-.213.1-.506-.105-1.132-1.046-.323-.48-.565-1.015-.565-1.015s-.046-.1-.129-.152C1.984.251 1.844.232 1.844.232l-1.5.01s-.226.004-.31.09C-.04.405.03.562.03.562s1.174 2.387 2.505 3.592z"/></defs></svg>