<svg width="18" height="17" viewBox="0 0 18 17" xmlns="http://www.w3.org/2000/svg" xmlns:xlink="http://www.w3.org/1999/xlink"><title>Vector</title><desc>Created using Figma</desc><g transform="translate(.44 .6)" fill="#FFF"><use xlink:href="#a"/><use xlink:href="#b"/><use xlink:href="#c"/></g><defs><path id="a" d="M3.132.073C3.365.023 3.602 0 3.84 0h.316c.066 0 .131.012.195.027a6.854 6.854 0 0 1 3.627 1.552c.13.106.245.225.369.343.029.028.078.033.107.004h.001c.856-.874 1.908-1.418 3.09-1.732l.011-.003c.212-.055.427-.093.643-.13.23-.04.463-.061.697-.061h.287c.09 0 .177.02.265.034h.006c.347.052.683.142.983.33.013.007.026.016.038.024.58.377.854.903.787 1.584a2.277 2.277 0 0 1-.01.087c-.057.415-.253.777-.504 1.11a6.26 6.26 0 0 1-.243.296.098.098 0 0 0 .074.163h1.81c.313 0 .411.096.411.4v3.497c0 .313-.095.406-.422.406H9.196a.204.204 0 0 1-.204-.204V4.244a.6.6 0 1 0-1.198 0v3.543c0 .077-.06.144-.137.144H.58c-.141 0-.29.02-.419-.04C.05 7.839 0 7.733 0 7.556V4.024c0-.3.102-.4.411-.4h1.827a.087.087 0 0 0 .07-.14c-.16-.209-.318-.404-.448-.615l-.002-.005c-.273-.435-.406-.912-.288-1.426l.002-.01C1.73.756 2.193.362 2.84.15l.033-.01a2.83 2.83 0 0 1 .26-.067zm8.11 2.158c-1.06.458-.646 1.404.418.954l.006-.002c1.072-.456.645-1.414-.424-.952zm-5.54.063c-1.07-.492-1.55.494-.457.932l.018.008c1.007.4 1.423-.487.439-.94z"/><path id="b" d="M7.954 9.24v6.72h-5.89c-.286 0-.384-.076-.384-.31V9.37c0-.04.003-.078.007-.127 2.09-.003 4.17-.003 6.267-.003z"/><path id="c" d="M8.984 15.96V9.24h6.136v6.367c0 .29-.077.353-.431.353H8.983z"/></defs></svg>