<svg width="59" height="63" viewBox="0 0 59 63" version="1.1" xmlns="http://www.w3.org/2000/svg" xmlns:xlink="http://www.w3.org/1999/xlink">
<g id="Canvas" fill="none">
<g id="Group 3">
<g id="Group">
<g id="Group_2">
<path id="Vector" d="M 1.74403e-08 37.8058L 1.74403e-08 4.46065C 1.74403e-08 1.99267 1.99334 -5.57903e-07 4.46215 -5.57903e-07L 4.55359 -5.57903e-07C 7.02241 -5.57903e-07 9.01575 1.99267 9.01575 4.46065L 9.01575 22.614" transform="matrix(0.613581 -0.789632 0.789632 0.613581 -0.306641 34.8691)" stroke="#C4C4C4" stroke-width="2.5" stroke-miterlimit="10"/>
<path id="Vector_2" d="M -1.11618e-06 9.30994L 4.86448 3.44163C 6.43721 1.54037 11.2102 -1.09215 13.1122 0.480047L 13.1853 0.534891C 15.0872 2.10709 15.3432 4.92242 13.7705 6.80539L 9.61923 11.8145" transform="matrix(0.613581 -0.789632 0.789632 0.613581 34.7773 15.8125)" stroke="#C4C4C4" stroke-width="2.5" stroke-miterlimit="10"/>
<path id="Vector_3" d="M -2.79045e-07 22.5957L -2.79045e-07 4.46065C -2.79045e-07 1.99267 1.99334 2.78951e-07 4.46215 2.78951e-07L 4.55359 2.78951e-07C 7.02241 2.78951e-07 9.01575 1.99267 9.01575 4.46065L 9.01575 26.4531" transform="matrix(0.613581 -0.789632 0.789632 0.613581 -0.53125 23.2988)" stroke="#C4C4C4" stroke-width="2.5" stroke-miterlimit="10"/>
<path id="Vector_4" d="M 2.79045e-07 22.614L 2.79045e-07 4.46065C 2.79045e-07 1.99267 1.99334 -3.48689e-08 4.46216 -3.48689e-08L 4.55359 -3.48689e-08C 7.02241 -3.48689e-08 9.01575 1.99267 9.01575 4.46065L 9.01575 22.614" transform="matrix(0.613581 -0.789632 0.789632 0.613581 0.0625 12.3438)" stroke="#C4C4C4" stroke-width="2.5" stroke-miterlimit="10"/>
<path id="Vector_5" d="M 1.11618e-06 27.7694L 1.11618e-06 4.46065C 1.11618e-06 1.99267 1.99334 1.39476e-07 4.46215 1.39476e-07L 4.55359 1.39476e-07C 7.02241 1.39476e-07 9.01575 1.99267 9.01575 4.46065L 9.01575 30.4567L 9.01575 34.4421C 9.01575 34.9357 9.61923 35.155 9.93012 34.7711L 12.2344 31.9558" transform="matrix(0.613581 -0.789632 0.789632 0.613581 8.47266 7.48242)" stroke="#C4C4C4" stroke-width="2.5" stroke-miterlimit="10"/>
<path id="Vector_6" d="M 47.1452 5.57903e-07C 47.1452 5.57903e-07 39.8851 8.40942 37.0139 14.8993C 34.2891 21.0418 26.0963 27.3855 19.3665 27.3855L 18.3058 27.3855C 9.8204 27.3855 3.48807e-08 20.0912 3.48807e-08 11.0968L 3.48807e-08 10.9322" transform="matrix(0.613581 -0.789632 0.789632 0.613581 20.7734 51.2715)" stroke="#C4C4C4" stroke-width="2.5" stroke-miterlimit="10"/>
<path id="Vector_7" d="M 0 9.85236C 0 9.85236 1.88361 -1.48208 14.2094 0.16324" transform="matrix(0.613581 -0.789632 0.789632 0.613581 31.3301 40.7852)" stroke="#C4C4C4" stroke-width="2.5" stroke-miterlimit="10"/>
</g>
</g>
</g>
</g>
</svg>
