<svg width="21" height="19" viewBox="0 0 21 19" xmlns="http://www.w3.org/2000/svg" xmlns:xlink="http://www.w3.org/1999/xlink"><title>Vector</title><desc>Created using Figma</desc><g transform="translate(.1)" fill="#C8DBC8"><use xlink:href="#a"/><use xlink:href="#b"/></g><defs><path id="a" d="M13.409 12.047h.54c1.354 0 2.718.01 4.073-.01.991-.01 1.62-.424 1.796-1.433.177-.979.197-1.998.197-2.997a10.06 10.06 0 0 0-.688-3.643C18.375 1.48 16.57.2 14.007.028c-2.434-.161-4.78.394-7.067 1.18-.118.041-.275.243-.275.374-.02 3.149-.02 6.287 0 9.436a.96.96 0 0 0 .196.555c.707.847 1.424 1.705 2.18 2.512.46.495 1.01.909 1.511 1.363C12.005 16.77 13.006 19 14.724 19c.54 0 .756-1.524.54-2.523a12.156 12.156 0 0 0-1.63-4.026 3.75 3.75 0 0 1-.226-.404z"/><path id="b" d="M1.08 12.027h2.797c.599 0 1.08-.495 1.08-1.11V1.158c0-.615-.481-1.11-1.08-1.11H1.08C.48.048 0 .543 0 1.158v9.759c0 .615.481 1.11 1.08 1.11z"/></defs></svg>