<svg width="26" height="28" viewBox="0 0 26 28" xmlns="http://www.w3.org/2000/svg" xmlns:xlink="http://www.w3.org/1999/xlink"><title>Vector</title><desc>Created using Figma</desc><g fill="#222"><use xlink:href="#a"/><use xlink:href="#b"/></g><defs><path id="a" d="M17.868 17.792a23.83 23.83 0 0 1-1.96 2.782.907.907 0 0 1-.705.325.928.928 0 0 1-.528-.163c-.39-.269-.469-.777-.177-1.136 2.7-3.314 5.202-7.795 5.328-17.977H6.174C6.3 11.806 8.803 16.287 11.502 19.6c.291.358.213.867-.177 1.136a.93.93 0 0 1-1.234-.162 23.856 23.856 0 0 1-1.96-2.782C3.608 17.571 0 14.112 0 9.892c0-1.05.22-2.069.652-3.03a7.874 7.874 0 0 1 1.865-2.566.936.936 0 0 1 1.246 0 .767.767 0 0 1 0 1.148 6.261 6.261 0 0 0-1.482 2.04 5.824 5.824 0 0 0-.518 2.407c0 3.024 2.33 5.556 5.422 6.155-1.941-4-2.778-8.765-2.778-15.234C4.407.363 4.8 0 5.288 0h15.424c.486 0 .881.363.881.812 0 6.469-.837 11.235-2.778 15.234 3.093-.6 5.422-3.131 5.422-6.155 0-.834-.174-1.644-.518-2.407a6.251 6.251 0 0 0-1.483-2.04.767.767 0 0 1 0-1.148.936.936 0 0 1 1.247 0 7.868 7.868 0 0 1 1.865 2.566c.432.961.652 1.98.652 3.03 0 4.22-3.607 7.679-8.132 7.9zM6.61 27.188c0 .449.395.812.881.812h11.017c.487 0 .882-.363.882-.812 0-.448-.395-.811-.882-.811H7.491c-.486 0-.88.363-.88.811zm9.695-3.246c.487 0 .881-.363.881-.812 0-.448-.394-.811-.881-.811h-6.61c-.487 0-.882.363-.882.811 0 .449.395.812.882.812h6.61z"/><path id="b" d="M17.494 17.521a22.135 22.135 0 0 1-1.81 2.583.836.836 0 0 1-.65.302.854.854 0 0 1-.488-.15.718.718 0 0 1-.163-1.056c2.491-3.077 4.801-7.238 4.918-16.693H6.698c.117 9.455 2.427 13.616 4.918 16.693a.718.718 0 0 1-.163 1.055.857.857 0 0 1-1.139-.15 22.138 22.138 0 0 1-1.809-2.584C4.33 17.317 1 14.104 1 10.185c0-.974.203-1.92.602-2.813a7.31 7.31 0 0 1 1.721-2.383.86.86 0 0 1 1.15 0 .715.715 0 0 1 0 1.066 5.813 5.813 0 0 0-1.368 1.894 5.435 5.435 0 0 0-.478 2.236c0 2.807 2.15 5.158 5.005 5.715C5.84 12.186 5.068 7.76 5.068 1.754c0-.417.364-.754.813-.754H20.12c.449 0 .813.337.813.754 0 6.007-.773 10.432-2.565 14.146 2.855-.557 5.006-2.908 5.006-5.715 0-.775-.161-1.527-.479-2.236a5.802 5.802 0 0 0-1.368-1.894.715.715 0 0 1 0-1.066.86.86 0 0 1 1.15 0 7.304 7.304 0 0 1 1.722 2.383c.4.892.602 1.839.602 2.813 0 3.919-3.33 7.13-7.506 7.336zM7.102 26.246c0 .417.364.754.813.754h10.17c.449 0 .813-.337.813-.754 0-.416-.364-.753-.813-.753H7.915c-.45 0-.813.337-.813.753zm8.949-3.014c.449 0 .813-.338.813-.754s-.364-.753-.813-.753H9.949c-.45 0-.813.337-.813.753s.364.754.813.754h6.102z"/></defs></svg>