<svg width="21" height="19" viewBox="0 0 21 19" xmlns="http://www.w3.org/2000/svg" xmlns:xlink="http://www.w3.org/1999/xlink"><title>Vector</title><desc>Created using Figma</desc><g fill="#C8DBC8"><use xlink:href="#a"/><use xlink:href="#b"/></g><defs><path id="a" d="M13.409 6.953h.54c1.354 0 2.718-.01 4.073.01.991.01 1.62.424 1.796 1.433.177.979.197 1.998.197 2.997a10.06 10.06 0 0 1-.688 3.643c-.952 2.483-2.758 3.764-5.32 3.936-2.434.161-4.78-.394-7.067-1.18-.118-.041-.275-.243-.275-.374-.02-3.149-.02-6.287 0-9.436a.96.96 0 0 1 .196-.555c.707-.847 1.424-1.705 2.18-2.512.46-.495 1.01-.909 1.511-1.363C12.005 2.23 13.006 0 14.724 0c.54 0 .756 1.524.54 2.523a12.158 12.158 0 0 1-1.63 4.026 3.857 3.857 0 0 0-.225.404z"/><path id="b" d="M1.08 6.973h2.797c.599 0 1.08.495 1.08 1.11v9.759c0 .615-.481 1.11-1.08 1.11H1.08c-.599 0-1.08-.495-1.08-1.11V8.083c0-.615.481-1.11 1.08-1.11z"/></defs></svg>