<svg width="9" height="12" viewBox="0 0 9 12" xmlns="http://www.w3.org/2000/svg" xmlns:xlink="http://www.w3.org/1999/xlink"><title>Vector</title><desc>Created using Figma</desc><g transform="translate(.8 .25)" fill="#FFF"><use xlink:href="#a"/><use xlink:href="#b"/></g><defs><path id="a" d="M3.75 5.623a2.813 2.813 0 0 0 1.988-4.8 2.812 2.812 0 1 0-1.988 4.8zm0-4.217a1.406 1.406 0 1 1 0 2.812 1.406 1.406 0 0 1 0-2.812z"/><path id="b" d="M6.937 7.272a1.247 1.247 0 0 0 .563-1.04.909.909 0 0 0-.938-.937.938.938 0 0 0-.567.192 3.778 3.778 0 0 1-4.523 0 .938.938 0 0 0-.534-.169.91.91 0 0 0-.938.937 1.246 1.246 0 0 0 .563 1.04 5.71 5.71 0 0 0 1.467.67l.3.085L.793 9.559a.989.989 0 0 0 .703 1.691c.262 0 .514-.102.703-.286L3.75 9.34l1.56 1.616A.994.994 0 0 0 6.718 9.55l-1.56-1.494.304-.085a5.761 5.761 0 0 0 1.476-.698z"/></defs></svg>