<svg width="19" height="12" viewBox="0 0 19 12" xmlns="http://www.w3.org/2000/svg" xmlns:xlink="http://www.w3.org/1999/xlink"><title>Group</title><desc>Created using Figma</desc><use xlink:href="#a" fill="#CBCBCB"/><use xlink:href="#b" transform="translate(6.11 2.67)" fill="#CBCBCB"/><defs><path id="a" d="M9.5 12C6.606 12 2.36 10.365.223 6.495c-.255-.269-.273-.801 0-1.052.274-.252 2.3 1.986 2.556 2.255 1.82 1.915 4.207 2.969 6.721 2.969 3.232 0 6.208-1.737 8.034-4.667C15.71 3.07 12.732 1.333 9.5 1.333c-3.35 0-6.427 1.868-8.231 4.996a.684.684 0 0 1-.925.251.66.66 0 0 1-.256-.909C2.136 2.12 5.655 0 9.5 0c3.846 0 7.365 2.12 9.412 5.671a.657.657 0 0 1 0 .657C16.865 9.879 13.346 12 9.5 12z"/><path id="b" d="M3.393 6.667C1.522 6.667 0 5.17 0 3.333S1.522 0 3.393 0c1.87 0 3.393 1.495 3.393 3.333S5.264 6.667 3.393 6.667zm0-5.334c-1.122 0-2.036.898-2.036 2 0 1.103.914 2 2.036 2 1.122 0 2.036-.897 2.036-2 0-1.102-.914-2-2.036-2z"/></defs></svg>