<svg width="23" height="23" viewBox="0 0 23 23" xmlns="http://www.w3.org/2000/svg" xmlns:xlink="http://www.w3.org/1999/xlink"><title>Vector</title><desc>Created using Figma</desc><g fill="#FFF"><use xlink:href="#a"/><use xlink:href="#b"/></g><defs><path id="a" d="M16.231 20.631H6.933c-.677 0-1.353.508-1.353 1.184 0 .676.676 1.184 1.353 1.184h9.298c.677 0 1.353-.508 1.353-1.184 0-.677-.676-1.184-1.353-1.184z"/><path id="b" d="M22.486 5.58c-.338-.845-1.015-1.521-1.69-2.198-.339-.338-1.015-.338-1.353-.169v-2.03C19.443.508 18.766 0 18.09 0H5.072c-.676 0-1.353.507-1.353 1.184v2.03c-.507-.17-1.014-.17-1.352.168-.676.677-1.353 1.353-1.69 2.199C.337 6.426 0 7.272 0 8.287c0 3.551 3.043 6.426 7.1 6.764l1.522 2.03c.17.169.339.338.508.338h-.508c-.676 0-1.352.508-1.352 1.184 0 .676.676 1.184 1.352 1.184h5.58c.676 0 1.352-.508 1.352-1.184 0-.677-.676-1.184-1.352-1.184h-.508c.17 0 .339-.169.508-.338l1.521-2.03c4.058-.338 7.101-3.213 7.101-6.764.338-.846.17-1.86-.338-2.706zm-3.212-.168c.338.338.676.676.845 1.184.17.507.338 1.014.338 1.69 0 1.692-1.183 3.214-2.874 3.89.845-2.029 1.353-4.058 1.69-6.764zM5.579 12.177c-1.69-.677-2.874-2.2-2.874-3.89 0-.508.17-1.184.338-1.691.17-.508.507-.846.846-1.184.338 2.706.845 4.735 1.69 6.765z"/></defs></svg>