<svg width="40" height="38" viewBox="0 0 40 38" xmlns="http://www.w3.org/2000/svg" xmlns:xlink="http://www.w3.org/1999/xlink"><title>Vector</title><desc>Created using Figma</desc><g fill="#FFC045"><use xlink:href="#a"/><use xlink:href="#b"/><use xlink:href="#c"/><use xlink:href="#d"/><use xlink:href="#e"/><use xlink:href="#f"/><use xlink:href="#g"/></g><defs><path id="a" d="M12.188 20.356l-.864 2.83-2.28-.696c.023-.105.029-.226.066-.348.692-2.268 1.363-4.532 2.083-6.791.657-2.084 2.81-3.404 4.987-3.108 2.332.323 4 2.123 4.086 4.372.081 2.166-1.736 5.32-4.972 5.028-.93-.09-1.918-.483-3.106-1.287zm5.538-2.816c.351-1.184-.319-2.454-1.466-2.794a2.253 2.253 0 0 0-2.77 1.51c-.369 1.21.27 2.48 1.452 2.841 1.17.367 2.421-.336 2.784-1.557z"/><path id="b" d="M20.506 23.029l-2.112-.645c-.075-.022-.143-.064-.261-.11.166-.544.317-1.071.486-1.593.376-1.166.671-2.366 1.163-3.476.684-1.543 1.947-2.448 3.645-2.545 1.675-.092 3.055.554 4.074 2.012-.714.407-1.401.792-2.07 1.182-.287-.19-.523-.416-.81-.544a1.952 1.952 0 0 0-2.712 1.19c-.425 1.324-.819 2.648-1.225 3.979-.058.156-.11.325-.178.55z"/><path id="c" fill-rule="evenodd" d="M31.146 34.354l-3.5-3.5.708-.707 3.5 3.5-.707.707z"/><path id="d" fill-rule="evenodd" d="M35.147 30.854l-3.5-3.5.707-.707 3.5 3.5-.707.707z"/><path id="e" fill-rule="evenodd" d="M37.147 24.854l-3.5-3.5.707-.707 3.5 3.5-.707.707z"/><path id="f" fill-rule="evenodd" d="M38.147 18.854l-3.5-3.5.707-.707 3.5 3.5-.707.707z"/><path id="g" d="M21.993 38c-3.294-.036-6.47-.951-9.391-2.735a9.403 9.403 0 0 0-1.086-.553C5.346 32.077 1.419 27.502.289 20.873-.897 13.972 1.619 8.33 6.929 3.91 9.372 1.871 12.231.658 15.37.196c4.288-.634 8.278.29 11.988 2.5.624.37 1.32.634 1.98.96 6.044 2.952 9.718 7.716 10.523 14.418.769 6.467-1.674 11.775-6.623 15.896-3.257 2.717-7.02 3.985-11.245 4.03zm-4.099-4.592c8.713.01 15.48-6.72 15.462-15.451-.027-9.012-6.948-15.37-15.398-15.406C9.137 2.514 2.623 9.244 2.523 17.758c-.108 9.609 7.636 15.66 15.371 15.65zm4.144 2.038c5.718.127 11.725-3.08 14.303-9.347 2.37-5.76.932-12.136-2.135-15.623 4.967 10.388-1.583 22.334-12.168 24.97z"/></defs></svg>