<svg width="52" height="42" viewBox="0 0 52 42" xmlns="http://www.w3.org/2000/svg" xmlns:xlink="http://www.w3.org/1999/xlink"><title>“</title><desc>Created using Figma</desc><use xlink:href="#a" fill="#222"/><defs><path id="a" d="M52 31.904c0 3.096-.996 5.586-2.989 7.471C47.02 41.125 44.495 42 41.441 42c-3.587 0-6.575-1.212-8.966-3.635-2.258-2.423-3.387-5.99-3.387-10.702 0-4.442.598-8.211 1.793-11.307 1.328-3.231 2.856-5.923 4.583-8.077 1.86-2.289 3.719-4.106 5.578-5.452C43.034 1.48 44.762.538 46.222 0l4.981 7.067c-2.922 1.481-5.313 3.5-7.172 6.058-1.727 2.423-2.59 5.52-2.59 9.288.53-.134 1.261-.201 2.191-.201 2.657 0 4.715.942 6.176 2.826C51.27 26.924 52 29.212 52 31.904zm-29.088 0c0 3.096-.996 5.586-2.989 7.471-1.992 1.75-4.516 2.625-7.57 2.625-3.587 0-6.575-1.212-8.966-3.635C1.129 35.942 0 32.375 0 27.663c0-4.442.598-8.211 1.793-11.307 1.328-3.231 2.856-5.923 4.582-8.077 1.86-2.289 3.72-4.106 5.579-5.452C13.946 1.48 15.674.538 17.134 0l4.98 7.067c-2.921 1.481-5.312 3.5-7.171 6.058-1.727 2.423-2.59 5.52-2.59 9.288.53-.134 1.261-.201 2.191-.201 2.657 0 4.715.942 6.176 2.826 1.461 1.885 2.192 4.174 2.192 6.866z"/></defs></svg>