<svg width="17" height="19" viewBox="0 0 17 19" xmlns="http://www.w3.org/2000/svg" xmlns:xlink="http://www.w3.org/1999/xlink"><title>Vector</title><desc>Created using Figma</desc><use xlink:href="#a" transform="matrix(-1 0 0 1 17 0)" fill="#FFF"/><defs><path id="a" d="M8.482 18.994H4.121c-2.114 0-3.74-1.267-4.077-3.18-.052-.297-.038-.612-.038-.913 0-1.368-.019-2.74.01-4.107.033-1.533 1.175-2.9 2.768-3.35.204-.058.26-.14.26-.333-.009-.773-.023-1.542.006-2.315C3.154 2.078 5.704-.093 8.653.003c2.972.096 5.286 2.29 5.305 5.037.005.712.005 1.429 0 2.141 0 .14.042.197.194.24 1.73.507 2.84 1.9 2.844 3.578a598.69 598.69 0 0 1 0 4.238c-.004 2.128-1.74 3.744-4.053 3.762-1.493.004-2.977-.005-4.46-.005zM10.92 7.247c0-.809.033-1.595-.01-2.381-.056-1.07-1.014-1.97-2.137-2.058-1.489-.122-2.665.847-2.698 2.228-.014.603-.005 1.206-.005 1.809v.397c1.631.005 3.229.005 4.85.005zm-3.64 6.85v.917c.004.678.511 1.176 1.203 1.184.697.01 1.219-.493 1.223-1.184.005-.559.01-1.118-.004-1.682a.746.746 0 0 1 .208-.568c.598-.664.522-1.633-.147-2.236-.659-.595-1.697-.638-2.417-.1-.711.528-.92 1.52-.37 2.192.265.324.317.638.303 1-.004.158 0 .32 0 .477z"/></defs></svg>