<svg width="14" height="20" viewBox="0 0 14 20" xmlns="http://www.w3.org/2000/svg" xmlns:xlink="http://www.w3.org/1999/xlink"><title>Vector</title><desc>Created using Figma</desc><g fill="#FFF"><use xlink:href="#a"/><use xlink:href="#b"/><use xlink:href="#c"/></g><defs><path id="a" d="M10.516 13.72H3.548c-.017-.028-.033-.05-.033-.06.104-.502-.17-.752-.564-1.025A6.896 6.896 0 0 1 .192 5.353C.844 2.613 3.094.544 5.902.092c4.017-.654 7.767 2.25 8.073 6.302.208 2.74-.908 4.88-3.18 6.426-.219.147-.323.29-.284.545.016.109.005.218.005.354zM6.898 8.78c-.679-.682-1.336-1.34-1.993-1.994-.35-.349-.678-.349-1.018-.011-.317.321-.312.653.028.997.886.887 1.779 1.77 2.665 2.658.099.103.181.223.252.315.088-.038.11-.043.12-.054 1.002-.991 1.998-1.988 3-2.98.17-.168.236-.375.17-.598a.789.789 0 0 0-.553-.556c-.252-.076-.46.016-.64.202-.663.664-1.33 1.328-2.031 2.02z"/><path id="b" d="M3.515 17.93h6.99c-.006.62-.23 1.121-.69 1.513a2.102 2.102 0 0 1-1.347.534 47.64 47.64 0 0 1-2.928 0c-1.106-.044-1.982-.888-2.025-1.879v-.169z"/><path id="c" d="M10.505 15.146c.006.065.011.12.011.174v1.188h-6.99v-1.362h6.98z"/></defs></svg>