<svg width="12" height="17" viewBox="0 0 12 17" xmlns="http://www.w3.org/2000/svg" xmlns:xlink="http://www.w3.org/1999/xlink"><title>Group</title><desc>Created using Figma</desc><use xlink:href="#a" fill="#D41122"/><defs><path id="a" d="M1.665 6.186c.164.316.25.565.406.781.406.574 1.158.807 1.789.582.596-.207.967-.831.89-1.554a3.637 3.637 0 0 0-.234-1.006c-.535-1.297-.31-2.495.45-3.634C5.26.89 5.596.441 5.925 0c.078.033.112.042.12.058 1.444 2.104 2.913 4.182 4.322 6.31.752 1.132 1.296 2.37 1.538 3.717.596 3.268-1.676 6.344-5.081 6.851-3.258.483-6.36-1.829-6.775-5.096-.156-1.223.069-2.403.579-3.526.31-.706.674-1.396 1.037-2.128zm4.32 3.076c-.51.665-.95 1.19-1.348 1.755-.449.631-.769 1.322-.847 2.103-.13 1.197.7 2.278 1.85 2.42 1.279.15 2.359-.657 2.532-1.896a2.685 2.685 0 0 0-.424-1.87c-.527-.84-1.132-1.622-1.763-2.512z"/></defs></svg>