<svg width="18" height="21" viewBox="0 0 18 21" xmlns="http://www.w3.org/2000/svg" xmlns:xlink="http://www.w3.org/1999/xlink"><title>Vector</title><desc>Created using Figma</desc><g fill="#FFF"><use xlink:href="#a"/><use xlink:href="#b"/></g><defs><path id="a" d="M16.267 6.785a3.458 3.458 0 0 1-.113-.178c.337-.327.675-.64.995-.966.447-.457.465-1.119.057-1.576-.452-.505-1.189-.527-1.697-.04-.33.319-.65.645-.978.976-.057-.044-.114-.083-.171-.126a8.977 8.977 0 0 0-3.579-1.593l-.127-.026c-.421-.088-.487-.1-.5-.4v-.554h.25c.215 0 .421.005.627-.004.693-.017 1.189-.505 1.184-1.166 0-.51-.39-.988-.881-1.097-.005 0-.013-.005-.018-.005L11.3.026a1.054 1.054 0 0 0-.171-.017C10.439.004 9.75 0 9.066 0h-.131c-.689 0-1.377.004-2.061.009a.76.76 0 0 0-.171.017c-.005 0-.014.004-.018.004-.004 0-.013.005-.018.005a1.165 1.165 0 0 0-.881 1.097c-.004.661.487 1.149 1.184 1.166.206.004.412.004.627.004h.25v.553c-.009.3-.079.313-.5.4A8.977 8.977 0 0 0 3.72 4.814c-.04.027-.074.057-.11.088-.434.33-.938.6-1.982 2.028-3.442 4.905-1.162 11.607 4.36 13.54a8.582 8.582 0 0 0 3.013.53 8.51 8.51 0 0 0 3.017-.53c5.57-1.954 7.841-8.766 4.25-13.684zM4.935 6.742c.083-.044.167-.092.25-.148a7.425 7.425 0 0 1 1.513-.797 7.055 7.055 0 0 1 2.298-.413 6.989 6.989 0 0 1 2.298.413 7.11 7.11 0 0 1 1.513.797c.084.056.167.104.25.148 2.96 2.215 3.68 6.65.974 9.697a7.266 7.266 0 0 1-1.298 1.153 1.804 1.804 0 0 0-.259.13 6.464 6.464 0 0 1-3.482.971c-.241 0-.483-.013-.733-.035a6.308 6.308 0 0 1-2.75-.936 1.602 1.602 0 0 0-.258-.13c-.46-.313-.895-.7-1.298-1.153-2.697-3.047-1.978-7.482.982-9.697z"/><path id="b" d="M8.966 13.849c1 0 1.82-.805 1.807-1.797a.661.661 0 0 1 .166-.47c.605-.736 1.197-1.48 1.798-2.22.171-.213.29-.44.22-.718-.132-.527-.733-.723-1.18-.375-.776.605-1.544 1.219-2.311 1.833-.145.117-.281.239-.457.165-1.026-.004-1.833.788-1.846 1.776a1.8 1.8 0 0 0 1.803 1.806z"/></defs></svg>