<svg width="18" height="14" viewBox="0 0 18 14" xmlns="http://www.w3.org/2000/svg" xmlns:xlink="http://www.w3.org/1999/xlink"><title>взаимодействие</title><desc>Created using Figma</desc><use xlink:href="#a" transform="translate(1.37 1.41)" fill="#CBCBCB"/><defs><path id="a" d="M2.922 9.624l.545.44.526-.653-.735-.401-.336.614zm-1.717 2.132l.441.544.058-.047.047-.058-.546-.439zm.11.119l-.072-.697-.099.01-.092.038.263.649zM5.881 10.6l.112-.69-.229-.038-.205.107.322.621zM7.634-.7C5.407-.7 3.354-.065 1.84 1 .326 2.067-.7 3.606-.7 5.39H.7c0-1.207.691-2.362 1.945-3.244C3.897 1.265 5.66.7 7.635.7V-.7zM-.7 5.39c0 2.05 1.35 3.791 3.287 4.849l.67-1.23C1.616 8.114.7 6.774.7 5.39H-.7zm3.077 3.795L.66 11.317l1.09.878 1.717-2.132-1.09-.878zM.765 11.212a.755.755 0 0 0-.04 1.145.808.808 0 0 0 .853.166l-.526-1.297a.592.592 0 0 1 .634.114.645.645 0 0 1-.04.96l-.881-1.088zm.622 1.359c1.773-.186 3.433-.636 4.816-1.348L5.559 9.98c-1.247.65-2.655 1.029-4.316 1.198l.144 1.393zm4.382-1.279a11.92 11.92 0 0 0 1.865.157v-1.4a9.915 9.915 0 0 1-1.641-.139l-.224 1.382zm1.865.157c2.227 0 4.28-.634 5.795-1.7 1.514-1.065 2.54-2.605 2.54-4.39h-1.4c0 1.207-.692 2.363-1.945 3.245-1.252.88-3.016 1.445-4.99 1.445v1.4zm8.334-6.09c0-1.782-1.014-3.315-2.526-4.374C11.93-.075 9.877-.7 7.634-.7V.7c1.995 0 3.759.559 5.005 1.432 1.246.873 1.93 2.02 1.93 3.228h1.4z"/></defs></svg>