<svg width="20" height="13" viewBox="0 0 20 13" xmlns="http://www.w3.org/2000/svg" xmlns:xlink="http://www.w3.org/1999/xlink"><title>Vector</title><desc>Created using Figma</desc><use xlink:href="#a" transform="translate(1 1)" fill="#FFF"/><defs><path id="a" d="M0 0v-.75h-.75V0H0zm18 0h.75v-.75H18V0zm0 11v.75h.75V11H18zM0 11h-.75v.75H0V11zm9-4.888l-.402.633.401.254.402-.254-.402-.633zM0 .75h18v-1.5H0v1.5zM17.25 0v11h1.5V0h-1.5zM18 10.25H0v1.5h18v-1.5zM.75 11V0h-1.5v11h1.5zm.134-9.144l7.714 4.889.803-1.267L1.687.589.884 1.856zM9.4 6.745l7.714-4.889L16.312.59 8.598 5.48l.803 1.266z"/></defs></svg>