<svg width="66" height="72" viewBox="0 0 66 72" xmlns="http://www.w3.org/2000/svg" xmlns:xlink="http://www.w3.org/1999/xlink"><title>Vector</title><desc>Created using Figma</desc><use xlink:href="#a" fill="#222"/><defs><path id="a" d="M.056 8.836c-.016.275-.049.501-.049.744 0 5.544-.016 11.104 0 16.648.017 3.459.293 6.885 1.107 10.247 4.165 17.262 14.643 28.98 31.368 35.187.309.113.748.097 1.074-.016 8.02-2.78 14.887-7.306 20.467-13.674 7.29-8.34 11.34-18.038 11.812-29.061.277-6.53.114-13.092.147-19.622 0-.146-.05-.291-.082-.469a30.07 30.07 0 0 1-.52-.048 72.174 72.174 0 0 1-15.896-2.215C43.822 5.12 38.339 3.244 33.377.077c-.196-.13-.619-.082-.846.048C24.054 5.15 14.764 7.543 5.035 8.513c-1.644.146-3.287.21-4.979.323z"/></defs></svg>