<svg width="14" height="11" viewBox="0 0 14 11" xmlns="http://www.w3.org/2000/svg" xmlns:xlink="http://www.w3.org/1999/xlink"><title>Vector</title><desc>Created using Figma</desc><use xlink:href="#a" fill="#FFF"/><defs><path id="a" d="M14 1.302a5.855 5.855 0 0 1-1.65.437A2.806 2.806 0 0 0 13.614.203c-.556.318-1.17.55-1.824.674A2.918 2.918 0 0 0 9.692 0C8.106 0 6.821 1.243 6.821 2.777c0 .217.025.43.074.633A8.252 8.252 0 0 1 .975.508c-.248.41-.39.887-.39 1.396 0 .964.508 1.814 1.278 2.312a2.939 2.939 0 0 1-1.3-.347l-.001.034c0 1.346.99 2.469 2.304 2.724a2.984 2.984 0 0 1-1.297.047c.365 1.103 1.426 1.906 2.683 1.929a5.888 5.888 0 0 1-3.567 1.19c-.232 0-.46-.014-.685-.04A8.34 8.34 0 0 0 4.403 11c5.283 0 8.172-4.231 8.172-7.901 0-.12-.003-.24-.009-.36A5.724 5.724 0 0 0 14 1.302z"/></defs></svg>