<svg width="33" height="33" viewBox="0 0 33 33" xmlns="http://www.w3.org/2000/svg" xmlns:xlink="http://www.w3.org/1999/xlink"><title>Vector</title><desc>Created using Figma</desc><use xlink:href="#a" transform="translate(2.1 2.78)" fill="#FFF"/><defs><path id="a" d="M14.887 0l.749-.281-.642-1.711-.822 1.632.715.36zm-3.872 7.677l-.716-.357-.003.007.719.35zm-2.36 1.73l-.105-.793-.009.001.115.792zm-6.036.873l-.114-.792-.009.001.123.79zM0 10.7l-.133-.789-1.489.25 1.044 1.092L0 10.7zm.683.711l-.563.568.563-.568zm5.679 5.673l.577-.553-.002-.002-.575.555zm.585 1.374l-.79-.122.79.122zM5.76 24.794l.784.155.001-.003-.785-.152zm-.57 3.12l-.787-.146-.3 1.634 1.464-.783-.377-.706zm7.956-4.3l.396.695-.396-.695zm2.424 0l-.383.702.383-.702zm7.143 3.847l-.379.705.004.002.375-.707zm.813.42l-.383.702 1.429.781-.256-1.608-.79.125zm-.081-.614l-.787.145.003.013.784-.158zm-1.53-8.162l.787-.146v-.004l-.787.15zm.765-2.393l-.545-.585-.006.006.551.58zm5.418-5.35l-.564-.567-.002.003.566.565zm.602-.646l.58.55 1.025-1.08-1.467-.258-.138.788zm-.57-.097l-.119.791.016.002.016.002.088-.795zm-8.362-1.212l-.093.794h.001l.092-.794zM17.815 7.79l.754-.27-.002-.004-.752.274zM14.172-.36c-1.35 2.68-2.619 5.17-3.873 7.679l1.431.715c1.252-2.502 2.52-4.99 3.871-7.675l-1.429-.72zm-3.877 7.686C9.92 8.1 9.364 8.505 8.55 8.614l.21 1.586c1.367-.183 2.373-.94 2.973-2.172l-1.438-.7zM8.542 8.615l-6.036.873.229 1.584 6.036-.873-.229-1.584zm-6.045.874c-.83.13-1.664.26-2.629.422l.266 1.578c.955-.161 1.78-.29 2.61-.419l-.247-1.58zm-3.074 1.764c.304.318.49.52.698.726l1.127-1.135c-.183-.182-.355-.369-.669-.697l-1.156 1.106zm.698.726c1.907 1.894 3.82 3.747 5.666 5.66l1.151-1.11c-1.864-1.933-3.79-3.798-5.69-5.685L.12 11.979zm5.664 5.659c.097.101.21.264.29.436.086.18.059.312.083.262l1.58.245c.069-.438-.07-.868-.209-1.173a3.695 3.695 0 0 0-.589-.877l-1.155 1.107zm.373.699c-.322 2.093-.775 4.196-1.183 6.305l1.571.304c.405-2.093.864-4.226 1.193-6.366l-1.581-.243zm-1.182 6.302c-.198.998-.361 1.99-.572 3.13l1.574.29c.213-1.155.374-2.136.567-3.11l-1.57-.31zm.592 3.98c2.778-1.485 5.407-2.847 7.975-4.31l-.792-1.39c-2.54 1.447-5.15 2.8-7.937 4.289l.754 1.411zm7.975-4.31c.353-.208.546-.265.822-.253.274-.004.475.067.823.26l.766-1.404c-.481-.259-1.053-.439-1.564-.455-.51 0-1.113.169-1.64.462l.793 1.39zm1.646.008c2.378 1.294 4.772 2.572 7.146 3.849l.758-1.41c-2.377-1.277-4.767-2.553-7.14-3.845l-.764 1.406zm7.15 3.85c.263.14.503.25.805.416l.767-1.404c-.349-.19-.598-.305-.823-.425l-.749 1.414zm1.978-.411c-.041-.245-.043-.407-.087-.647l-1.568.316c.02.083.019.212.075.582l1.58-.251zm-.084-.634c-.505-2.735-1.026-5.45-1.53-8.163l-1.573.292c.505 2.717 1.025 5.432 1.53 8.161l1.573-.29zm-1.53-8.167c-.08-.39-.081-.617.013-.897.08-.288.206-.479.516-.765l-1.102-1.16c-.438.424-.784.96-.944 1.457-.145.503-.156 1.117-.055 1.665l1.571-.3zm.524-1.657c1.869-1.743 3.653-3.58 5.439-5.37l-1.133-1.13c-1.794 1.797-3.557 3.614-5.397 5.33l1.09 1.17zm5.436-5.368c.204-.204.375-.407.619-.664l-1.162-1.1c-.276.292-.43.477-.585.629l1.128 1.135zm.176-2.002c-.26-.045-.43-.082-.62-.104l-.175 1.59c.104.01.225.038.519.09l.276-1.576zm-.588-.1c-2.775-.42-5.571-.89-8.39-1.216l-.184 1.59c2.778.32 5.546.787 8.335 1.208l.24-1.582zm-8.39-1.216c-.436-.05-.673-.17-.828-.306-.214-.173-.319-.373-.463-.785l-1.507.54c.197.54.516 1.084.916 1.449.459.401 1.028.613 1.697.691l.186-1.589zm-1.293-1.095c-.93-2.562-1.908-5.071-2.931-7.798L14.138.28c1.027 2.736 2.001 5.238 2.926 7.783l1.503-.547z"/></defs></svg>