<svg width="26" height="18" viewBox="0 0 26 18" version="1.1" xmlns="http://www.w3.org/2000/svg" xmlns:xlink="http://www.w3.org/1999/xlink">
<title>Group</title>
<desc>Created using Figma</desc>
<g id="Canvas" transform="translate(-13096 -11901)">
<g id="Group">
<g id="Vector">
<mask id="mask0_outline_ins">
<use xlink:href="#path0_fill" fill="white" transform="translate(13096 11901)"/>
</mask>
<g mask="url(#mask0_outline_ins)">
<use xlink:href="#path1_stroke_2x" transform="translate(13096 11901)" fill="#DEDEDE"/>
</g>
</g>
<g id="Vector">
<mask id="mask1_outline_ins">
<use xlink:href="#path0_fill" fill="white" transform="translate(13109.8 11901)"/>
</mask>
<g mask="url(#mask1_outline_ins)">
<use xlink:href="#path1_stroke_2x" transform="translate(13109.8 11901)" fill="#DEDEDE"/>
</g>
</g>
</g>
</g>
<defs>
<path id="path0_fill" d="M 7.52365 5.92081C 8.47306 5.99479 9.63042 6.07031 10.3284 6.74956C 11.4009 7.78524 12.0322 9.15719 12.1553 10.9192C 12.3606 13.8379 10.3859 16.3917 8.66672 17.1046C 6.20338 18.1268 1.23682 17.7624 0.0946636 11.8416C -0.477652 6.74956 1.60737 4.17948 4.66601 1.9736C 5.9336 1.05897 9.80977 0 11.6524 0.0108746C 11.9295 -0.0429272 12.1143 0.105028 12.1759 0.407663C 12.2375 0.730474 12.0886 0.912056 11.8936 1.03983C 10.9545 1.64511 10.0564 2.34453 9.28658 3.27934C 8.89142 3.76355 8.66671 4.17563 8.19861 4.87994C 8.06005 5.08842 7.64682 5.598 7.52365 5.92081Z"/>
<path id="path1_stroke_2x" d="M 7.52365 5.92081L 6.21563 5.42175L 5.54816 7.17113L 7.4149 7.31658L 7.52365 5.92081ZM 10.3284 6.74956L 9.35194 7.75286L 9.35589 7.75667L 10.3284 6.74956ZM 12.1553 10.9192L 10.7588 11.0168L 10.7588 11.0174L 12.1553 10.9192ZM 8.66672 17.1046L 8.13047 15.8113L 8.13011 15.8115L 8.66672 17.1046ZM 0.0946636 11.8416L -1.29658 11.998L -1.29043 12.0527L -1.27999 12.1068L 0.0946636 11.8416ZM 4.66601 1.9736L 5.48493 3.10911L 5.4852 3.10892L 4.66601 1.9736ZM 11.6524 0.0108746L 11.6442 1.41085L 11.783 1.41167L 11.9192 1.38521L 11.6524 0.0108746ZM 12.1759 0.407663L 13.5511 0.145313L 13.5495 0.136895L 13.5478 0.128498L 12.1759 0.407663ZM 11.8936 1.03983L 12.6521 2.21664L 12.6609 2.21085L 11.8936 1.03983ZM 9.28658 3.27934L 8.20584 2.38937L 8.20193 2.39417L 9.28658 3.27934ZM 8.19861 4.87994L 9.36458 5.65487L 8.19861 4.87994ZM 7.4149 7.31658C 7.91757 7.35575 8.33374 7.38751 8.7088 7.47311C 9.07892 7.55758 9.26164 7.66496 9.35195 7.75285L 11.3048 5.74626C 10.6972 5.1549 9.95222 4.8849 9.33182 4.74331C 8.71636 4.60284 8.07915 4.55985 7.63241 4.52505L 7.4149 7.31658ZM 9.35589 7.75667C 10.1532 8.52651 10.657 9.56149 10.7588 11.0168L 13.5519 10.8216C 13.4073 8.75288 12.6487 7.04397 11.3008 5.74244L 9.35589 7.75667ZM 10.7588 11.0174C 10.8372 12.1327 10.4998 13.2105 9.9456 14.097C 9.37828 15.0044 8.66061 15.5915 8.13047 15.8113L 9.20296 18.3978C 10.392 17.9048 11.5213 16.8585 12.3198 15.5812C 13.1315 14.2829 13.6787 12.6245 13.5519 10.821L 10.7588 11.0174ZM 8.13011 15.8115C 7.20231 16.1965 5.73325 16.3287 4.42259 15.784C 3.20345 15.2772 1.95979 14.119 1.46932 11.5765L -1.27999 12.1068C -0.628301 15.4851 1.1824 17.4694 3.34791 18.3695C 5.4219 19.2316 7.66779 19.0349 9.20332 18.3977L 8.13011 15.8115ZM 1.4859 11.6853C 1.22528 9.36642 1.57872 7.74599 2.25309 6.48587C 2.9405 5.20136 4.03199 4.15697 5.48493 3.10911L 3.84709 0.8381C 2.24139 1.99612 0.761044 3.3397 -0.215629 5.16472C -1.20536 7.01412 -1.60827 9.22476 -1.29658 11.998L 1.4859 11.6853ZM 5.4852 3.10892C 5.89985 2.80973 6.97177 2.36866 8.31877 1.99396C 9.63475 1.62789 10.9169 1.40656 11.6442 1.41085L 11.6607 -1.3891C 10.5452 -1.39568 8.96803 -1.09296 7.56837 -0.703611C 6.19973 -0.322889 4.69977 0.222852 3.84683 0.838292L 5.4852 3.10892ZM 11.9192 1.38521C 11.7511 1.41786 11.4355 1.41149 11.1414 1.1853C 10.8774 0.982257 10.8152 0.742081 10.804 0.686829L 13.5478 0.128498C 13.4749 -0.22939 13.2896 -0.694861 12.8485 -1.03409C 12.3774 -1.39647 11.8309 -1.44992 11.3856 -1.36346L 11.9192 1.38521ZM 10.8007 0.670013C 10.7797 0.559876 10.7802 0.356034 10.8938 0.141518C 10.9921 -0.0439438 11.1168 -0.124951 11.1263 -0.131179L 12.6609 2.21085C 12.8654 2.07684 13.1621 1.84115 13.3681 1.45225C 13.5895 1.0343 13.6337 0.578261 13.5511 0.145313L 10.8007 0.670013ZM 11.1352 -0.13694C 10.1256 0.513741 9.09963 1.30401 8.20585 2.38938L 10.3673 4.16929C 11.0131 3.38505 11.7833 2.77647 12.652 2.21661L 11.1352 -0.13694ZM 8.20193 2.39417C 7.74987 2.94811 7.43144 3.50497 7.03264 4.10501L 9.36458 5.65487C 9.90198 4.8463 10.033 4.579 10.3712 4.1645L 8.20193 2.39417ZM 7.03264 4.10501C 6.95997 4.21436 6.91935 4.25414 6.70943 4.55324C 6.57952 4.73833 6.34714 5.07706 6.21563 5.42175L 8.83168 6.41988C 8.81943 6.45198 8.8201 6.44114 8.86005 6.37498C 8.89512 6.3169 8.94256 6.24544 9.00129 6.16177C 9.05971 6.07853 9.11953 5.99695 9.18152 5.91231C 9.23456 5.83988 9.30828 5.73957 9.36458 5.65487L 7.03264 4.10501Z"/>
</defs>
</svg>
