<svg width="61" height="52" viewBox="0 0 61 52" version="1.1" xmlns="http://www.w3.org/2000/svg" xmlns:xlink="http://www.w3.org/1999/xlink">
<title>Page 1</title>
<desc>Created using Figma</desc>
<g id="Canvas" transform="translate(-13564 -18694)">
<g id="Page 1">
<g id="icon 61 warning">
<g id="warning">
<use xlink:href="#path0_fill" transform="translate(13564 18694)" fill="#BDBDBD"/>
</g>
</g>
</g>
</g>
<defs>
<path id="path0_fill" fill-rule="evenodd" d="M 26.7722 2.50311C 28.8321 -0.838352 32.1769 -0.830389 34.232 2.50311L 59.7666 43.923C 62.5166 48.3838 60.5134 52 55.2949 52L 5.70922 52C 0.489569 52 -1.52135 48.3982 1.23756 43.923L 26.7722 2.50311ZM 28.9716 3.39216C 29.7939 2.05983 31.1298 2.06403 31.9496 3.39216L 58.0055 45.6039C 59.3768 47.8254 58.3511 49.6262 55.7761 49.6262L 5.14703 49.6262C 2.54449 49.6262 1.53896 47.8372 2.9174 45.6039L 28.9716 3.39216ZM 30.503 16.3935C 29.1954 16.3935 28.1354 17.4689 28.1354 18.7602L 28.1354 33.0169C 28.1354 34.324 29.1863 35.3836 30.503 35.3836C 31.8105 35.3836 32.8705 34.3082 32.8705 33.0169L 32.8705 18.7602C 32.8705 17.4531 31.8197 16.3935 30.503 16.3935ZM 30.503 44.8787C 31.8105 44.8787 32.8705 43.8159 32.8705 42.5049C 32.8705 41.1939 31.8105 40.1312 30.503 40.1312C 29.1954 40.1312 28.1354 41.1939 28.1354 42.5049C 28.1354 43.8159 29.1954 44.8787 30.503 44.8787Z"/>
</defs>
</svg>
