<svg width="40" height="40" viewBox="0 0 40 40" version="1.1" xmlns="http://www.w3.org/2000/svg" xmlns:xlink="http://www.w3.org/1999/xlink">
<title>Group 3</title>
<desc>Created using Figma</desc>
<g id="Canvas" transform="translate(-17614 -11959)">
<g id="Group 3">
<g id="Ellipse">
<mask id="mask0_outline_ins">
<use xlink:href="#path0_fill" fill="white" transform="translate(17614 11959)"/>
</mask>
<g mask="url(#mask0_outline_ins)">
<use xlink:href="#path1_stroke_2x" transform="translate(17614 11959)" fill="#222222"/>
</g>
</g>
<g id="Group">
<g id="Vector">
<use xlink:href="#path2_stroke" transform="matrix(0.56035 0.828256 -0.828256 0.56035 17636 11968.5)" fill="#222222"/>
</g>
<g id="Vector">
<use xlink:href="#path3_stroke" transform="matrix(0.56035 0.828256 -0.828256 0.56035 17640.6 11974.5)" fill="#222222"/>
</g>
<g id="Vector">
<use xlink:href="#path4_stroke" transform="matrix(0.56035 0.828256 -0.828256 0.56035 17637.9 11969.7)" fill="#222222"/>
</g>
<g id="Vector">
<use xlink:href="#path5_stroke" transform="matrix(0.56035 0.828256 -0.828256 0.56035 17633 11982.6)" fill="#222222"/>
</g>
</g>
</g>
</g>
<defs>
<path id="path0_fill" d="M 40 20C 40 31.0457 31.0457 40 20 40C 8.9543 40 0 31.0457 0 20C 0 8.9543 8.9543 0 20 0C 31.0457 0 40 8.9543 40 20Z"/>
<path id="path1_stroke_2x" d="M 38.6 20C 38.6 30.2725 30.2725 38.6 20 38.6L 20 41.4C 31.8189 41.4 41.4 31.8189 41.4 20L 38.6 20ZM 20 38.6C 9.7275 38.6 1.4 30.2725 1.4 20L -1.4 20C -1.4 31.8189 8.18111 41.4 20 41.4L 20 38.6ZM 1.4 20C 1.4 9.7275 9.7275 1.4 20 1.4L 20 -1.4C 8.18111 -1.4 -1.4 8.18111 -1.4 20L 1.4 20ZM 20 1.4C 30.2725 1.4 38.6 9.7275 38.6 20L 41.4 20C 41.4 8.18111 31.8189 -1.4 20 -1.4L 20 1.4Z"/>
<path id="path2_stroke" d="M 5.15206 0.613541C 5.49091 0.495003 5.66951 0.124217 5.55097 -0.214633C 5.43243 -0.553482 5.06165 -0.73208 4.7228 -0.613541L 5.15206 0.613541ZM 7.48532 14.7639C 7.8443 14.7639 8.13532 14.4729 8.13532 14.1139C 8.13532 13.7549 7.8443 13.4639 7.48532 13.4639L 7.48532 14.7639ZM 4.7228 -0.613541C 1.59962 0.479027 -0.65 3.39946 -0.65 6.84015L 0.65 6.84015C 0.65 3.98623 2.5173 1.53525 5.15206 0.613541L 4.7228 -0.613541ZM -0.65 6.84015C -0.65 11.2311 3.0127 14.7639 7.48532 14.7639L 7.48532 13.4639C 3.69529 13.4639 0.65 10.4783 0.65 6.84015L -0.65 6.84015Z"/>
<path id="path3_stroke" d="M 0 -0.65C -0.358985 -0.65 -0.65 -0.358985 -0.65 -2.66801e-08C -0.65 0.358985 -0.358985 0.65 0 0.65L 0 -0.65ZM 2.29461 13.5128C 1.95489 13.6288 1.77356 13.9983 1.88959 14.338C 2.00562 14.6777 2.37508 14.8591 2.7148 14.743L 2.29461 13.5128ZM 0 0.65C 3.79003 0.65 6.83532 3.63564 6.83532 7.27378L 8.13532 7.27378C 8.13532 2.88279 4.47261 -0.65 0 -0.65L 0 0.65ZM 6.83532 7.27378C 6.83532 10.1411 4.95469 12.6042 2.29461 13.5128L 2.7148 14.743C 5.87023 13.6653 8.13532 10.729 8.13532 7.27378L 6.83532 7.27378Z"/>
<path id="path4_stroke" d="M 0.0972595 -0.642682C -0.257684 -0.696397 -0.588967 -0.452203 -0.642682 -0.0972595C -0.696397 0.257684 -0.452203 0.588967 -0.0972595 0.642682L 0.0972595 -0.642682ZM 2.95782 0.447617L 3.60773 0.458175L 3.61696 -0.110033L 3.05507 -0.195065L 2.95782 0.447617ZM 2.26104 3.32154C 2.25521 3.68048 2.54146 3.97618 2.9004 3.98201C 3.25934 3.98784 3.55504 3.70159 3.56087 3.34265L 2.26104 3.32154ZM -0.0972595 0.642682L 2.86056 1.0903L 3.05507 -0.195065L 0.0972595 -0.642682L -0.0972595 0.642682ZM 2.3079 0.437059L 2.26104 3.32154L 3.56087 3.34265L 3.60773 0.458175L 2.3079 0.437059Z"/>
<path id="path5_stroke" d="M 3.16892 4.79566C 3.51716 4.88285 3.87014 4.67124 3.95734 4.32301C 4.04454 3.97477 3.83293 3.62178 3.48469 3.53459L 3.16892 4.79566ZM 0 3.3321L -0.630651 3.17468L -0.787946 3.80486L -0.157884 3.96263L 0 3.3321ZM 1.46235 0.157413C 1.54929 -0.190887 1.33741 -0.543715 0.989115 -0.630651C 0.640815 -0.717588 0.287987 -0.505712 0.201051 -0.157413L 1.46235 0.157413ZM 3.48469 3.53459L 0.157884 2.70156L -0.157884 3.96263L 3.16892 4.79566L 3.48469 3.53459ZM 0.630651 3.48951L 1.46235 0.157413L 0.201051 -0.157413L -0.630651 3.17468L 0.630651 3.48951Z"/>
</defs>
</svg>
