<svg width="40" height="40" viewBox="0 0 40 40" version="1.1" xmlns="http://www.w3.org/2000/svg" xmlns:xlink="http://www.w3.org/1999/xlink">
<title>Group 3</title>
<desc>Created using Figma</desc>
<g id="Canvas" transform="translate(-17614 -12104)">
<g id="Group 3">
<g id="Ellipse">
<mask id="mask0_outline_ins">
<use xlink:href="#path0_fill" fill="white" transform="translate(17614 12104)"/>
</mask>
<g mask="url(#mask0_outline_ins)">
<use xlink:href="#path1_stroke_2x" transform="translate(17614 12104)" fill="#D41122"/>
</g>
</g>
<g id="Group">
<g id="Vector">
<use xlink:href="#path2_fill" transform="translate(17630 12131.6)" fill="#D41122"/>
</g>
<g id="Vector">
<use xlink:href="#path3_fill" transform="translate(17631.2 12129.2)" fill="#D41122"/>
</g>
<g id="Vector">
<use xlink:href="#path4_fill" transform="translate(17626 12116)" fill="#D41122"/>
</g>
</g>
</g>
</g>
<defs>
<path id="path0_fill" d="M 40 20C 40 31.0457 31.0457 40 20 40C 8.9543 40 0 31.0457 0 20C 0 8.9543 8.9543 0 20 0C 31.0457 0 40 8.9543 40 20Z"/>
<path id="path1_stroke_2x" d="M 38.6 20C 38.6 30.2725 30.2725 38.6 20 38.6L 20 41.4C 31.8189 41.4 41.4 31.8189 41.4 20L 38.6 20ZM 20 38.6C 9.7275 38.6 1.4 30.2725 1.4 20L -1.4 20C -1.4 31.8189 8.18111 41.4 20 41.4L 20 38.6ZM 1.4 20C 1.4 9.7275 9.7275 1.4 20 1.4L 20 -1.4C 8.18111 -1.4 -1.4 8.18111 -1.4 20L 1.4 20ZM 20 1.4C 30.2725 1.4 38.6 9.7275 38.6 20L 41.4 20C 41.4 8.18111 31.8189 -1.4 20 -1.4L 20 1.4Z"/>
<path id="path2_fill" d="M 7.27273 0L 0.775758 0C 0.387879 0 -9.24775e-08 0.283334 -9.24775e-08 0.661112C -9.24775e-08 1.03889 0.290909 1.41667 0.775758 1.41667L 7.3697 1.41667C 7.75758 1.41667 8.14545 1.13333 8.14545 0.755555C 8.14545 0.377777 7.75758 0 7.27273 0Z"/>
<path id="path3_fill" d="M 4.75151 1.41667C 5.13939 1.41667 5.52727 1.13333 5.52727 0.755556C 5.52727 0.377778 5.13939 0 4.75151 0L 0.775757 0C 0.387879 0 9.24775e-08 0.283333 9.24775e-08 0.661111C 9.24775e-08 1.03889 0.387879 1.32222 0.775757 1.32222L 4.75151 1.32222L 4.75151 1.41667Z"/>
<path id="path4_fill" d="M 15.6121 4.06111C 15.3212 3.49444 14.9333 2.92778 14.4485 2.55C 14.1576 2.26667 13.6727 2.26667 13.3818 2.55C 13.3818 1.98333 13.3818 1.32222 13.3818 0.661111C 13.3818 0.283333 12.9939 0 12.6061 0L 3.39394 0C 3.00606 0 2.61818 0.283333 2.61818 0.661111C 2.61818 1.32222 2.61818 1.88889 2.61818 2.55C 2.32727 2.26667 1.84242 2.26667 1.55152 2.55C 1.06667 3.02222 0.678788 3.49444 0.387879 4.06111C 0.0969697 4.62778 0 5.28889 0 5.95C 0 8.40555 2.13333 10.4833 4.94545 10.6722C 5.23636 11.1444 5.62424 11.7111 6.10909 12.1833C 6.4 12.4667 6.88485 12.5611 7.17576 12.2778C 7.3697 12.1833 7.46667 11.9944 7.46667 11.8056C 7.46667 11.6167 7.46667 11.4278 7.27273 11.2389C 5.72121 9.44444 4.26667 6.98889 4.1697 1.41667L 11.8303 1.41667C 11.7333 6.98889 10.2788 9.44444 8.72727 11.3333C 8.6303 11.5222 8.53333 11.7111 8.53333 11.9C 8.53333 12.0889 8.6303 12.2778 8.82424 12.3722C 8.92121 12.4667 9.11515 12.4667 9.30909 12.4667C 9.50303 12.4667 9.79394 12.3722 9.89091 12.1833C 10.2788 11.7111 10.6667 11.1444 11.0545 10.6722C 13.8667 10.4833 16 8.40555 16 5.95C 16 5.28889 15.8061 4.62778 15.6121 4.06111ZM 13.2848 3.4C 13.2848 3.49444 13.2848 3.49444 13.2848 3.4C 13.7697 3.77778 13.9636 4.15556 14.1576 4.62778C 14.3515 5.00556 14.4485 5.47778 14.4485 5.95C 14.4485 7.36667 13.3818 8.68889 11.9273 9.16111C 12.6061 7.46111 13.0909 5.66667 13.2848 3.4ZM 2.71515 3.4C 2.90909 5.66667 3.39394 7.46111 4.07273 9.06667C 2.61818 8.59444 1.55152 7.36667 1.55152 5.95C 1.55152 5.47778 1.64848 5.1 1.84242 4.62778C 2.03636 4.25 2.32727 3.87222 2.71515 3.4C 2.71515 3.49444 2.71515 3.49444 2.71515 3.4Z"/>
</defs>
</svg>
