<svg width="40" height="40" viewBox="0 0 40 40" version="1.1" xmlns="http://www.w3.org/2000/svg" xmlns:xlink="http://www.w3.org/1999/xlink">
<title>Group 3</title>
<desc>Created using Figma</desc>
<g id="Canvas" transform="translate(-17614 -12241)">
<g id="Group 3">
<g id="Group">
<g id="Vector">
<mask id="mask0_outline_ins">
<use xlink:href="#path0_fill" fill="white" transform="translate(17624 12255)"/>
</mask>
<g mask="url(#mask0_outline_ins)">
<use xlink:href="#path1_stroke_2x" transform="translate(17624 12255)" fill="#DEDEDE"/>
</g>
</g>
<g id="Vector">
<mask id="mask1_outline_ins">
<use xlink:href="#path0_fill" fill="white" transform="translate(17634.1 12255)"/>
</mask>
<g mask="url(#mask1_outline_ins)">
<use xlink:href="#path1_stroke_2x" transform="translate(17634.1 12255)" fill="#DEDEDE"/>
</g>
</g>
</g>
<g id="Ellipse">
<mask id="mask2_outline_ins">
<use xlink:href="#path2_fill" fill="white" transform="translate(17614 12241)"/>
</mask>
<g mask="url(#mask2_outline_ins)">
<use xlink:href="#path3_stroke_2x" transform="translate(17614 12241)" fill="#DEDEDE"/>
</g>
</g>
</g>
</g>
<defs>
<path id="path0_fill" d="M 5.49805 4.36271C 6.19185 4.41722 7.03762 4.47286 7.54766 4.97336C 8.33146 5.73649 8.79274 6.7474 8.88275 8.04573C 9.03276 10.1964 7.58971 12.0781 6.33337 12.6034C 4.53324 13.3566 0.903832 13.0881 0.0691772 8.72541C -0.349053 4.97336 1.17462 3.07962 3.40978 1.45424C 4.33609 0.780296 7.16868 0 8.51523 0.0080129C 8.71774 -0.0316306 8.85275 0.0773889 8.89775 0.300383C 8.94276 0.538244 8.834 0.672041 8.69149 0.766194C 8.00519 1.21218 7.34889 1.72755 6.78635 2.41635C 6.49758 2.77314 6.33337 3.07678 5.99129 3.59575C 5.89003 3.74937 5.58806 4.12485 5.49805 4.36271Z"/>
<path id="path1_stroke_2x" d="M 5.49805 4.36271L 4.18866 3.86723L 3.52834 5.61227L 5.3884 5.7584L 5.49805 4.36271ZM 7.54766 4.97336L 6.56709 5.97261L 6.57102 5.97644L 7.54766 4.97336ZM 8.88275 8.04573L 7.4861 8.14255L 7.48614 8.14314L 8.88275 8.04573ZM 6.33337 12.6034L 5.79333 11.3117L 5.79297 11.3119L 6.33337 12.6034ZM 0.0691772 8.72541L -1.32221 8.8805L -1.31615 8.93481L -1.30588 8.98848L 0.0691772 8.72541ZM 3.40978 1.45424L 4.23315 2.58651L 4.23342 2.58632L 3.40978 1.45424ZM 8.51523 0.0080129L 8.50689 1.40799L 8.64684 1.40882L 8.78418 1.38194L 8.51523 0.0080129ZM 8.89775 0.300383L 10.2733 0.0401208L 10.2718 0.0317647L 10.2701 0.0234285L 8.89775 0.300383ZM 8.69149 0.766194L 9.45437 1.94013L 9.46322 1.93428L 8.69149 0.766194ZM 6.78635 2.41635L 5.70201 1.53078L 5.69812 1.53559L 6.78635 2.41635ZM 5.99129 3.59575L 7.1602 4.36623L 5.99129 3.59575ZM 5.3884 5.7584C 5.76347 5.78787 6.03697 5.80971 6.2778 5.86513C 6.51304 5.91926 6.57031 5.97576 6.56709 5.97261L 8.52822 3.97411C 8.01496 3.47045 7.39434 3.24889 6.90573 3.13645C 6.42272 3.02529 5.92644 2.99205 5.60771 2.96701L 5.3884 5.7584ZM 6.57102 5.97644C 7.0809 6.47288 7.41714 7.14775 7.4861 8.14255L 10.2794 7.9489C 10.1684 6.34705 9.58202 5.0001 8.52429 3.97027L 6.57102 5.97644ZM 7.48614 8.14314C 7.53736 8.87744 7.31712 9.59709 6.94558 10.1963C 6.56072 10.8171 6.09081 11.1873 5.79333 11.3117L 6.87341 13.895C 7.83227 13.4941 8.71206 12.6609 9.3253 11.6718C 9.95187 10.6612 10.3782 9.36467 10.2794 7.94831L 7.48614 8.14314ZM 5.79297 11.3119C 5.19865 11.5606 4.23287 11.649 3.38036 11.2917C 2.61893 10.9726 1.78246 10.2302 1.44424 8.46234L -1.30588 8.98848C -0.809448 11.5833 0.586108 13.1566 2.29808 13.8741C 3.91897 14.5534 5.66796 14.3994 6.87377 13.8949L 5.79297 11.3119ZM 1.46056 8.57032C 1.27653 6.91934 1.52876 5.80087 1.98107 4.94866C 2.44584 4.07298 3.19241 3.34333 4.23315 2.58651L 2.5864 0.321959C 1.39199 1.19052 0.259139 2.22044 -0.492163 3.63599C -1.25592 5.075 -1.55641 6.77942 -1.32221 8.8805L 1.46056 8.57032ZM 4.23342 2.58632C 4.47709 2.40904 5.20202 2.09853 6.18301 1.82337C 7.13322 1.55685 8.02934 1.40515 8.50689 1.40799L 8.52356 -1.39196C 7.65456 -1.39713 6.46112 -1.16269 5.42682 -0.872587C 4.4233 -0.591111 3.26878 -0.174505 2.58613 0.322152L 4.23342 2.58632ZM 8.78418 1.38194C 8.57552 1.42278 8.22605 1.409 7.90756 1.16198C 7.62093 0.939683 7.5441 0.669873 7.52542 0.577338L 10.2701 0.0234285C 10.2064 -0.2921 10.0396 -0.727918 9.62355 -1.05056C 9.17568 -1.39793 8.65745 -1.4464 8.24627 -1.36591L 8.78418 1.38194ZM 7.52216 0.560646C 7.49374 0.410464 7.49955 0.175925 7.62558 -0.0639593C 7.73688 -0.275811 7.8834 -0.377876 7.91976 -0.401895L 9.46322 1.93428C 9.64208 1.81611 9.91424 1.60007 10.1043 1.23832C 10.3091 0.848532 10.3468 0.428164 10.2733 0.0401208L 7.52216 0.560646ZM 7.92863 -0.40771C 7.17163 0.0842267 6.38786 0.691006 5.70202 1.53079L 7.87068 3.30192C 8.30992 2.76409 8.83875 2.34014 9.45434 1.9401L 7.92863 -0.40771ZM 5.69812 1.53559C 5.35287 1.96216 5.09574 2.41054 4.82238 2.82526L 7.1602 4.36623C 7.57099 3.74302 7.64229 3.58413 7.87458 3.29712L 5.69812 1.53559ZM 4.82238 2.82526C 4.82362 2.82338 4.81927 2.82998 4.80457 2.8506C 4.79068 2.8701 4.77386 2.89332 4.7514 2.92423C 4.70927 2.98224 4.65061 3.06277 4.59141 3.14783C 4.53249 3.23247 4.46324 3.3355 4.39776 3.44484C 4.33708 3.54617 4.25365 3.69549 4.18866 3.86723L 6.80745 4.85818C 6.78746 4.91099 6.77553 4.92418 6.79995 4.88341C 6.81957 4.85065 6.84902 4.8056 6.8895 4.74744C 6.92969 4.6897 6.97114 4.63269 7.01692 4.56966C 7.05383 4.51884 7.11342 4.4372 7.1602 4.36623L 4.82238 2.82526Z"/>
<path id="path2_fill" d="M 40 20C 40 31.0457 31.0457 40 20 40C 8.9543 40 0 31.0457 0 20C 0 8.9543 8.9543 0 20 0C 31.0457 0 40 8.9543 40 20Z"/>
<path id="path3_stroke_2x" d="M 38.6 20C 38.6 30.2725 30.2725 38.6 20 38.6L 20 41.4C 31.8189 41.4 41.4 31.8189 41.4 20L 38.6 20ZM 20 38.6C 9.7275 38.6 1.4 30.2725 1.4 20L -1.4 20C -1.4 31.8189 8.18111 41.4 20 41.4L 20 38.6ZM 1.4 20C 1.4 9.7275 9.7275 1.4 20 1.4L 20 -1.4C 8.18111 -1.4 -1.4 8.18111 -1.4 20L 1.4 20ZM 20 1.4C 30.2725 1.4 38.6 9.7275 38.6 20L 41.4 20C 41.4 8.18111 31.8189 -1.4 20 -1.4L 20 1.4Z"/>
</defs>
</svg>
