<svg width="15" height="19" viewBox="0 0 15 19" version="1.1" xmlns="http://www.w3.org/2000/svg" xmlns:xlink="http://www.w3.org/1999/xlink">
<title>Group</title>
<desc>Created using Figma</desc>
<g id="Canvas" transform="translate(-17809 -11969)">
<g id="Group">
<g id="Vector">
<use xlink:href="#path0_stroke" transform="matrix(0.56035 0.828256 -0.828256 0.56035 17817.8 11969.4)" fill="#E41B2D"/>
</g>
<g id="Vector">
<use xlink:href="#path1_stroke" transform="matrix(0.56035 0.828256 -0.828256 0.56035 17821.9 11974.8)" fill="#E41B2D"/>
</g>
<g id="Vector">
<use xlink:href="#path2_stroke" transform="matrix(0.56035 0.828256 -0.828256 0.56035 17819.5 11970.6)" fill="#E41B2D"/>
</g>
<g id="Vector">
<use xlink:href="#path3_stroke" transform="matrix(0.56035 0.828256 -0.828256 0.56035 17815.1 11982.1)" fill="#E41B2D"/>
</g>
</g>
</g>
<defs>
<path id="path0_stroke" d="M 4.65465 0.613541C 4.9935 0.495003 5.1721 0.124217 5.05356 -0.214633C 4.93502 -0.553482 4.56424 -0.73208 4.22539 -0.613541L 4.65465 0.613541ZM 6.73122 13.342C 7.09021 13.342 7.38122 13.051 7.38122 12.692C 7.38122 12.3331 7.09021 12.042 6.73122 12.042L 6.73122 13.342ZM 4.22539 -0.613541C 1.39225 0.377565 -0.65 3.02743 -0.65 6.15105L 0.65 6.15105C 0.65 3.6142 2.30993 1.43379 4.65465 0.613541L 4.22539 -0.613541ZM -0.65 6.15105C -0.65 10.1376 2.67481 13.342 6.73122 13.342L 6.73122 12.042C 3.3574 12.042 0.65 9.38475 0.65 6.15105L -0.65 6.15105Z"/>
<path id="path1_stroke" d="M 0 -0.65C -0.358985 -0.65 -0.65 -0.358985 -0.65 -2.39922e-08C -0.65 0.358985 -0.358985 0.65 0 0.65L 0 -0.65ZM 2.04228 12.0895C 1.70256 12.2055 1.52123 12.575 1.63726 12.9147C 1.75329 13.2544 2.12275 13.4358 2.46246 13.3197L 2.04228 12.0895ZM 0 0.65C 3.37382 0.65 6.08122 3.30729 6.08122 6.54099L 7.38122 6.54099C 7.38122 2.55444 4.05641 -0.65 0 -0.65L 0 0.65ZM 6.08122 6.54099C 6.08122 9.08985 4.40942 11.281 2.04228 12.0895L 2.46246 13.3197C 5.32496 12.342 7.38122 9.67778 7.38122 6.54099L 6.08122 6.54099Z"/>
<path id="path2_stroke" d="M 0.0972595 -0.642682C -0.257684 -0.696397 -0.588967 -0.452203 -0.642682 -0.0972595C -0.696397 0.257684 -0.452203 0.588967 -0.0972595 0.642682L 0.0972595 -0.642682ZM 2.65984 0.402523L 3.30975 0.41308L 3.31898 -0.155127L 2.75709 -0.24016L 2.65984 0.402523ZM 1.96778 2.98585C 1.96195 3.34479 2.2482 3.64049 2.60714 3.64633C 2.96608 3.65216 3.26178 3.36591 3.26761 3.00697L 1.96778 2.98585ZM -0.0972595 0.642682L 2.56258 1.0452L 2.75709 -0.24016L 0.0972595 -0.642682L -0.0972595 0.642682ZM 2.00992 0.391965L 1.96778 2.98585L 3.26761 3.00697L 3.30975 0.41308L 2.00992 0.391965Z"/>
<path id="path3_stroke" d="M 2.83377 4.37605C 3.182 4.46324 3.53499 4.25163 3.62219 3.9034C 3.70939 3.55516 3.49777 3.20218 3.14954 3.11498L 2.83377 4.37605ZM 0 2.99641L -0.630651 2.839L -0.787946 3.46918L -0.157884 3.62694L 0 2.99641ZM 1.37857 0.157413C 1.4655 -0.190887 1.25363 -0.543715 0.905326 -0.630651C 0.557027 -0.717588 0.204199 -0.505712 0.117262 -0.157413L 1.37857 0.157413ZM 3.14954 3.11498L 0.157884 2.36588L -0.157884 3.62694L 2.83377 4.37605L 3.14954 3.11498ZM 0.630651 3.15382L 1.37857 0.157413L 0.117262 -0.157413L -0.630651 2.839L 0.630651 3.15382Z"/>
</defs>
</svg>
