<svg width="26" height="32" viewBox="0 0 26 32" version="1.1" xmlns="http://www.w3.org/2000/svg" xmlns:xlink="http://www.w3.org/1999/xlink">
<title>Group</title>
<desc>Created using Figma</desc>
<g id="Canvas" transform="translate(-30589 -11706)">
<g id="Group">
<g id="Vector">
<use xlink:href="#path0_stroke" transform="matrix(0.56035 0.828256 -0.828256 0.56035 30604.5 11705.6)" fill="#D41122"/>
</g>
<g id="Vector">
<use xlink:href="#path1_stroke" transform="matrix(0.56035 0.828256 -0.828256 0.56035 30611.8 11715.2)" fill="#D41122"/>
</g>
<g id="Vector">
<use xlink:href="#path2_stroke" transform="matrix(0.56035 0.828256 -0.828256 0.56035 30607.6 11707.6)" fill="#D41122"/>
</g>
<g id="Vector">
<use xlink:href="#path3_stroke" transform="matrix(0.56035 0.828256 -0.828256 0.56035 30599.7 11728.2)" fill="#D41122"/>
</g>
</g>
</g>
<defs>
<path id="path0_stroke" d="M 8.24396 0.94391C 8.76527 0.761543 9.04004 0.191103 8.85767 -0.330204C 8.6753 -0.851511 8.10486 -1.12628 7.58356 -0.943909L 8.24396 0.94391ZM 11.9975 23.6219C 12.5498 23.6219 12.9975 23.1742 12.9975 22.6219C 12.9975 22.0697 12.5498 21.6219 11.9975 21.6219L 11.9975 23.6219ZM 7.58356 -0.943909C 2.59342 0.801772 -1 5.46756 -1 10.9635L 1 10.9635C 1 6.37028 4.00523 2.42673 8.24396 0.94391L 7.58356 -0.943909ZM -1 10.9635C -1 17.9772 4.85075 23.6219 11.9975 23.6219L 11.9975 21.6219C 5.90089 21.6219 1 16.8189 1 10.9635L -1 10.9635Z"/>
<path id="path1_stroke" d="M 0 -1C -0.552285 -1 -1 -0.552285 -1 -4.27631e-08C -1 0.552285 -0.552285 1 0 1L 0 -1ZM 3.69134 21.698C 3.1687 21.8765 2.88973 22.4449 3.06824 22.9676C 3.24675 23.4902 3.81514 23.7692 4.33778 23.5907L 3.69134 21.698ZM 0 1C 6.09665 1 10.9975 5.80301 10.9975 11.6585L 12.9975 11.6585C 12.9975 4.64478 7.14679 -1 0 -1L 0 1ZM 10.9975 11.6585C 10.9975 16.2732 7.97088 20.2363 3.69134 21.698L 4.33778 23.5907C 9.3794 21.8687 12.9975 17.1777 12.9975 11.6585L 10.9975 11.6585Z"/>
<path id="path2_stroke" d="M 0.14963 -0.988742C -0.396437 -1.07138 -0.906104 -0.695697 -0.988742 -0.14963C -1.07138 0.396437 -0.695697 0.906104 -0.14963 0.988742L 0.14963 -0.988742ZM 4.74081 0.717445L 5.74068 0.733688L 5.75488 -0.140478L 4.89044 -0.271297L 4.74081 0.717445ZM 3.66584 5.32447C 3.65687 5.87669 4.09725 6.33161 4.64947 6.34058C 5.20168 6.34956 5.65661 5.90917 5.66558 5.35696L 3.66584 5.32447ZM -0.14963 0.988742L 4.59118 1.70619L 4.89044 -0.271297L 0.14963 -0.988742L -0.14963 0.988742ZM 3.74095 0.701202L 3.66584 5.32447L 5.66558 5.35696L 5.74068 0.733688L 3.74095 0.701202Z"/>
<path id="path3_stroke" d="M 5.08934 7.64595C 5.62509 7.7801 6.16814 7.45454 6.30229 6.91879C 6.43644 6.38305 6.11088 5.83999 5.57514 5.70584L 5.08934 7.64595ZM 0 5.34072L -0.970233 5.09854L -1.21223 6.06805L -0.242898 6.31077L 0 5.34072ZM 2.30329 0.242173C 2.43704 -0.293672 2.11108 -0.836484 1.57523 -0.970233C 1.03939 -1.10398 0.496575 -0.778018 0.362827 -0.242173L 2.30329 0.242173ZM 5.57514 5.70584L 0.242898 4.37066L -0.242898 6.31077L 5.08934 7.64595L 5.57514 5.70584ZM 0.970233 5.58289L 2.30329 0.242173L 0.362827 -0.242173L -0.970233 5.09854L 0.970233 5.58289Z"/>
</defs>
</svg>
