<svg width="24" height="26" viewBox="0 0 24 26" version="1.1" xmlns="http://www.w3.org/2000/svg" xmlns:xlink="http://www.w3.org/1999/xlink">
<title>Group</title>
<desc>Created using Figma</desc>
<g id="Canvas" transform="translate(-30884 -13731)">
<g id="Group">
<g id="Group">
<g id="Vector">
<use xlink:href="#path0_fill" transform="translate(30890.5 13755.2)" fill="#D41122"/>
</g>
<g id="Vector">
<use xlink:href="#path1_fill" transform="translate(30892.5 13751.6)" fill="#D41122"/>
</g>
<g id="Vector">
<use xlink:href="#path2_fill" transform="translate(30884.9 13731)" fill="#D41122"/>
</g>
</g>
</g>
</g>
<defs>
<path id="path0_fill" d="M 10.5828 5.18947e-15L 0.98773 5.18947e-15C 0.423313 5.18947e-15 0 0.438212 0 0.876424C 0 1.31464 0.423313 1.75285 0.98773 1.75285L 10.5828 1.75285C 11.1472 1.75285 11.5706 1.31464 11.5706 0.876424C 11.5706 0.438212 11.1472 5.18947e-15 10.5828 5.18947e-15Z"/>
<path id="path1_fill" d="M 6.6319 1.89892C 7.19632 1.89892 7.61963 1.46071 7.61963 1.02249C 7.61963 0.584282 7.19632 0 6.6319 0L 0.98773 0C 0.423313 0 1.34568e-07 0.438212 1.34568e-07 0.876424C 1.34568e-07 1.31464 0.423313 1.75285 0.98773 1.75285L 6.6319 1.75285L 6.6319 1.89892Z"/>
<path id="path2_fill" d="M 22.2945 6.28104C 21.8712 5.40461 21.3068 4.67426 20.6012 3.94391C 20.1779 3.65177 19.6135 3.65177 19.3313 3.94391C 19.1902 4.08998 19.0491 4.38212 19.0491 4.52819C 19.0491 4.67426 19.1902 4.9664 19.3313 5.11247C 19.8957 5.55068 20.319 6.13497 20.6012 6.86532C 20.8834 7.4496 21.0245 8.17995 21.0245 8.91031C 21.0245 11.3935 19.3313 13.4385 16.7914 14.1689C 18.3436 10.6632 19.0491 6.57318 19.0491 0.876424C 19.0491 0.438212 18.6258 -2.17662e-09 18.0614 -2.17662e-09L 4.79755 -2.17662e-09C 4.23313 0.146071 3.80982 0.584283 3.80982 1.02249C 3.80982 6.71925 4.51534 10.8092 6.06749 14.3149C 3.66871 13.7306 1.83436 11.5396 1.83436 9.05638C 1.83436 8.32603 1.97546 7.59567 2.25767 7.01139C 2.53988 6.42711 2.96319 5.69675 3.52761 5.25854C 3.66871 5.11247 3.80982 4.82033 3.80982 4.67426C 3.80982 4.38212 3.66871 4.23605 3.52761 4.08998C 3.10429 3.79784 2.53988 3.79784 2.25767 4.08998C 1.55215 4.82033 0.98773 5.55068 0.564417 6.42711C 0.141104 7.15746 0 8.17995 0 9.05638C 0 12.8542 3.10429 16.0678 7.19632 16.2138C 7.61963 17.0903 8.18405 17.8206 8.88957 18.551C 9.03068 19.1353 9.7362 19.1353 10.1595 18.8431C 10.3006 18.697 10.4417 18.551 10.5828 18.2588C 10.5828 17.9667 10.5828 17.8206 10.4417 17.5285C 8.04295 14.7531 5.78528 10.8092 5.64417 1.89892L 17.0736 1.89892C 16.9325 10.8092 14.816 14.6071 12.5583 17.5285C 12.4172 17.6745 12.2761 17.9667 12.4172 18.2588C 12.4172 18.551 12.5583 18.697 12.8405 18.8431C 12.9816 18.9892 13.2638 18.9892 13.4049 18.9892C 13.6871 18.9892 13.9693 18.8431 14.1104 18.697C 14.6748 17.9667 15.2393 17.0903 15.8037 16.3599C 19.7546 16.0678 23 13.0003 23 9.20245C 22.8589 8.17995 22.7178 7.15746 22.2945 6.28104Z"/>
</defs>
</svg>
