<svg width="103" height="76" viewBox="0 0 103 76" version="1.1" xmlns="http://www.w3.org/2000/svg" xmlns:xlink="http://www.w3.org/1999/xlink">
<title>if_Camera_2202258</title>
<desc>Created using Figma</desc>
<g id="Canvas" transform="translate(-15525 -16345)">
<g id="if_Camera_2202258">
<g id="Group">
<g id="Vector">
<use xlink:href="#path0_fill" transform="translate(15525 16345)" fill="#FFFFFF"/>
</g>
</g>
<g id="Group">
<g id="Vector">
<use xlink:href="#path1_fill" transform="translate(15553.1 16364.2)" fill="#FFFFFF"/>
</g>
</g>
</g>
</g>
<defs>
<path id="path0_fill" d="M 95.9773 76L 7.02273 76C 3.04318 76 0 72.9221 0 68.8972L 0 16.81C 0 12.785 3.04318 9.70717 7.02273 9.70717L 27.3886 9.70717C 28.325 9.70717 29.0273 9.23365 29.4955 8.52337L 31.6023 4.02492C 32.5386 1.65732 35.1136 -9.03168e-07 37.9227 -9.03168e-07L 64.8432 -9.03168e-07C 67.6523 -9.03168e-07 70.2273 1.65732 71.1636 4.02492L 73.2704 8.04984C 73.7386 8.76012 74.4409 9.23364 75.3773 9.23364L 95.9773 9.23364C 99.9568 9.23364 103 12.3115 103 16.3364L 103 68.4237C 103 72.9221 99.9568 76 95.9773 76ZM 7.02273 14.4424C 5.61818 14.4424 4.68182 15.3894 4.68182 16.81L 4.68182 68.8972C 4.68182 70.3178 5.61818 71.2648 7.02273 71.2648L 95.9773 71.2648C 97.3818 71.2648 98.3182 70.3178 98.3182 68.8972L 98.3182 16.81C 98.3182 15.3894 97.3818 14.4424 95.9773 14.4424L 75.3773 14.4424C 72.8023 14.4424 70.4614 13.0218 69.0568 10.6542L 66.95 6.39252C 66.4818 5.44548 65.7795 5.20872 64.8432 5.20872L 37.9227 5.20872C 36.9864 5.20872 36.2841 5.68224 35.8159 6.39252L 33.7091 10.891C 32.7727 13.2586 30.1977 14.9159 27.3886 14.9159L 7.02273 14.9159L 7.02273 14.4424Z"/>
<path id="path1_fill" d="M 23.4091 47.352C 10.5341 47.352 0 36.6978 0 23.676C 0 10.6542 10.5341 0 23.4091 0C 36.2841 0 46.8182 10.6542 46.8182 23.676C 46.8182 36.6978 36.2841 47.352 23.4091 47.352ZM 23.4091 4.7352C 13.1091 4.7352 4.68182 13.2586 4.68182 23.676C 4.68182 34.0935 13.1091 42.6168 23.4091 42.6168C 33.7091 42.6168 42.1364 34.0935 42.1364 23.676C 42.1364 13.2586 33.7091 4.7352 23.4091 4.7352Z"/>
</defs>
</svg>
