<svg width="25" height="60" viewBox="0 0 25 60" version="1.1" xmlns="http://www.w3.org/2000/svg" xmlns:xlink="http://www.w3.org/1999/xlink">
<title>Vector 2.1</title>
<desc>Created using Figma</desc>
<g id="Canvas" transform="translate(5718 -24001)">
<g id="Vector 2.1">
<use xlink:href="#path0_stroke" transform="translate(-5717 24002)" fill="#808080"/>
</g>
</g>
<defs>
<path id="path0_stroke" d="M 0.783498 -0.621395C 0.440311 -1.05411 -0.188681 -1.12668 -0.621395 -0.783498C -1.05411 -0.440311 -1.12668 0.188681 -0.783498 0.621395L 0.783498 -0.621395ZM 23 29L 23.7835 29.6214C 24.0722 29.2574 24.0722 28.7426 23.7835 28.3786L 23 29ZM -0.783498 57.3786C -1.12668 57.8113 -1.05411 58.4403 -0.621395 58.7835C -0.188681 59.1267 0.440311 59.0541 0.783498 58.6214L -0.783498 57.3786ZM -0.783498 0.621395L 22.2165 29.6214L 23.7835 28.3786L 0.783498 -0.621395L -0.783498 0.621395ZM 22.2165 28.3786L -0.783498 57.3786L 0.783498 58.6214L 23.7835 29.6214L 22.2165 28.3786Z"/>
</defs>
</svg>
