<svg width="19" height="16" viewBox="0 0 19 16" version="1.1" xmlns="http://www.w3.org/2000/svg" xmlns:xlink="http://www.w3.org/1999/xlink">
<title>Vector</title>
<desc>Created using Figma</desc>
<g id="Canvas" transform="translate(-5035 -11720)">
<g id="Vector">
<use xlink:href="#path0_fill" transform="translate(5035.85 11720.1)" fill="#FFFFFF"/>
</g>
</g>
<defs>
<path id="path0_fill" d="M 17.1985 2.24782L 15.455 0.70812C 14.9386 0.251735 14.2513 1.81027e-07 13.52 1.81027e-07C 12.7886 1.81027e-07 12.1013 0.251364 11.5849 0.707749L 1.8914 9.2671C 1.85151 9.30232 1.81877 9.34199 1.79022 9.38314C 1.78182 9.395 1.77552 9.40687 1.76797 9.41947C 1.74781 9.45358 1.73102 9.4888 1.71843 9.52513C 1.71549 9.53292 1.70961 9.54033 1.70751 9.54849L 0.0248165 15.0451C -0.0419371 15.2631 0.0281751 15.496 0.208704 15.6554C 0.34431 15.7747 0.526518 15.84 0.713344 15.84C 0.775479 15.84 0.838034 15.8326 0.89933 15.8181L 6.85635 14.396C 6.90379 14.4045 6.95249 14.4093 7.00077 14.4093C 7.18382 14.4093 7.36603 14.3478 7.50542 14.2247L 17.1985 5.6657C 17.7154 5.20931 18.0004 4.60204 18 3.95657C 18.0004 3.31111 17.7158 2.7042 17.1985 2.24782ZM 7.00119 12.8878L 3.40574 9.71273L 11.0589 2.95445L 14.6548 6.12913L 7.00119 12.8878ZM 1.72682 14.3151L 2.76381 10.9284L 5.562 13.3994L 1.72682 14.3151ZM 16.1893 4.77443L 15.6645 5.23786L 12.0686 2.06319L 12.5942 1.59939C 13.0888 1.16265 13.9511 1.16265 14.4457 1.59939L 16.1893 3.13945C 16.4365 3.35782 16.573 3.64848 16.573 3.95731C 16.573 4.26614 16.437 4.55606 16.1893 4.77443Z"/>
</defs>
</svg>
