<svg width="70" height="70" viewBox="0 0 70 70" version="1.1" xmlns="http://www.w3.org/2000/svg" xmlns:xlink="http://www.w3.org/1999/xlink">
<title>Group 12.2</title>
<desc>Created using Figma</desc>
<g id="Canvas" transform="translate(-2523 -13332)">
<g id="Group 12.2">
<g id="Ellipse 4.3">
<use xlink:href="#path0_fill" transform="translate(2523 13332)" fill="#5FB3E8"/>
</g>
<g id="if_Mail02_928432">
<g id="Vector">
<use xlink:href="#path1_fill" transform="translate(2546.11 13358.2)" fill="#FFFFFF"/>
</g>
<g id="Vector">
<use xlink:href="#path2_fill" transform="translate(2544 13360.2)" fill="#FFFFFF"/>
</g>
</g>
</g>
</g>
<defs>
<path id="path0_fill" d="M 70 35C 70 54.33 54.33 70 35 70C 15.67 70 0 54.33 0 35C 0 15.67 15.67 0 35 0C 54.33 0 70 15.67 70 35Z"/>
<path id="path1_fill" d="M 11.8908 7.15002L 23.7818 0.0324628C 23.6525 0.0127882 23.5213 -3.60254e-07 23.3868 -3.60254e-07L 0.394789 -3.60254e-07C 0.260289 -3.60254e-07 0.128864 0.01328 1.13365e-07 0.0324628L 11.8908 7.15002Z"/>
<path id="path2_fill" d="M 14.7486 7.90897C 14.7327 7.9188 14.7153 7.9252 14.6989 7.93455C 14.6817 7.94365 14.6633 7.9525 14.6461 7.96086C 14.5526 8.00709 14.4563 8.04423 14.3579 8.06882C 14.3477 8.07153 14.3379 8.07301 14.3282 8.07497C 14.2198 8.09932 14.1109 8.11432 14.0018 8.11432C 14.0015 8.11432 14.001 8.11432 14.0008 8.11432C 14.0005 8.11432 14 8.11432 13.9995 8.11432C 13.8904 8.11432 13.7812 8.09957 13.6734 8.07497C 13.6634 8.07276 13.6531 8.07128 13.6431 8.06882C 13.5448 8.04399 13.4492 8.00685 13.3552 7.96086C 13.3375 7.9525 13.3196 7.94365 13.3021 7.93455C 13.2855 7.92545 13.2683 7.91905 13.2519 7.90897L 0.0391971 -2.02643e-07C 0.0153714 0.133787 6.05917e-08 0.270281 6.05917e-08 0.410955L 6.05917e-08 13.1033C 6.05917e-08 14.4309 1.12083 15.5071 2.504 15.5071L 25.496 15.5071C 26.8789 15.5071 28 14.4309 28 13.1033L 28 0.410955C 28 0.270281 27.9849 0.133787 27.9605 -2.02643e-07L 14.7486 7.90897Z"/>
</defs>
</svg>
