<svg width="70" height="70" viewBox="0 0 70 70" version="1.1" xmlns="http://www.w3.org/2000/svg" xmlns:xlink="http://www.w3.org/1999/xlink">
<title>if_instagram_1632517</title>
<desc>Created using Figma</desc>
<g id="Canvas" transform="translate(-2169 -13332)">
<g id="if_instagram_1632517">
<g id="Group">
<g id="Background 1">
<g id="Vector">
<use xlink:href="#path0_fill" transform="translate(2169 13332)" fill="url(#paint0_radial)"/>
</g>
</g>
<g id="Symbol">
<g id="Group">
<g id="Vector">
<use xlink:href="#path1_fill" transform="translate(2186.5 13349.5)" fill="#FFFFFF"/>
</g>
<g id="Vector">
<use xlink:href="#path2_fill" transform="translate(2195.01 13358)" fill="#FFFFFF"/>
</g>
<g id="Vector">
<use xlink:href="#path3_fill" transform="translate(2211.25 13355.6)" fill="#FFFFFF"/>
</g>
</g>
</g>
</g>
</g>
</g>
<defs>
<radialGradient id="paint0_radial" cx="0.5" cy="0.5" r="0.5" gradientUnits="userSpaceOnUse" gradientTransform="matrix(117.25 -91 91 117.25 -92.75 47.25)">
<stop offset="0" stop-color="#FFB140"/>
<stop offset="0.272245" stop-color="#FF5445"/>
<stop offset="0.594343" stop-color="#FC2B82"/>
<stop offset="1" stop-color="#8E40B7"/>
</radialGradient>
<path id="path0_fill" d="M 0 34.1126L 0 35.9992C 0.492188 54.1002 15.0664 68.6329 32.416 70L 37.748 70C 55.1934 68.6192 69.5215 53.9634 70 35.9719L 70 34.1126C 69.5215 15.8066 54.7012 0.959415 36.832 0.0434313C 17.6094 -0.927238 0.533203 14.4941 0 34.1126Z"/>
<path id="path1_fill" d="M 17.5 3.15113C 22.1789 3.15113 22.7294 3.16238 24.5872 3.25241C 26.2959 3.31994 27.2133 3.61254 27.8326 3.84888C 28.6468 4.16399 29.2316 4.54662 29.8394 5.15434C 30.4472 5.76206 30.8372 6.34727 31.1583 7.15756C 31.3991 7.77653 31.6743 8.69936 31.7661 10.41C 31.8578 12.2556 31.8693 12.8071 31.8693 17.4775C 31.8693 22.1479 31.8578 22.6994 31.7661 24.545C 31.6972 26.2444 31.4105 27.1785 31.1583 27.7974C 30.8372 28.6077 30.4587 29.1929 29.8394 29.8006C 29.2316 30.4084 28.6468 30.791 27.8326 31.1061C 27.2133 31.3537 26.2844 31.635 24.5872 31.7026C 22.7408 31.7926 22.1789 31.8039 17.5 31.8039C 12.8211 31.8039 12.2706 31.7926 10.4128 31.7026C 8.70413 31.635 7.7867 31.3424 7.16743 31.1061C 6.35321 30.791 5.76835 30.4084 5.16055 29.8006C 4.55275 29.1929 4.16284 28.6077 3.84174 27.7974C 3.60092 27.1785 3.32569 26.2556 3.23395 24.545C 3.1422 22.6994 3.13073 22.1479 3.13073 17.4775C 3.13073 12.8071 3.1422 12.2556 3.23395 10.41C 3.30275 8.71061 3.58945 7.77653 3.84174 7.15756C 4.16284 6.34727 4.54129 5.76206 5.16055 5.15434C 5.76835 4.54662 6.35321 4.16399 7.16743 3.84888C 7.7867 3.60129 8.7156 3.31994 10.4128 3.25241C 12.2592 3.17363 12.8211 3.15113 17.5 3.15113ZM 17.5 -1.71723e-07C 12.7408 -1.71723e-07 12.1445 0.0225079 10.2867 0.11254C 8.4289 0.202572 7.1445 0.495177 6.03211 0.92283C 4.87385 1.37299 3.89908 1.96945 2.93578 2.94855C 1.96101 3.92765 1.36468 4.8955 0.917431 6.05466C 0.481651 7.15756 0.183486 8.44052 0.103211 10.2974C 0.0114679 12.1543 -1.74986e-07 12.7508 -1.74986e-07 17.5C -1.74986e-07 22.2492 0.0229358 22.8457 0.103211 24.7026C 0.194954 26.5595 0.493119 27.8312 0.917431 28.9453C 1.36468 30.0932 1.96101 31.0723 2.93578 32.0514C 3.91055 33.0305 4.88532 33.627 6.03211 34.0772C 7.1445 34.5161 8.4289 34.8087 10.2867 34.8875C 12.156 34.9775 12.7523 35 17.5 35C 22.2477 35 22.8555 34.9775 24.7133 34.8875C 26.5711 34.7974 27.8555 34.5048 28.9679 34.0772C 30.1261 33.627 31.1009 33.0305 32.0642 32.0514C 33.039 31.0723 33.6353 30.1045 34.0826 28.9453C 34.5183 27.8424 34.8165 26.5595 34.8968 24.7026C 34.9885 22.8457 35 22.2492 35 17.5C 35 12.7508 34.9771 12.1543 34.8968 10.2974C 34.805 8.44052 34.5069 7.16881 34.0826 6.05466C 33.6353 4.90675 33.039 3.92765 32.0642 2.94855C 31.0894 1.96945 30.1147 1.37299 28.9679 0.92283C 27.8555 0.483923 26.5711 0.191318 24.7133 0.11254C 22.8555 0.0225079 22.2477 -1.71723e-07 17.5 -1.71723e-07Z"/>
<path id="path2_fill" d="M 8.99083 -3.43445e-07C 4.01376 -3.43445e-07 3.49972e-07 4.01768 3.49972e-07 8.98071C 3.49972e-07 13.9437 4.02523 17.9614 8.99083 17.9614C 13.9564 17.9614 17.9816 13.9437 17.9816 8.98071C 17.9816 4.01768 13.9564 -3.43445e-07 8.99083 -3.43445e-07ZM 8.99083 14.8103C 5.76835 14.8103 3.15367 12.2106 3.15367 8.98071C 3.15367 5.7508 5.76835 3.15112 8.99083 3.15112C 12.2133 3.15112 14.828 5.7508 14.828 8.98071C 14.828 12.2106 12.2133 14.8103 8.99083 14.8103Z"/>
<path id="path3_fill" d="M 2.09862 4.1865C 3.25766 4.1865 4.19725 3.24932 4.19725 2.09325C 4.19725 0.937179 3.25766 0 2.09862 0C 0.939587 0 0 0.937179 0 2.09325C 0 3.24932 0.939587 4.1865 2.09862 4.1865Z"/>
</defs>
</svg>
