<svg width="32" height="32" viewBox="0 0 32 32" version="1.1" xmlns="http://www.w3.org/2000/svg" xmlns:xlink="http://www.w3.org/1999/xlink">
<title>if_multimedia-30_2849806</title>
<desc>Created using Figma</desc>
<g id="Canvas" transform="translate(-3934 -12521)">
<g id="if_multimedia-30_2849806">
<g id="1">
<g id="Vector">
<use xlink:href="#path0_fill" transform="translate(3940.33 12521.2)" fill="#FFFFFF"/>
</g>
<g id="Vector">
<use xlink:href="#path1_fill" transform="translate(3940.33 12537.3)" fill="#FFFFFF"/>
</g>
<g id="Vector">
<use xlink:href="#path2_fill" transform="translate(3934 12529.4)" fill="#FFFFFF"/>
</g>
<g id="Vector">
<use xlink:href="#path3_fill" transform="translate(3939.1 12533.4)" fill="#FFFFFF"/>
</g>
<g id="Vector">
<use xlink:href="#path4_fill" transform="translate(3942.49 12533.4)" fill="#FFFFFF"/>
</g>
<g id="Vector">
<use xlink:href="#path5_fill" transform="translate(3943.96 12541.7)" fill="#FFFFFF"/>
</g>
<g id="Vector">
<use xlink:href="#path5_fill" transform="translate(3943.96 12545.8)" fill="#FFFFFF"/>
</g>
</g>
</g>
</g>
<defs>
<path id="path0_fill" d="M 17.505 10.4876L 1.15672 10.4876C 0.849936 10.4876 0.555721 10.3657 0.338795 10.1488C 0.121868 9.93184 0 9.63763 0 9.33085L 0 1.15672C 0 0.849936 0.121868 0.555721 0.338795 0.338794C 0.555721 0.121868 0.849936 5.47931e-16 1.15672 0L 17.505 0C 17.8118 0 18.106 0.121868 18.3229 0.338794C 18.5398 0.555721 18.6617 0.849936 18.6617 1.15672L 18.6617 9.33085C 18.6617 9.63763 18.5398 9.93184 18.3229 10.1488C 18.106 10.3657 17.8118 10.4876 17.505 10.4876ZM 2.31343 8.17413L 16.3483 8.17413L 16.3483 2.31343L 2.31343 2.31343L 2.31343 8.17413Z"/>
<path id="path1_fill" d="M 17.505 14.8761L 1.15672 14.8761C 0.849936 14.8761 0.555721 14.7543 0.338795 14.5374C 0.121868 14.3204 0 14.0262 0 13.7194L 0 1.15672C 0 0.849936 0.121868 0.555721 0.338795 0.338794C 0.555721 0.121868 0.849936 -2.82401e-07 1.15672 -2.82401e-07L 17.505 -2.82401e-07C 17.8118 -2.82401e-07 18.106 0.121868 18.3229 0.338794C 18.5398 0.555721 18.6617 0.849936 18.6617 1.15672L 18.6617 13.7194C 18.6617 14.0262 18.5398 14.3204 18.3229 14.5374C 18.106 14.7543 17.8118 14.8761 17.505 14.8761ZM 2.31343 12.5627L 16.3483 12.5627L 16.3483 2.31343L 2.31343 2.31343L 2.31343 12.5627Z"/>
<path id="path2_fill" d="M 27.5592 17.3507L 23.8384 17.3507C 23.5316 17.3507 23.2374 17.2289 23.0205 17.012C 22.8035 16.795 22.6817 16.5008 22.6817 16.194C 22.6817 15.8873 22.8035 15.593 23.0205 15.3761C 23.2374 15.1592 23.5316 15.0373 23.8384 15.0373L 27.5592 15.0373C 27.9452 15.0369 28.3152 14.8834 28.5882 14.6104C 28.8611 14.3375 29.0147 13.9674 29.0151 13.5814L 29.0151 3.77012C 29.0149 3.38398 28.8614 3.0137 28.5885 2.74059C 28.3155 2.46747 27.9453 2.31384 27.5592 2.31343L 3.76935 2.31343C 3.38321 2.31384 3.01301 2.46747 2.74004 2.74059C 2.46707 3.0137 2.31364 3.38398 2.31343 3.77012L 2.31343 13.5814C 2.31384 13.9674 2.46736 14.3375 2.74031 14.6104C 3.01326 14.8834 3.38334 15.0369 3.76935 15.0373L 7.49012 15.0373C 7.79691 15.0373 8.09112 15.1592 8.30805 15.3761C 8.52497 15.593 8.64684 15.8873 8.64684 16.194C 8.64684 16.5008 8.52497 16.795 8.30805 17.012C 8.09112 17.2289 7.79691 17.3507 7.49012 17.3507L 3.76935 17.3507C 2.77003 17.3495 1.812 16.952 1.10537 16.2454C 0.398745 15.5388 0.00122432 14.5807 -8.23671e-08 13.5814L -8.23671e-08 3.77012C 0.00102027 2.77067 0.398451 1.81244 1.1051 1.10564C 1.81175 0.398851 2.7699 0.0012248 3.76935 0L 27.5592 0C 28.5586 0.0012248 29.5168 0.398851 30.2234 1.10564C 30.9301 1.81244 31.3275 2.77067 31.3285 3.77012L 31.3285 13.5814C 31.3273 14.5807 30.9298 15.5388 30.2231 16.2454C 29.5165 16.952 28.5585 17.3495 27.5592 17.3507Z"/>
<path id="path3_fill" d="M 1.15764 2.31787C 1.11953 2.31799 1.08143 2.31619 1.04351 2.31247C 1.00649 2.30861 0.966392 2.30244 0.93169 2.2955C 0.896989 2.28856 0.854575 2.27854 0.821416 2.26774C 0.788257 2.25695 0.7497 2.24384 0.714998 2.22919C 0.680297 2.21453 0.646367 2.19834 0.613207 2.1806C 0.579448 2.16328 0.546745 2.14396 0.515272 2.12277C 0.484426 2.10195 0.45358 2.07958 0.424277 2.05568C 0.394973 2.03177 0.366441 2.00555 0.339451 1.97856C 0.312461 1.95157 0.287013 1.92304 0.262336 1.89374C 0.238436 1.86457 0.216044 1.8342 0.195247 1.80274C 0.174169 1.77087 0.15489 1.73848 0.137411 1.70558C 0.119675 1.67242 0.103481 1.63772 0.088829 1.60302C 0.0741773 1.56831 0.061839 1.53207 0.0502718 1.4966C 0.0387046 1.46113 0.030222 1.41948 0.0225106 1.38632C 0.0147991 1.35317 0.00940101 1.30921 0.00554529 1.27451C -0.00184868 1.19757 -0.00184868 1.1201 0.00554529 1.04317C 0.00940101 1.00615 0.0155703 0.966051 0.0225106 0.93135C 0.0294509 0.896648 0.0394758 0.854235 0.0502718 0.821075C 0.0610678 0.787916 0.0741773 0.74936 0.088829 0.714658C 0.103481 0.679957 0.119675 0.645255 0.137411 0.612096C 0.155147 0.578937 0.174426 0.546548 0.195247 0.514931C 0.216044 0.483475 0.238436 0.453105 0.262336 0.423937C 0.286242 0.394633 0.312461 0.3661 0.339451 0.33911C 0.366441 0.31212 0.394973 0.286672 0.424277 0.261996C 0.45358 0.237319 0.484426 0.215728 0.515272 0.194907C 0.546745 0.17371 0.579448 0.154397 0.613207 0.137071C 0.646624 0.119592 0.680554 0.103397 0.714998 0.0884884C 0.7497 0.0738366 0.785944 0.0614983 0.821416 0.0499311C 0.856889 0.038364 0.898531 0.0298813 0.93169 0.0221699C 0.96485 0.0144585 1.0088 0.00906036 1.04351 0.00520464C 1.11918 -0.00173544 1.19532 -0.00173544 1.27099 0.00520464C 1.30878 0.00906036 1.34811 0.0152296 1.38358 0.0221699C 1.41905 0.0291102 1.4607 0.0391351 1.49308 0.0499311C 1.52547 0.0607272 1.56557 0.0738366 1.60027 0.0884884C 1.63497 0.10314 1.6689 0.119335 1.70206 0.137071C 1.73573 0.154568 1.76842 0.173875 1.8 0.194907C 1.83084 0.215728 1.86169 0.23809 1.89099 0.261996C 1.9203 0.285901 1.94883 0.31212 1.97582 0.33911C 2.00281 0.3661 2.02749 0.394633 2.05293 0.423937C 2.07838 0.45324 2.0992 0.484085 2.12002 0.514931C 2.14084 0.545777 2.16012 0.578937 2.17786 0.612096C 2.1956 0.645255 2.21179 0.679957 2.22644 0.714658C 2.24109 0.74936 2.25343 0.785603 2.265 0.821075C 2.27657 0.856548 2.28505 0.898191 2.29276 0.93135C 2.30047 0.964509 2.30587 1.00846 2.30973 1.04317C 2.31712 1.1201 2.31712 1.19757 2.30973 1.27451C 2.30587 1.31152 2.2997 1.35162 2.29276 1.38632C 2.28582 1.42103 2.27579 1.46344 2.265 1.4966C 2.2542 1.52976 2.24109 1.56831 2.22644 1.60302C 2.21179 1.63772 2.1956 1.67242 2.17786 1.70558C 2.16012 1.73874 2.14084 1.77113 2.12002 1.80274C 2.0992 1.83436 2.07607 1.86443 2.05293 1.89374C 2.0298 1.92304 2.00281 1.95157 1.97582 1.97856C 1.94883 2.00555 1.9203 2.031 1.89099 2.05568C 1.86169 2.08035 1.83084 2.10195 1.8 2.12277C 1.76842 2.1438 1.73573 2.16311 1.70206 2.1806C 1.66865 2.19808 1.63472 2.21428 1.60027 2.22919C 1.56557 2.24384 1.52933 2.25618 1.49308 2.26774C 1.45684 2.27931 1.42059 2.28779 1.38358 2.2955C 1.34657 2.30322 1.30647 2.30861 1.27099 2.31247C 1.23332 2.31619 1.19549 2.31799 1.15764 2.31787Z"/>
<path id="path4_fill" d="M 1.15764 2.31801C 1.11985 2.31801 1.08052 2.31801 1.04351 2.31261C 1.00649 2.30721 0.966392 2.30259 0.93169 2.29565C 0.896989 2.28871 0.854575 2.27868 0.821416 2.26788C 0.788257 2.25709 0.749699 2.24398 0.714998 2.22933C 0.680296 2.21468 0.645595 2.19848 0.612436 2.18075C 0.579276 2.16301 0.546889 2.14373 0.515272 2.12291C 0.483816 2.10211 0.453445 2.07972 0.424277 2.05582C 0.394974 2.03191 0.366441 2.0057 0.339451 1.97871C 0.312461 1.95172 0.287013 1.92318 0.262336 1.89388C 0.23766 1.86458 0.216068 1.83373 0.195247 1.80288C 0.174079 1.77125 0.154517 1.73856 0.13664 1.70495C 0.119674 1.67179 0.103481 1.63786 0.088829 1.60316C 0.0741773 1.56846 0.061839 1.53221 0.0502718 1.49674C 0.0387046 1.46127 0.030222 1.41963 0.0225106 1.38647C 0.0147991 1.35331 0.00940101 1.30935 0.00554529 1.27465C -0.00184868 1.19771 -0.00184868 1.12024 0.00554529 1.04331C 0.00940101 1.00629 0.0155703 0.966193 0.0225106 0.931491C 0.0294509 0.89679 0.0394758 0.854376 0.0502718 0.821217C 0.0610678 0.788058 0.0741773 0.749502 0.088829 0.7148C 0.103481 0.680099 0.119674 0.646168 0.13664 0.613008C 0.154517 0.579399 0.174079 0.546712 0.195247 0.515073C 0.216068 0.484227 0.238431 0.453382 0.262336 0.424078C 0.286242 0.394775 0.312461 0.366242 0.339451 0.339252C 0.366441 0.312262 0.394974 0.286814 0.424277 0.262138C 0.453445 0.238238 0.483816 0.215845 0.515272 0.195048C 0.547146 0.17397 0.579533 0.154692 0.612436 0.137213C 0.645595 0.119476 0.680296 0.103282 0.714998 0.0886301C 0.749699 0.0739784 0.785944 0.0616401 0.821416 0.0500729C 0.856889 0.0385057 0.898531 0.0300231 0.93169 0.0223117C 0.96485 0.0146002 1.0088 0.00920211 1.04351 0.00534638C 1.12046 -0.00178269 1.1979 -0.00178269 1.27485 0.00534638C 1.31186 0.00920211 1.35196 0.0153714 1.38667 0.0223117C 1.42137 0.029252 1.46378 0.0392769 1.49694 0.0500729C 1.5301 0.0608689 1.56866 0.0739784 1.60336 0.0886301C 1.63806 0.103282 1.67199 0.119476 1.70515 0.137213C 1.73831 0.154949 1.77147 0.174228 1.80308 0.195048C 1.8347 0.215869 1.86477 0.238232 1.89408 0.262138C 1.92338 0.286043 1.95191 0.312262 1.9789 0.339252C 2.00589 0.366242 2.03057 0.394775 2.05602 0.424078C 2.08147 0.453382 2.10229 0.484227 2.12311 0.515073C 2.14402 0.546723 2.16333 0.57941 2.18094 0.613008C 2.19842 0.646425 2.21462 0.680356 2.22953 0.7148C 2.24418 0.749502 2.25652 0.785745 2.26808 0.821217C 2.27965 0.85669 2.28813 0.898332 2.29584 0.931491C 2.30356 0.964651 2.30895 1.00861 2.31281 1.04331C 2.3202 1.12024 2.3202 1.19771 2.31281 1.27465C 2.30895 1.31167 2.30278 1.35176 2.29584 1.38647C 2.2889 1.42117 2.27888 1.46358 2.26808 1.49674C 2.25729 1.5299 2.24418 1.56846 2.22953 1.60316C 2.21487 1.63786 2.19868 1.67179 2.18094 1.70495C 2.16333 1.73855 2.14402 1.77123 2.12311 1.80288C 2.10229 1.83373 2.07915 1.86458 2.05602 1.89388C 2.03288 1.92318 2.00589 1.95172 1.9789 1.97871C 1.95191 2.0057 1.92338 2.03114 1.89408 2.05582C 1.86477 2.0805 1.83393 2.10209 1.80308 2.12291C 1.77224 2.14373 1.73831 2.16301 1.70515 2.18075C 1.67199 2.19848 1.63806 2.21468 1.60336 2.22933C 1.56866 2.24398 1.53241 2.25632 1.49694 2.26788C 1.46147 2.27945 1.41982 2.28793 1.38667 2.29565C 1.35351 2.30336 1.30955 2.30875 1.27485 2.31261C 1.24015 2.31647 1.19542 2.31801 1.15764 2.31801Z"/>
<path id="path5_fill" d="M 10.2562 2.31343L 1.15672 2.31343C 0.849936 2.31343 0.555721 2.19156 0.338795 1.97464C 0.121868 1.75771 0 1.4635 0 1.15672C 0 0.849936 0.121868 0.555721 0.338795 0.338795C 0.555721 0.121868 0.849936 0 1.15672 0L 10.2562 0C 10.563 0 10.8572 0.121868 11.0741 0.338795C 11.2911 0.555721 11.4129 0.849936 11.4129 1.15672C 11.4129 1.4635 11.2911 1.75771 11.0741 1.97464C 10.8572 2.19156 10.563 2.31343 10.2562 2.31343Z"/>
</defs>
</svg>
