<svg width="70" height="70" viewBox="0 0 70 70" version="1.1" xmlns="http://www.w3.org/2000/svg" xmlns:xlink="http://www.w3.org/1999/xlink">
<title>if_twitter_circle_294709</title>
<desc>Created using Figma</desc>
<g id="Canvas" transform="translate(-2169 -13498)">
<g id="if_twitter_circle_294709">
<g id="Vector">
<use xlink:href="#path0_fill" transform="translate(2169 13498)" fill="#1CB7EB"/>
</g>
<g id="Group">
<g id="Group">
<g id="Vector">
<use xlink:href="#path1_fill" transform="translate(2190 13520.8)" fill="#FFFFFF"/>
</g>
</g>
</g>
</g>
</g>
<defs>
<path id="path0_fill" d="M 35 70C 54.33 70 70 54.33 70 35C 70 15.67 54.33 0 35 0C 15.67 0 0 15.67 0 35C 0 54.33 15.67 70 35 70Z"/>
<path id="path1_fill" d="M 29.75 2.81858C 28.7162 3.36062 27.4527 3.68584 26.3041 3.79425C 27.5676 3.0354 28.4865 1.84292 28.9459 0.433628C 27.7973 1.08407 26.5338 1.62611 25.0405 1.95133C 23.8919 0.75885 22.3986 2.0677e-07 20.6757 2.0677e-07C 17.3446 2.0677e-07 14.5878 2.71018 14.5878 6.1792C 14.5878 6.61283 14.5878 7.15487 14.7027 7.58849C 9.64865 7.37168 5.16892 4.87832 2.18243 1.19248C 1.60811 2.05973 1.37838 3.1438 1.37838 4.33628C 1.37838 6.50442 2.41216 8.34735 4.02027 9.43142C 2.98649 9.43142 2.06757 9.10619 1.26351 8.67257L 1.26351 8.78097C 1.26351 11.708 3.33108 14.2013 6.08784 14.8518C 5.62838 14.9602 5.05405 15.0686 4.47973 15.0686C 4.13514 15.0686 3.67568 15.0686 3.33108 14.9602C 4.13514 17.4535 6.31757 19.1881 8.95946 19.1881C 6.89189 20.8142 4.25 21.7898 1.49324 21.7898C 1.03378 21.7898 0.574324 21.7898 -4.38175e-07 21.6814C 2.64189 23.4159 5.85811 24.5 9.30405 24.5C 20.4459 24.5 26.5338 15.177 26.5338 7.04646C 26.5338 6.82965 26.5338 6.50443 26.5338 6.28761C 27.9122 5.20354 28.9459 4.11947 29.75 2.81858Z"/>
</defs>
</svg>
