<svg width="17" height="19" viewBox="0 0 17 19" version="1.1" xmlns="http://www.w3.org/2000/svg" xmlns:xlink="http://www.w3.org/1999/xlink">
<title>Group</title>
<desc>Created using Figma</desc>
<g id="Canvas" transform="translate(4623 -12200)">
<g id="Group">
<g id="Group">
<g id="Vector">
<use xlink:href="#path0_fill" transform="translate(-4618.83 12217.7)" fill="#FFFFFF"/>
</g>
<g id="Vector">
<use xlink:href="#path1_fill" transform="translate(-4617.37 12215.1)" fill="#FFFFFF"/>
</g>
<g id="Vector">
<use xlink:href="#path2_fill" transform="translate(-4623 12200)" fill="#FFFFFF"/>
</g>
</g>
</g>
</g>
<defs>
<path id="path0_fill" d="M 7.82209 3.79224e-15L 0.730061 3.79224e-15C 0.312883 3.79224e-15 0 0.320227 0 0.640453C 0 0.960679 0.312883 1.28091 0.730061 1.28091L 7.82209 1.28091C 8.23926 1.28091 8.55215 0.960679 8.55215 0.640453C 8.55215 0.320227 8.23926 3.79224e-15 7.82209 3.79224e-15Z"/>
<path id="path1_fill" d="M 4.90184 1.38765C 5.31902 1.38765 5.6319 1.06742 5.6319 0.747194C 5.6319 0.426968 5.31902 0 4.90184 0L 0.730061 0C 0.312883 0 9.9463e-08 0.320227 9.9463e-08 0.640453C 9.9463e-08 0.960679 0.312883 1.2809 0.730061 1.2809L 4.90184 1.2809L 4.90184 1.38765Z"/>
<path id="path2_fill" d="M 16.4785 4.58991C 16.1656 3.94946 15.7485 3.41575 15.227 2.88204C 14.9141 2.66855 14.4969 2.66855 14.2883 2.88204C 14.184 2.98878 14.0798 3.20226 14.0798 3.309C 14.0798 3.41575 14.184 3.62923 14.2883 3.73597C 14.7055 4.0562 15.0184 4.48317 15.227 5.01688C 15.4356 5.44385 15.5399 5.97756 15.5399 6.51127C 15.5399 8.32588 14.2883 9.82027 12.411 10.354C 13.5583 7.79217 14.0798 4.80339 14.0798 0.640452C 14.0798 0.320226 13.7669 -1.59058e-09 13.3497 -1.59058e-09L 3.54601 -1.59058e-09C 3.12883 0.106742 2.81595 0.426968 2.81595 0.747195C 2.81595 4.91014 3.33742 7.89891 4.48466 10.4607C 2.71166 10.0338 1.35583 8.43262 1.35583 6.61801C 1.35583 6.0843 1.46012 5.55059 1.66871 5.12362C 1.8773 4.69665 2.19018 4.16294 2.60736 3.84271C 2.71166 3.73597 2.81595 3.52249 2.81595 3.41575C 2.81595 3.20226 2.71166 3.09552 2.60736 2.98878C 2.29448 2.77529 1.8773 2.77529 1.66871 2.98878C 1.14724 3.52249 0.730061 4.0562 0.417178 4.69665C 0.104294 5.23036 0 5.97756 0 6.61801C 0 9.3933 2.29448 11.7416 5.31902 11.8484C 5.6319 12.4888 6.04908 13.0225 6.57055 13.5562C 6.67485 13.9832 7.19632 13.9832 7.5092 13.7697C 7.6135 13.663 7.71779 13.5562 7.82209 13.3428C 7.82209 13.1293 7.82209 13.0225 7.71779 12.809C 5.94479 10.7809 4.27607 7.89891 4.17178 1.38765L 12.6196 1.38765C 12.5153 7.89891 10.9509 10.6742 9.28221 12.809C 9.17791 12.9158 9.07362 13.1293 9.17791 13.3428C 9.17791 13.5562 9.28221 13.663 9.4908 13.7697C 9.59509 13.8765 9.80368 13.8765 9.90798 13.8765C 10.1166 13.8765 10.3252 13.7697 10.4294 13.663C 10.8466 13.1293 11.2638 12.4888 11.681 11.9551C 14.6012 11.7416 17 9.50004 17 6.72475C 16.8957 5.97756 16.7914 5.23036 16.4785 4.58991Z"/>
</defs>
</svg>
