<svg width="71" height="70" viewBox="0 0 71 70" version="1.1" xmlns="http://www.w3.org/2000/svg" xmlns:xlink="http://www.w3.org/1999/xlink">
<title>Group 12.1</title>
<desc>Created using Figma</desc>
<g id="Canvas" transform="translate(-2169 -13249)">
<g id="Group 12.1">
<g id="Ellipse 4.3">
<use xlink:href="#path0_fill" transform="translate(2169.53 13249)" fill="#4D7397"/>
</g>
<g id="Vector">
<use xlink:href="#path1_fill" transform="translate(2192.28 13278.8)" fill="#FFFFFF"/>
</g>
</g>
</g>
<defs>
<path id="path0_fill" d="M 70 35C 70 54.33 54.33 70 35 70C 15.67 70 0 54.33 0 35C 0 15.67 15.67 0 35 0C 54.33 0 70 15.67 70 35Z"/>
<path id="path1_fill" d="M 5.91083 11.174C 8.35955 13.7298 11.0914 13.9423 11.806 13.9518C 11.9265 13.9535 12.045 13.9496 12.1655 13.9496L 13.1139 13.9496C 13.3388 13.9496 13.5675 13.9463 13.7783 13.868C 13.8992 13.8231 14.0293 13.7553 14.1222 13.6545C 14.3191 13.4393 14.3229 13.0477 14.3228 13.0105C 14.3228 13.0084 14.3228 13.008 14.3228 13.0059C 14.322 12.94 14.3073 11.0371 15.2066 10.747C 16.103 10.4645 17.2626 12.6497 18.4849 13.4912C 18.9108 13.7824 19.2891 13.9108 19.5738 13.9644C 19.9295 14.0315 20.2967 13.9848 20.6586 13.98L 23.2338 13.9453C 23.3315 13.944 23.4289 13.9411 23.5254 13.9258C 23.9207 13.8632 24.9441 13.5915 24.283 12.4927C 24.214 12.3797 23.8129 11.4943 21.8509 9.67323C 19.8012 7.76425 20.077 8.07195 22.5467 4.77519C 24.051 2.76574 24.6528 1.54123 24.4647 1.01375C 24.3486 0.69272 23.8561 0.630691 23.5158 0.627739C 23.2914 0.625793 23.0673 0.64402 22.843 0.645549L 19.9225 0.665452C 19.6372 0.667396 19.3347 0.606914 19.0734 0.721458C 19.0544 0.729796 19.0357 0.739265 19.0177 0.750006C 18.926 0.804519 18.8501 0.891805 18.7946 0.970536C 18.7166 1.08135 18.6683 1.20846 18.6184 1.33448C 18.4387 1.78823 17.9458 2.97946 17.3315 4.02165C 15.6892 6.80976 15.0374 6.96047 14.7678 6.78464C 14.1473 6.38275 14.2977 5.16452 14.2977 4.29795C 14.2977 1.59146 14.7051 0.467427 13.5016 0.172288C 13.1005 0.078095 12.8059 0.0090201 11.7842 0.00274056C 10.4678 -0.00981852 9.35835 0.00902009 8.72526 0.316718C 8.30529 0.523942 7.98561 0.982349 8.17993 1.00747C 8.42439 1.03886 8.97599 1.15818 9.26433 1.55379C 9.53352 1.92235 9.60361 2.61905 9.62171 2.98534C 9.62957 3.14446 9.63351 3.30231 9.64075 3.46146C 9.67471 4.20724 9.72618 6.47376 9.12016 6.80348C 8.62497 7.0735 7.94173 6.5209 6.48124 3.99025C 5.75537 2.74192 5.20461 1.35908 5.16697 1.26386C 5.16549 1.26011 5.16424 1.25692 5.16268 1.2532C 5.14777 1.21749 5.05852 1.01446 4.90615 0.883514C 4.87908 0.860252 4.84995 0.839461 4.82003 0.819992C 4.79816 0.805758 4.7758 0.79247 4.75323 0.780077C 4.47242 0.625864 4.13895 0.625571 3.81858 0.627872L 0.852237 0.649174C 0.818904 0.649414 0.785564 0.649842 0.752316 0.652227C 0.63643 0.660542 0.345276 0.693525 0.164097 0.82001C 0.1031 0.862593 0.0505739 0.920145 0.0253267 0.99012C -0.0241997 1.12739 0.0091858 1.30614 0.0385338 1.41422C 0.0560902 1.47887 0.0807511 1.53779 0.107537 1.5992C 0.450289 2.38497 3.02311 8.15837 5.91083 11.174Z"/>
</defs>
</svg>
