<?xml version="1.0" standalone="no"?>
<!DOCTYPE svg PUBLIC "-//W3C//DTD SVG 1.1//EN" "http://www.w3.org/Graphics/SVG/1.1/DTD/svg11.dtd" >
<svg xmlns="http://www.w3.org/2000/svg">
<metadata>
<json>
<![CDATA[
{
	"fontFamily": "icomoon",
	"majorVersion": 1,
	"minorVersion": 1,
	"description": "Font generated by IcoMoon.",
	"version": "Version 1.1",
	"fontId": "icomoon",
	"psName": "icomoon",
	"subFamily": "Regular",
	"fullName": "icomoon"
}
]]>
</json>
</metadata>
<defs>
<font id="icomoon" horiz-adv-x="1024">
<font-face units-per-em="1024" ascent="1024" descent="0" />
<missing-glyph horiz-adv-x="1024" />
<glyph unicode="&#x20;" d="" />
<glyph unicode="&#xe900;" glyph-name="icon_blocks" data-tags="blocks" d="M0 1024h454.969v-454.969h-454.969v454.969zM569.031 1024h454.969v-454.969h-454.969v454.969zM0 454.969h454.969v-454.969h-454.969v454.969zM569.031 454.969h454.969v-454.969h-454.969v454.969z" />
<glyph unicode="&#xe901;" glyph-name="icon_search" data-tags="uEA11-icon_search" d="M697.344 225.152l229.888-225.152 96.768 98.752-225.6 220.928c57.6 73.728 91.776 166.144 91.776 266.368 0 241.856-199.296 437.952-445.056 437.952-245.824 0-445.12-196.032-445.12-437.952 0-241.856 199.296-437.952 445.12-437.952h-0.054c0.35-0.001 0.7-0.001 1.051-0.001 93.77 0 180.813 28.805 251.227 77.057zM751.936 586.048c0-163.456-135.296-299.776-306.816-299.776s-306.88 136.32-306.88 299.776c0 163.456 135.296 299.712 306.88 299.712 171.52 0 306.816-136.256 306.816-299.712z" />
<glyph unicode="&#xe902;" glyph-name="icon_prize" data-tags="icon_prize" d="M690.037 373.307c-21.149-35.193-44.961-68.926-71.676-101.723-6.331-7.779-16.011-11.875-25.808-11.875-6.729 0-13.513 1.931-19.313 5.939-14.248 9.838-17.126 28.442-6.448 41.552 98.703 121.179 190.219 285.060 194.827 657.437h-499.244c4.609-372.389 96.124-536.257 194.827-657.437 10.675-13.111 7.793-31.715-6.448-41.552-14.23-9.834-34.439-7.183-45.125 5.936-26.711 32.797-50.522 66.531-71.675 101.723-165.464 8.112-297.382 134.612-297.382 288.962 0 38.355 8.026 75.628 23.86 110.777 15.858 35.217 38.799 66.79 68.187 93.852 12.595 11.591 32.998 11.591 45.584 0s12.586-30.386 0-41.976c-23.376-21.526-41.62-46.629-54.223-74.611-12.571-27.908-18.944-57.529-18.944-88.042 0-110.585 85.189-203.169 198.308-225.086-70.999 146.26-101.612 320.548-101.612 557.136 0 16.391 14.432 29.681 32.232 29.681h564.062c17.799 0 32.23-13.29 32.23-29.681 0-236.588-30.61-410.877-101.61-557.136 113.119 21.917 198.309 114.509 198.309 225.086 0 30.512-6.374 60.134-18.944 88.034-12.595 27.989-30.841 53.092-54.224 74.611-12.584 11.591-12.595 30.386 0 41.977 12.588 11.591 32.991 11.598 45.586 0 29.396-27.062 52.345-58.635 68.195-93.852 15.824-35.143 23.859-72.415 23.859-110.777-0.007-154.342-131.928-280.843-297.392-288.955zM278.312 29.681c0-16.391 14.432-29.681 32.232-29.681h402.902c17.799 0 32.234 13.29 32.234 29.681s-14.435 29.681-32.234 29.681h-402.902c-17.8 0-32.232-13.29-32.232-29.681zM632.864 148.407c17.803 0 32.234 13.29 32.234 29.681s-14.431 29.681-32.234 29.681h-241.74c-17.8 0-32.232-13.29-32.232-29.681s14.432-29.681 32.232-29.681h241.74zM676.344 383.214c-19.525-32.68-41.505-64.004-66.165-94.457-5.844-7.223-14.779-11.026-23.823-11.026-6.213 0-12.475 1.792-17.832 5.511-13.147 9.139-15.806 26.412-5.95 38.587 91.11 112.527 175.587 264.697 179.844 610.477h-460.842c4.255-345.788 88.73-497.951 179.842-610.477 9.852-12.175 7.19-29.447-5.954-38.587-13.133-9.128-31.788-6.667-41.651 5.515-24.659 30.453-46.638 61.776-66.164 94.457-152.736 7.53-274.507 124.997-274.507 268.321 0 35.616 7.408 70.226 22.024 102.865 14.638 32.701 35.815 62.019 62.942 87.148 11.626 10.763 30.46 10.763 42.078 0s11.618-28.216 0-38.978c-21.578-19.988-38.418-43.298-50.052-69.282-11.604-25.914-17.487-53.42-17.487-81.753 0-102.685 78.637-188.654 183.054-209.009-65.538 135.815-93.796 297.653-93.796 517.342 0 15.221 13.322 27.561 29.753 27.561h520.673c16.432 0 29.751-12.34 29.751-27.561 0-219.689-28.255-381.527-93.795-517.342 104.419 20.356 183.055 106.331 183.055 209.009 0 28.333-5.884 55.839-17.488 81.746-11.626 25.99-28.464 49.3-50.052 69.282-11.619 10.763-11.626 28.216 0 38.978 11.619 10.763 30.453 10.77 42.079 0 27.136-25.129 48.318-54.447 62.95-87.148 14.607-32.632 22.023-67.242 22.023-102.866-0.007-143.316-121.779-260.784-274.512-268.314zM296.288 64.132c0-15.221 13.322-27.56 29.753-27.56h371.909c16.432 0 29.755 12.339 29.755 27.56s-13.323 27.56-29.755 27.56h-371.909c-16.431 0-29.753-12.339-29.753-27.56zM623.568 174.376c16.432 0 29.755 12.343 29.755 27.56 0 15.221-13.323 27.564-29.755 27.564h-223.145c-16.431 0-29.753-12.343-29.753-27.564 0-15.217 13.322-27.56 29.753-27.56h223.145z" />
<glyph unicode="&#xe903;" glyph-name="icon_twitter" data-tags="uEA13-icon_twitter" d="M1024 819.067c-37.676-16.184-78.131-27.107-120.671-31.966 43.374 25.127 76.69 64.923 92.409 112.331-40.616-23.24-85.555-40.198-133.413-49.264-38.341 39.455-92.95 64.118-153.412 64.118-116.029 0-210.036-90.917-210.036-203.092 0-15.906 1.824-31.44 5.41-46.294-174.604 8.479-329.394 89.339-433.036 212.221-18.053-30.017-28.423-64.892-28.423-102.118 0-70.493 37.097-132.631 93.431-169.083-34.409 1.083-66.801 10.18-95.127 25.405-0.032-0.835-0.032-1.732-0.032-2.537 0-98.437 72.402-180.534 168.522-199.193-17.604-4.611-36.169-7.118-55.341-7.118-13.572 0-26.695 1.269-39.498 3.621 26.694-80.643 104.314-139.376 196.209-141.048-71.857-54.463-162.44-86.986-260.865-86.986-16.964 0-33.704 0.959-50.125 2.847 92.952-57.557 203.379-91.195 322.033-91.195 386.401 0 597.746 309.481 597.746 577.899 0 8.789-0.256 17.577-0.636 26.303 41.062 28.624 76.661 64.366 104.857 105.151z" />
<glyph unicode="&#xe904;" glyph-name="icon_share" data-tags="Vector" d="M819.392 409.6c-0.064 0-0.128 0-0.192 0-70.912-0.064-133.376-36.16-170.048-91.008l-259.712 106.176c12.544 26.56 20.16 55.872 20.16 87.232 0 22.4-4.48 43.584-11.136 63.744l253.056 126.464c36.992-52.992 98.176-87.808 167.68-87.808 113.152 0 204.8 91.712 204.8 204.8s-91.712 204.8-204.8 204.8c-113.088 0-204.8-91.712-204.8-204.8 0-20.736 4.032-40.32 9.664-59.136l-254.592-127.296c-37.312 50.752-96.896 84.032-164.672 84.032-113.088 0-204.8-91.648-204.8-204.8s91.712-204.8 204.8-204.8c58.176 0 110.464 24.576 147.712 63.488l270.464-110.528c-4.992-17.728-8.512-36.096-8.512-55.424 0.064-113.024 91.648-204.736 204.736-204.736 113.152 0 204.8 91.648 204.928 204.736 0 113.088-91.648 204.8-204.736 204.864z" />
<glyph unicode="&#xe905;" glyph-name="icon_dislike" data-tags="icon_dislike" d="M663.103 308.896c10.030 0 17.007 0 23.985 0 60.179 0 120.794-0.448 180.97 0.448 44.045 0.448 71.953 18.832 79.802 63.662 7.85 43.488 8.722 88.769 8.722 133.152 0 55.593-10.466 109.84-30.526 161.846-42.298 110.288-122.535 167.225-236.351 174.846-108.146 7.173-212.369-17.484-313.974-52.455-5.232-1.793-12.209-10.759-12.209-16.587-0.872-139.877-0.872-279.307 0-419.181 0-8.073 3.488-18.384 8.723-24.661 31.396-37.661 63.231-75.764 96.808-111.634 20.496-21.965 44.915-40.348 67.153-60.521 64.541-58.732 109.022-157.811 185.333-157.811 23.985 0 33.582 67.696 23.985 112.083-13.519 64.111-37.501 123.735-72.388 178.881-3.053 4.482-5.668 9.413-10.030 17.93zM115.385 309.79h124.281c26.599 0 47.967 21.968 47.967 49.318v433.53c0 27.347-21.368 49.316-47.967 49.316h-124.281c-26.6 0-47.967-21.967-47.967-49.316 0-135.393 0-271.685 0-433.53 0-27.348 21.368-49.318 47.967-49.318z" />
<glyph unicode="&#xe906;" glyph-name="icon_like" data-tags="icon_like" d="M663.105 715.107c10.030 0 17.007 0 23.985 0 60.174 0 120.79 0.448 180.969-0.448 44.044-0.448 71.952-18.829 79.801-63.662 7.85-43.488 8.722-88.768 8.722-133.152 0-55.589-10.463-109.838-30.526-161.844-42.298-110.288-122.534-167.223-236.35-174.847-108.15-7.17-212.372 17.486-313.977 52.454-5.232 1.795-12.21 10.759-12.21 16.588-0.872 139.879-0.872 279.305 0 419.181 0 8.070 3.488 18.381 8.723 24.657 31.397 37.66 63.231 75.766 96.809 111.633 20.496 21.967 44.916 40.35 67.156 60.523 64.538 58.73 109.016 157.81 185.331 157.81 23.985 0 33.577-67.696 23.985-112.080-13.519-64.109-37.504-123.736-72.387-178.88-3.056-4.483-5.668-9.414-10.030-17.932zM115.385 714.212h124.28c26.599 0 47.967-21.967 47.967-49.316v-433.528c0-27.344-21.368-49.312-47.967-49.312h-124.28c-26.6 0-47.967 21.968-47.967 49.312 0 135.396 0 271.685 0 433.528 0 27.347 21.368 49.316 47.967 49.316z" />
<glyph unicode="&#xe907;" glyph-name="icon_mail" data-tags="icon_mail" d="M39.385 800.821v39.385h-39.385v-39.385h39.385zM984.616 800.821h39.385v39.385h-39.385v-39.385zM984.616 223.179v-39.385h39.385v39.385h-39.385zM39.385 223.179h-39.385v-39.385h39.385v39.385zM511.971 479.886l-21.082-33.267 21.082-13.361 21.083 13.361-21.083 33.267zM39.385 761.436h945.231v78.769h-945.231v-78.769zM945.231 800.821v-577.641h78.769v577.641h-78.769zM984.616 262.564h-945.231v-78.769h945.231v78.769zM78.77 223.179v577.641h-78.769v-577.641h78.769zM85.79 703.349l405.099-256.729 42.165 66.533-405.099 256.729-42.165-66.533zM533.054 446.619l405.099 256.729-42.163 66.533-405.101-256.729 42.165-66.533z" />
<glyph unicode="&#xe908;" glyph-name="icon_shield" data-tags="icon_shield" d="M41.759 897.869c-0.232-3.922-0.697-7.152-0.697-10.612 0-79.134-0.232-158.498 0-237.631 0.232-49.372 4.18-98.282 15.792-146.269 59.452-246.398 209.012-413.662 447.749-502.254 4.412-1.616 10.683-1.385 15.328 0.23 114.493 39.683 212.496 104.281 292.152 195.18 104.041 119.046 161.868 257.472 168.604 414.816 3.948 93.206 1.626 186.874 2.090 280.081 0 2.077-0.697 4.153-1.162 6.69-2.786 0.231-5.109 0.462-7.431 0.693-76.87 2.077-152.579 12.689-226.894 31.608-80.818 20.533-159.080 47.295-229.912 92.514-2.788 1.846-8.826 1.153-12.077-0.693-120.994-71.751-253.601-105.896-392.477-119.738-23.456-2.077-46.911-2.999-71.064-4.614z" />
<glyph unicode="&#xe909;" glyph-name="icon_star" data-tags="icon_star" d="M529.488 951.569l24.023 9.014-20.591 54.876-26.351-52.355 22.92-11.535zM405.292 705.327l-22.952 11.477-0.116-0.241 23.067-11.237zM329.627 649.857l-3.394 25.434-0.268-0.039 3.662-25.396zM136.026 621.863l-3.662 25.399-0.288-0.044 3.951-25.354zM52.011 608.385l-4.261 25.303-47.75-8.041 33.467-34.995 18.544 17.734zM73.928 585.574v0zM256.048 403.614l18.523 17.759-0.052 0.052-18.47-17.81zM274.834 359.551l-25.357 3.926-0.004-0.029 25.361-3.897zM236.74 156.336l25.17-4.984 0.021 0.105-25.191 4.879zM218.476 56.282l-25.234 4.65-9.656-52.392 46.985 25.114-12.095 22.628zM473.654 194.18l12.698-22.297 0.012 0.009-12.71 22.288zM551.407 194.18l-12.288-22.526 0.020-0.012 12.268 22.538zM780.493 70.8l-12.149-22.602 0.134-0.070 12.015 22.672zM806.581 57.322l-12.3-22.518 45.843-25.050-8.201 51.593-25.341-4.025zM803.973 77.018l-25.236-4.658 0.081-0.404 25.155 5.062zM754.92 338.816l25.229 4.686-0.026 0.125-25.204-4.812zM779.447 415.539l-17.499 18.766-0.177-0.166 17.676-18.599zM953.218 587.13l-18.083 18.205-0.084-0.084 18.167-18.121zM972.526 607.865l18.625-17.647 32.85 34.675-47.045 8.247-4.429-25.275zM954.261 610.977l-3.833-25.37 0.51-0.076 0.51-0.055 2.812 25.502zM686.039 649.857l-2.98-25.484 0.035-0.006 2.945 25.49zM623.418 701.698l24.155 8.655-0.035 0.103-24.12-8.758zM506.567 963.105c-43.28-85.995-83.997-165.86-124.224-246.302l45.897-22.953c40.137 80.263 80.825 160.068 124.167 246.183l-45.84 23.071zM382.225 716.563c-12.052-24.743-29.911-37.791-55.992-41.271l6.788-50.867c43.844 5.85 76.082 30.127 95.339 69.666l-46.135 22.472zM325.965 675.253c-64.722-9.334-128.907-18.664-193.6-27.994l7.324-50.793c64.722 9.334 128.907 18.667 193.6 27.994l-7.324 50.793zM132.076 647.216c-26.614-4.147-53.381-8.319-84.325-13.529l8.521-50.606c30.633 5.158 57.092 9.282 83.706 13.429l-7.902 50.705zM33.466 590.651c9.757-10.203 15.724-16.662 22.378-23.279l36.167 36.406c-5.871 5.821-11.384 11.806-21.456 22.34l-37.088-35.467zM55.844 567.372c61.172-60.77 122.553-120.193 181.733-181.569l36.941 35.621c-59.798 62.005-121.569 121.815-182.507 182.355l-36.167-36.406zM237.526 385.858c3.117-3.252 6.756-8.474 9.286-13.994 2.773-5.792 1.897-10.006 2.666-8.387l50.714-7.854c2.173 14.032-2.243 27.836-6.727 37.623-4.639 9.901-12.271 21.092-18.894 28.129l-37.044-35.515zM249.472 363.449c-10.309-67.159-24.827-134.584-37.924-202.236l50.383-9.753c12.994 67.134 27.7 135.534 38.264 204.196l-50.723 7.794zM211.57 161.321c-6.338-32.026-11.586-63.817-18.328-100.387l50.468-9.302c6.826 37.045 12.015 68.499 18.2 99.72l-50.34 9.968zM230.571 33.655c89.090 47.617 173.41 91.327 255.781 138.227l-25.396 44.596c-81.487-46.411-165.198-89.797-254.575-137.564l24.19-45.259zM486.364 171.892c11.309 6.665 17.502 8.512 26.355 8.102 8.785 0.148 15.238-2.126 26.4-8.339l24.571 45.050c-15.45 8.301-33.783 14.061-50.179 14.6-16.325-0.023-35.701-5.43-52.572-14.838l25.425-44.576zM539.139 171.642c76.277-41.52 153.048-82.506 229.205-123.444l24.295 45.201c-76.219 40.971-152.87 81.894-228.964 123.316l-24.536-45.073zM768.478 48.126c8.435-4.458 16.114-8.015 25.803-13.323l24.603 45.035c-11.184 6.097-19.161 9.799-26.38 13.635l-24.027-45.346zM831.923 61.347c-1.325 7.842-1.373 13.035-2.794 20.735l-50.311-10.125c0.667-2.666 0.619-6.806 2.425-18.664l50.68 8.054zM829.206 81.678c-16.194 87.696-32.895 174.801-49.057 261.824l-50.455-9.372c16.191-87.166 32.885-174.246 49.047-261.769l50.465 9.317zM780.124 343.627c-2.518 12.515-2.585 19.779 0.442 28.761 2.57 9.241 6.617 15.35 16.557 24.55l-35.352 37.202c-14.064-13.609-25.149-30.826-30.278-46.728-4.67-16.165-5.001-35.855-1.777-53.409l50.407 9.625zM796.946 396.773c59.949 55.908 117.158 114.817 174.439 172.236l-36.333 36.243c-57.524-57.665-114.076-115.918-173.105-170.946l34.998-37.533zM971.301 568.928c6.546 6.54 12.027 13.051 19.851 21.291l-37.254 35.294c-8.875-9.381-13.83-15.315-18.763-20.177l36.166-36.406zM976.956 633.14c-8.32 1.452-13.817 2.635-19.88 3.341l-5.629-51.006c3.329-0.334 7.223-1.222 16.646-2.881l8.862 50.546zM958.094 636.348c-89.018 13.445-178.695 28.546-269.111 38.999l-5.889-50.979c89.094-10.282 177.886-25.248 267.334-38.761l7.665 50.742zM689.018 675.343c-14.016 1.638-21.608 5.47-26.589 9.831-6.87 5.534-10.215 11.944-14.856 25.179l-48.309-17.309c6.319-17.35 16.54-34.788 29.369-46.49 14.719-12.877 32.956-19.672 54.425-22.179l5.959 50.969zM647.538 710.456c-29.848 82.187-61.206 162.668-94.027 250.127l-48.046-18.029c32.933-87.762 64.195-167.986 93.837-249.615l48.235 17.517z" />
<glyph unicode="&#xe90a;" glyph-name="icon_cup" data-tags="icon_cup" d="M722.646 105.441h-413.993c-30.109 0-60.218-22.59-60.218-52.705 0-30.119 30.109-52.709 60.218-52.709h413.993c30.11 0 60.22 22.59 60.22 52.709 0 30.115-30.11 52.705-60.22 52.705zM1001.116 775.503c-15.057 37.647-45.167 67.765-75.273 97.882-15.057 15.059-45.163 15.059-60.22 7.529 0 30.118 0 60.236 0 90.353s-30.106 52.706-60.216 52.706h-579.592c-30.109 0-60.218-22.588-60.218-52.706s0-60.235 0-90.353c-22.581 7.53-45.163 7.53-60.217-7.529-30.109-30.118-60.217-60.235-75.272-97.882s-30.108-75.294-30.108-120.471c0-158.116 135.489-286.116 316.141-301.178 22.581-30.115 45.164-60.233 67.745-90.352 7.527-7.529 15.054-15.057 22.581-15.057h-22.581c-30.109 0-60.217-22.59-60.217-52.705 0-30.119 30.109-52.709 60.217-52.709h248.398c30.106 0 60.216 22.59 60.216 52.709 0 30.115-30.11 52.705-60.216 52.705h-22.586c7.529 0 15.057 7.529 22.586 15.057 22.581 30.119 45.163 60.238 67.744 90.352 180.651 15.062 316.14 143.062 316.14 301.178 15.053 37.647 7.529 82.824-15.053 120.471zM858.099 783.032c15.053-15.059 30.106-30.118 37.634-52.706s15.053-45.177 15.053-75.294c0-75.294-52.687-143.059-127.96-173.178 37.634 90.352 60.216 180.707 75.273 301.178zM248.397 481.854c-75.272 30.119-127.962 97.884-127.962 173.178 0 22.589 7.527 52.706 15.054 75.294s22.581 37.647 37.636 52.706c15.055-120.47 37.636-210.825 75.272-301.178z" />
<glyph unicode="&#xe90b;" glyph-name="icon_points" data-tags="icon_points" d="M312.004 477.279c-7.47-24.468-14.646-47.977-22.116-72.445-19.53 5.962-38.346 11.704-58.352 17.812 0.567 2.711 0.731 5.808 1.683 8.927 17.721 58.053 34.893 116.009 53.329 173.841 16.806 53.35 71.905 87.142 127.651 79.562 59.706-8.261 102.399-54.336 104.609-111.916 2.081-55.445-44.434-136.174-127.296-128.712-23.778 2.278-49.080 12.362-79.511 32.929zM453.782 549.382c8.988 30.297-8.164 62.807-37.533 71.511-30.157 8.681-61.442-8.517-70.907-38.669-9.447-30.945 6.917-63.478 37.166-72.709 29.934-9.403 61.99 8.609 71.273 39.867zM524.948 408.859c-19.293 5.888-36.679 11.198-54.064 16.504-1.908 0.581-3.666 1.643-6.687 2.829 4.247 13.914 8.11 27.418 12.447 40.778 9.631 29.842 17.19 60.575 29.77 88.99 17.526 39.493 49.853 62.666 93.307 65.134 42.903 2.376 78.208-14.172 104.302-51.507-18.278-10.417-35.863-20.26-52.971-30.246-7.367 4.872-13.412 10.652-20.741 13.936-28.050 13.020-59.886-0.86-69.442-30.462-10.875-33.918-20.964-67.815-31.362-101.878-1.482-4.004-2.801-8.323-4.557-14.080zM797.349 118.949l-89.6 89.6 18.101 18.101 89.6-89.6-18.101-18.101zM899.75 208.549l-89.6 89.6 18.101 18.101 89.6-89.6-18.101-18.101zM950.949 362.149l-89.6 89.6 18.101 18.101 89.6-89.6-18.101-18.101zM976.55 515.749l-89.6 89.6 18.101 18.101 89.6-89.6-18.101-18.101zM563.010 25.601c-84.306 0.926-165.598 24.346-240.407 70.021-8.802 5.332-18.299 9.971-27.794 14.144-157.954 67.471-258.472 184.56-287.423 354.283-30.34 176.678 34.046 321.126 169.999 434.274 62.534 52.168 135.721 83.238 216.089 95.063 109.78 16.23 211.919-7.419 306.877-63.993 15.982-9.507 33.815-16.231 50.724-24.577 154.711-75.587 248.745-197.546 269.358-369.122 19.687-165.548-42.85-301.42-169.536-406.914-83.38-69.558-179.727-102.019-287.887-103.178zM458.091 143.154c223.037-0.231 396.28 172.042 395.816 395.556-0.696 230.7-177.874 393.466-394.194 394.393-225.817 0.927-392.573-171.345-395.121-389.293-2.779-246.003 195.475-400.885 393.498-400.655zM564.167 90.986c146.376-3.246 300.163 78.833 366.17 239.28 60.682 147.461 23.856 310.692-54.658 399.959 127.153-265.946-40.53-571.767-311.51-639.239z" />
<glyph unicode="&#xe90c;" glyph-name="icon_ok" data-tags="icon_ok" d="M511.969 512.21c50.625 0 100.113 15.009 142.207 43.127s74.901 68.082 94.274 114.842c19.374 46.759 24.442 98.211 14.566 147.849s-34.254 95.234-70.052 131.022c-35.798 35.787-81.406 60.159-131.058 70.033s-101.118 4.806-147.891-14.562c-46.771-19.368-86.747-52.167-114.874-94.249s-43.137-91.556-43.137-142.167c0-67.868 26.968-132.954 74.97-180.944s113.108-74.95 180.994-74.95zM511.969 896.052c25.313 0 50.057-7.504 71.104-21.562s37.45-34.042 47.137-57.421c9.687-23.38 12.222-49.105 7.283-73.925s-17.127-47.617-35.027-65.511c-17.898-17.894-40.702-30.078-65.528-35.016s-50.559-2.404-73.945 7.281c-23.386 9.684-43.374 26.083-57.437 47.125s-21.569 45.778-21.569 71.084c0 33.933 13.483 66.478 37.485 90.473s56.555 37.475 90.498 37.475zM802.093 362.076c15.706 10.311 28.606 24.36 37.543 40.886s13.625 35.011 13.65 53.796c0.355 11.298-1.609 22.548-5.771 33.058s-10.434 20.054-18.428 28.048c-7.995 7.992-17.542 14.263-28.055 18.423s-21.766 6.125-33.067 5.769c-18.656-0.030-36.788-6.172-51.619-17.486-59.434-44.406-131.64-68.399-205.837-68.399s-146.405 23.994-205.839 68.399c-14.266 9.955-31.236 15.313-48.634 15.353-11.301 0.355-22.554-1.609-33.067-5.768s-20.060-10.432-28.055-18.424c-7.995-7.992-14.266-17.538-18.428-28.048s-6.126-21.761-5.771-33.058c0.025-18.786 4.716-37.27 13.651-53.796s21.835-30.573 37.543-40.885c41.433-26.48 86.382-47.009 133.528-60.989l27.303-7.677-139.927-137.33c-8.462-8.369-15.178-18.331-19.763-29.313s-6.945-22.759-6.945-34.664c0-11.896 2.36-23.674 6.945-34.661 4.584-10.977 11.301-20.944 19.763-29.308 17.126-16.675 40.086-26.005 63.991-26.005s46.865 9.33 63.991 26.005l141.207 147.99 142.060-147.134c16.971-16.966 39.99-26.505 63.991-26.505s47.019 9.539 63.991 26.505c16.971 16.966 26.506 39.976 26.506 63.969 0 23.995-9.535 47.007-26.506 63.974l-142.060 136.050 27.73 7.677c47.585 14.694 92.835 36.091 134.382 63.547z" />
<glyph unicode="&#xe90d;" glyph-name="icon_long-arrow" data-tags="icon_long-arrow" d="M1010.964 480.518c17.382 17.387 17.382 45.576 0 62.963l-283.339 283.334c-17.386 17.388-45.576 17.388-62.963 0-17.388-17.386-17.388-45.576 0-62.963l251.853-251.853-251.853-251.853c-17.388-17.386-17.388-45.576 0-62.963 17.386-17.388 45.576-17.388 62.963 0l283.339 283.334zM0 467.478h979.478v89.043h-979.478v-89.043z" />
<glyph unicode="&#xea01;" glyph-name="icon_fb" data-tags="icon_fb" d="M777.353 692.423h-180.74v106.278c0 39.913 29.504 49.218 50.286 49.218 20.734 0 127.546 0 127.546 0v175.464l-175.656 0.616c-194.998 0-239.371-130.866-239.371-214.614v-116.963h-112.772v-180.805h112.772c0-232.036 0-511.617 0-511.617h237.195c0 0 0 282.335 0 511.617h160.055l20.685 180.805z" />
<glyph unicode="&#xea02;" glyph-name="icon_instagram" data-tags="icon_inctagram" d="M768 1024h-512c-140.786 0-256-115.21-256-255.994v-512.012c0-140.746 115.214-255.994 256-255.994h512c140.788 0 256 115.248 256 255.994v512.012c0 140.784-115.212 255.994-256 255.994zM938.662 255.994c0-94.078-76.532-170.658-170.662-170.658h-512c-94.092 0-170.662 76.58-170.662 170.658v512.012c0 94.104 76.57 170.658 170.662 170.658h512c94.132 0 170.662-76.554 170.662-170.658v-512.012zM789.35 725.354c35.346 0 64 28.652 64 63.998s-28.654 63.998-64 63.998c-35.346 0-64-28.654-64-63.998s28.654-63.998 64-63.998zM512 768c-141.414 0-256-114.596-256-255.994 0-141.346 114.586-256.018 256-256.018 141.376 0 256 114.672 256 256.018 0 141.398-114.624 255.994-256 255.994zM512 341.322c-94.246 0-170.662 76.414-170.662 170.684s76.418 170.658 170.662 170.658c94.246 0 170.662-76.39 170.662-170.658s-76.418-170.684-170.662-170.684z" />
<glyph unicode="&#xea03;" glyph-name="icon_vk" data-tags="icon_vk" d="M244.146 367.279c115.703-104.668 246.954-97.81 246.954-97.81h59.635c0 0 18.095 1.77 27.27 10.4 8.41 7.965 8.156 22.793 8.156 22.793s-1.274 69.263 35.933 79.663c36.444 9.958 83.592-67.050 133.289-96.703 37.718-22.35 66.261-17.482 66.261-17.482l132.782 1.55c0 0 69.574 3.762 36.698 51.118-2.807 3.983-19.112 35.185-98.884 99.358-83.336 67.272-72.123 56.428 28.288 172.603 61.162 70.812 85.63 113.963 77.989 132.552-7.395 17.703-52.249 13.055-52.249 13.055l-149.853-0.885c0 0-11.213 1.328-19.369-2.877s-13.253-13.94-13.253-13.94c0 0-23.702-54.88-55.304-101.35-66.77-98.252-93.275-103.563-104.235-97.365-25.231 14.162-19.114 57.092-19.114 87.63 0 95.375 16.566 134.985-32.365 145.385-16.31 3.32-28.29 5.753-69.829 5.975-53.519 0.443-98.628-0.222-124.368-11.065-17.075-7.303-30.073-23.457-22.172-24.342 9.939-1.107 32.367-5.31 44.091-19.252 15.292-18.145 14.781-58.863 14.781-58.863s8.919-112.193-20.643-126.135c-20.134-9.515-47.912 9.958-107.293 99.137-30.582 45.585-53.519 96.26-53.519 96.26s-4.333 9.515-12.233 14.383c-9.685 6.195-22.937 7.967-22.937 7.967l-142.208-0.885c0 0-21.408-0.443-29.308-8.63-7.136-6.86-0.509-21.685-0.509-21.685s111.371-226.378 237.522-340.561z" />
<glyph unicode="&#xea04;" glyph-name="icon_burn" data-tags="icon_burn" d="M245.539 660.345c9.653-18.573 14.733-33.237 23.877-45.945 23.877-33.726 68.076-47.411 105.162-34.214 35.054 12.219 56.899 48.878 52.327 91.402-2.032 20.041-6.096 40.569-13.716 59.143-31.497 76.25-18.289 146.634 26.418 213.598 17.273 27.372 37.086 53.766 56.391 79.671 4.572-1.955 6.604-2.443 7.112-3.422 84.84-123.662 171.206-245.858 254.015-370.985 44.196-66.474 76.2-139.303 90.428-218.485 35.056-192.089-98.558-372.944-298.72-402.755-191.526-28.354-373.908 107.529-398.294 299.623-9.144 71.851 4.065 141.256 34.038 207.242 18.289 41.546 39.627 82.116 60.964 125.128zM499.552 479.496c-29.974-39.102-55.883-69.893-79.252-103.132-26.418-37.148-45.214-77.717-49.786-123.66-7.621-70.387 41.15-133.93 108.717-142.237 75.189-8.801 138.692 38.612 148.852 111.438 5.588 39.593-3.557 77.229-24.894 109.98-30.99 49.364-66.551 95.313-103.638 147.611z" />
<glyph unicode="&#xea05;" glyph-name="icon_gift" data-tags="icon_gift" d="M190.933 993.962c14.151 3.040 28.627 4.444 43.101 4.444 6.438 0 12.881 0 19.295 0 4.013 0 7.973-0.727 11.882-1.636 0.827-0.192 1.656-0.306 2.499-0.411 82.333-10.244 155.136-41.876 218.405-94.071 0.051-0.042 0.102-0.085 0.154-0.126 7.877-6.445 14.937-13.695 22.475-20.9 1.794-1.715 4.765-2.004 6.548-0.275 0.024 0.023 0.040 0.040 0.064 0.064 52.169 53.231 116.282 86.38 188.304 105.5 0.238 0.063 0.475 0.125 0.707 0.187 12.892 3.376 26.045 5.707 39.174 7.958 14.037 2.407 28.257 3.708 42.502 3.708 5.833 0 11.667 0 17.481 0 5.468 0 10.782-1.2 16.176-2.071 0.121-0.020 0.25-0.038 0.371-0.056 21.126-3.090 41.631-8.595 59.923-20.035 0.768-0.481 1.536-0.974 2.298-1.469 35.298-22.989 52.071-55.055 47.969-96.58-0.17-1.756-0.377-3.518-0.615-5.267-3.487-25.345-15.396-47.408-30.714-67.705 0.012 0.012-0.006-0.012 0 0-4.54-5.982-9.485-11.817-14.842-18.040-3.352-3.899-0.598-9.908 4.548-9.908 0 0 0 0 0 0 36.839 0 73.465 0 110.306 0 0 0 0 0 0 0 19.060 0 25.057-5.88 25.057-24.36 0 0 0 0 0 0 0-70.98 0-141.961 0-213.151 0 0 0 0 0 0 0-19.11-5.785-24.78-25.704-24.78 0 0 0 0 0 0-145.852 0-291.925 0-437.785 0 0 0 0 0 0 0-6.861 0-12.423 5.563-12.423 12.424 0 71.377 0 141.956 0 212.3 0 20.169-16.35 36.518-36.518 36.518s-36.518-16.35-36.518-36.518c0-72.232 0-144.092 0-215.938 0-4.7-3.652-8.785-8.352-8.785 0 0 0 0 0 0-143.693 0-287.588 0-431.293 0-8.613 0-17.712-1.189-25.52 2.444-6.857 3.192-9.888 9.662-9.888 20.446 0 0.001 0 0 0 0 0 71.82 0 143.431 0 215.251 0 0 0 0 0 0 0 18.27 6.211 24.361 25.060 24.361 0 0 0 0 0 0 37.054 0 74.32 0 111.374 0 0 0 0 0 0 0 4.429 0 6.945 5.030 4.249 8.542-9.799 12.758-19.407 24.656-27.301 37.531-0.052 0.086-0.106 0.17-0.158 0.256-16.602 26.556-24.705 55.61-17.548 86.952 0.043 0.186 0.087 0.375 0.13 0.562 9.619 41.055 37.876 65.067 77.305 77.93 0.676 0.22 1.357 0.442 2.036 0.656 5.143 1.626 10.432 2.899 15.787 4.050zM685.227 862.435c-64.598-27.923-39.357-85.61 25.454-58.189 0.14 0.058 0.274 0.115 0.414 0.174 65.348 27.74 39.296 86.183-25.868 58.015zM347.53 858.575c-65.245 29.995-94.462-30.085-27.818-56.824 0.368-0.148 0.735-0.294 1.104-0.44 61.368-24.389 86.714 29.681 26.714 57.264zM484.838 435.192c0-136.587 0-272.345 0-409.598-3.288 0-6.576 0-9.864 0-116.312 0-232.831 0-349.143 0-17.467 0-23.427 4.638-23.427 18.895 0 127.635 0 255.275 0 382.746 0 2.486 0.206 4.807 0.412 7.79 127.41 0.165 254.202 0.165 382.023 0.165zM547.598 25.594c0 137.252 0 273.176 0 409.598 124.738 0 248.655 0 374.010 0 0-3.813 0-6.963 0-10.277 0-125.98 0-251.792 0-377.774 0-17.737-4.73-21.546-26.307-21.546-111.994 0-223.994 0-335.783 0-3.699 0-7.398 0-11.919 0z" />
<glyph unicode="&#xea06;" glyph-name="icon_medal" data-tags="icon_medal" d="M262.4 1024c-45.968 0-83.2-38.189-83.2-85.329v-213.546c0-29.877 12.067-56.981 31.403-76.371l90.485-92.796c-61.984-58.472-101.084-142.522-101.084-235.962 0-176.645 139.779-319.995 311.999-319.995 172.211 0 312.006 143.35 312.006 319.995 0 93.44-39.107 177.49-101.079 235.962l90.465 92.796c19.343 19.39 31.406 46.495 31.406 76.371v213.544c0 47.142-37.233 85.329-83.2 85.329l-499.2 0.002zM512 490.665c7.283 0 13.313-4.716 15.396-11.315l37.869-95.35h97.133c8.729 0 16.005-9.61 16.005-18.355 0-5.33-2.502-10.020-6.465-12.795l-81.735-56.95c0 0 26.209-101.335 27.058-104.32 0.609-1.495 0.81-3.21 0.81-4.91 0-8.965-7.069-16-16.007-16-3.937 0-7.699 1.475-10.403 3.83l-79.661 63.79-79.668-63.79c-2.699-2.355-6.447-3.83-10.396-3.83-8.94 0-16.016 7.035-16.016 16 0 1.7 0.199 3.415 0.831 4.91 0.831 2.985 27.454 103.875 27.454 103.875l-82.156 57.395c-3.949 2.775-6.447 7.465-6.447 12.79 0 8.75 7.285 18.36 16.014 18.36h97.135l37.855 95.35c2.079 6.6 8.111 11.315 15.394 11.315zM366.399 874.664v-149.328c0-23.462-18.714-42.67-41.598-42.67s-41.597 19.21-41.597 42.67v149.328c0 23.462 18.713 42.672 41.597 42.672s41.598-19.212 41.598-42.672zM553.602 874.664v-192c0-23.457-18.729-42.665-41.602-42.665-22.884 0-41.598 19.208-41.598 42.665v192c0 23.462 18.716 42.672 41.598 42.672 22.873 0 41.602-19.212 41.602-42.672zM740.792 874.664v-149.328c0-23.462-18.729-42.67-41.59-42.67-22.875 0-41.604 19.21-41.604 42.67v149.328c0 23.462 18.729 42.672 41.604 42.672 22.866 0 41.59-19.212 41.59-42.672z" />
<glyph unicode="&#xea07;" glyph-name="icon_arrow" data-tags="icon_arrow" d="M698.472 512l69.528-69.528 69.528 69.528-69.528 69.528-69.528-69.528zM186.472 884.944l442.472-442.472 139.056 139.056-442.472 442.472-139.056-139.056zM628.944 581.528l-442.472-442.472 139.056-139.056 442.472 442.472-139.056 139.056z" />
<glyph unicode="&#xea09;" glyph-name="icon_check" data-tags="icon_check" d="M401.909 255.752l-52.138-61.619 56.696-47.973 52.517 52.514-57.075 57.077zM0.001 490.094l349.77-295.961 104.275 123.236-349.77 295.96-104.276-123.235zM458.984 198.675l565.016 565.016-114.155 114.15-565.012-565.014 114.15-114.153z" />
<glyph unicode="&#xea0a;" glyph-name="icon_quot" data-tags="icon_quot" d="M1024.001 297.279c0-60.971-19.617-110.013-58.85-147.125-39.233-34.462-88.93-51.692-149.089-51.692-70.621 0-129.471 23.858-176.551 71.574-44.465 47.716-66.698 117.965-66.698 210.745 0 87.48 11.77 161.706 35.31 222.674 26.155 63.622 56.236 116.64 90.238 159.054 36.618 45.065 73.236 80.852 109.853 107.361 39.235 26.508 73.237 45.065 102.008 55.669l98.085-139.172c-57.543-29.16-104.624-68.923-141.241-119.29-34.003-47.716-51.005-108.685-51.005-182.912 10.463 2.652 24.848 3.978 43.157 3.978 52.311 0 92.853-18.556 121.624-55.67 28.772-37.112 43.157-82.176 43.157-135.194zM451.189 297.279c0-60.971-19.617-110.013-58.85-147.125-39.235-34.462-88.93-51.692-149.089-51.692-70.621 0-129.471 23.858-176.552 71.574-44.465 47.716-66.698 117.965-66.698 210.745 0 87.48 11.77 161.706 35.31 222.674 26.156 63.622 56.235 116.64 90.238 159.054 36.618 45.065 73.236 80.852 109.854 107.361 39.235 26.508 73.237 45.065 102.008 55.669l98.084-139.172c-57.543-29.16-104.624-68.923-141.241-119.29-34.003-47.716-51.003-108.685-51.003-182.912 10.463 2.652 24.848 3.978 43.157 3.978 52.311 0 92.853-18.556 121.624-55.67 28.772-37.112 43.157-82.176 43.157-135.194z" />
<glyph unicode="&#xea0b;" glyph-name="icon_comment" data-tags="icon_comment" d="M222.522 285.722l33.495-26.971 32.26 40.066-45.148 24.65-20.609-37.743zM117.055 154.74l27.082-33.401 3.548 2.875 2.865 3.558-33.495 26.969zM123.787 147.465l-4.427 42.775-6.073-0.632-5.657-2.29 16.154-39.852zM404.285 225.687l6.884 42.45-14.035 2.275-12.626-6.539 19.777-38.186zM511.997 919.967c-136.818 0-262.952-38.993-356.016-104.48-92.972-65.422-155.98-159.994-155.98-269.617h86.005c0 74.117 42.46 145.090 119.47 199.282 76.917 54.123 185.28 88.81 306.521 88.81v86.005zM-0.001 545.87c0-126.019 82.924-232.923 201.915-297.888l41.215 75.486c-100.92 55.101-157.124 137.395-157.124 222.403h-86.005zM189.028 312.693l-105.468-130.985 66.989-53.937 105.468 130.982-66.989 53.942zM89.973 188.146c-10.081-8.176-18.507-22.048-17.288-39.353 1.061-15.038 8.94-25.414 14.818-30.98 10.25-9.693 30.393-19.137 52.435-10.197l-32.31 79.704c17.557 7.121 32.089-0.509 38.972-7.015 4.198-3.974 10.956-12.415 11.875-25.464 1.081-15.315-6.503-27.147-14.342-33.5l-54.161 66.808zM128.215 104.688c108.89 11.409 210.875 39.078 295.85 82.818l-39.554 76.368c-76.592-39.95-163.101-63.215-265.147-73.634l8.854-85.552zM397.403 183.243c34.931-5.647 74.276-9.595 114.594-9.651v86.005c-35.977-0.055-68.441 3.268-100.829 8.539l-13.765-84.894zM511.997 173.592c136.818 0 262.95 38.993 356.016 104.477 92.972 65.422 155.986 159.994 155.986 269.617h-86.005c0-74.117-42.462-145.090-119.475-199.282-76.914-54.123-185.277-88.81-306.518-88.81v-86.005zM1023.996 547.689c0 109.522-62.348 203.691-155.209 268.758-92.882 65.074-219.024 103.52-356.789 103.52v-86.005c122.539 0 230.889-34.321 307.433-87.951 76.551-53.637 118.56-124.104 118.56-198.322h86.005z" />
<glyph unicode="&#xea0c;" glyph-name="icon_view" data-tags="icon_view" d="M512.012 188.631c-155.977 0-384.842 88.119-499.972 296.711-13.787 14.48-14.738 43.149 0 56.696 14.776 13.546 123.904-107.071 137.729-121.55 98.12-103.189 226.746-159.998 362.241-159.998 174.192 0 334.595 93.597 433.005 251.512-98.374 157.912-258.812 251.51-433.005 251.51-180.591 0-346.405-100.641-443.614-269.223-9.948-17.282-32.33-23.39-49.849-13.546-17.592 9.773-23.735 31.691-13.787 48.973 110.337 191.399 299.998 305.653 507.248 305.653 207.288 0 396.911-114.259 507.25-305.653 6.323-10.994 6.323-24.432 0-35.391-110.34-191.399-299.963-305.691-507.25-305.691zM512.021 332.347c-100.829 0-182.86 80.591-182.86 179.651s82.030 179.651 182.86 179.651c100.827 0 182.86-80.591 182.86-179.651s-82.033-179.651-182.86-179.651zM512.021 619.787c-60.489 0-109.716-48.362-109.716-107.79s49.227-107.79 109.716-107.79c60.491 0 109.714 48.362 109.714 107.79s-49.223 107.79-109.714 107.79z" />
<glyph unicode="&#xea0d;" glyph-name="icon_light" data-tags="icon_light" d="M692.021 321.58c-120.231 0-238.781 0-356.769 0-0.84 1.392-1.682 2.51-1.682 3.066 5.326 25.656-8.688 38.483-28.867 52.424-119.95 83.66-175.161 231.177-141.25 372.836 33.35 140.268 148.537 246.234 292.31 269.38 205.71 33.464 397.686-115.17 413.379-322.64 10.649-140.268-46.521-249.86-162.826-329.058-11.212-7.526-16.538-14.776-14.576-27.884 0.84-5.576 0.281-11.157 0.281-18.125zM506.769 574.507c-34.753 34.858-68.382 68.599-102.014 102.062-17.936 17.846-34.753 17.846-52.128 0.559-16.254-16.454-15.975-33.464 1.401-51.030 45.402-45.455 91.083-90.63 136.485-136.086 5.044-5.294 9.248-11.432 12.892-16.17 4.484 1.951 5.605 2.228 6.166 2.785 51.288 50.753 102.295 101.785 153.582 152.538 8.69 8.644 12.054 19.24 8.69 30.675-4.204 14.221-14.013 24.261-28.308 28.445-12.892 3.904-23.541-0.836-32.789-10.317-33.911-34.020-68.103-68.042-103.975-103.457zM333.552 106.023c119.95 0 238.22 0 357.891 0-0.281-31.79-11.771-57.446-35.314-77.522-19.618-17.014-43.159-26.773-68.943-27.332-49.886-1.117-100.052-1.951-149.938 0-56.612 2.232-101.453 45.455-103.696 96.209 0 2.51 0 5.017 0 8.644zM691.479 248.523c0.281-3.35 0.563-6.134 0.563-8.925 0-19.799 0-39.875 0-60.791-119.671 0-238.22 0-357.891 0 0 23.142 0 46.013 0 69.714 119.11 0 237.939 0 357.326 0z" />
<glyph unicode="&#xea0e;" glyph-name="icon_lock" data-tags="icon_lock" d="M511.052 0.3c-78.436 0-156.618 0-235.055 0-113.951 0-201.585 68.286-219.725 171.413-2.81 16.013-2.045 32.961-2.045 49.211 0 73.697-1.021 147.635 0.511 221.329 1.788 82.645 63.363 156.344 149.209 180.596 10.986 3.062 14.052 7.533 14.052 17.894-0.511 41.675-1.278 83.116 0.256 124.793 5.621 146.454 143.077 263.478 301.992 258.298 160.195-5.179 284.876-123.381 285.895-271.482 0.259-38.379 0.259-76.995 0-115.374 0-7.533 2.301-10.595 10.478-12.949 93.253-27.313 153.040-102.425 153.294-192.838 0.259-76.056 0.259-152.107 0-228.397-0.254-114.667-93.766-201.788-218.447-202.73-80.477-0.232-160.447 0.237-240.417 0.237zM642.375 633.444c0 43.559 1.788 85.941-0.513 128.324-3.066 57.688-54.673 106.192-115.226 110.9-80.225 6.594-143.587-45.678-145.376-120.083-0.767-32.493-0.256-64.987-0.256-97.48 0-6.828 0-13.891 0-21.427 87.889-0.234 173.991-0.234 261.369-0.234zM446.157 264.248c0-16.486 0-32.968 0-49.45 0.256-36.498 27.594-63.336 64.895-63.811 37.557-0.469 65.662 26.608 65.918 63.811 0.256 30.138 0.511 60.277-0.256 90.652-0.256 12.008 2.555 20.954 11.241 30.611 32.192 35.786 28.102 88.059-7.92 120.551-35.514 32.022-91.467 34.376-130.302 5.416-38.324-28.489-49.565-81.942-19.928-118.202 14.307-17.423 17.118-34.374 16.351-53.917-0.256-8.477 0-17.194 0-25.664z" />
<glyph unicode="&#xea0f;" glyph-name="icon_watch" data-tags="icon_watch" d="M866.382 693.139c-1.712 2.546-3.418 5.094-5.558 8.702 16.466 15.916 32.934 31.198 48.542 47.114 21.816 22.284 22.67 54.542 2.78 76.826-22.026 24.618-57.954 25.678-82.758 1.91-16.038-15.492-31.652-31.41-47.69-47.538-2.78 2.122-5.558 4.032-8.338 6.154-1.282 1.062-2.564 2.122-3.852 2.972-51.322 37.14-108.423 61.97-170.653 74.704-2.136 0.424-4.276 0.848-6.202 1.274-20.528 4.244-23.738 4.882-24.376 19.524 0 8.914 0 17.614 0 26.952 4.276 0 8.338 0 12.19 0 10.478 0 20.528-0.212 30.578 0.212 33.788 0.848 57.954 24.618 57.738 56.876 0 24.83-19.032 48.176-42.984 53.48-0.214 0-0.638 0.212-0.854 0.212s-0.644 0.212-0.858 0.212c-2.78 0.424-5.344 0.848-8.338 0.848-33.578 0.212-67.15 0.424-100.511 0.424-1.070 0-2.138 0-3.208 0s-2.138 0-3.208 0c-33.576 0-67.15-0.212-100.511-0.424-2.78 0-5.56-0.212-8.34-0.848-0.214 0-0.642-0.212-0.856-0.212s-0.642-0.212-0.856-0.212c-23.952-5.306-42.77-28.65-42.984-53.48-0.214-32.258 23.738-56.028 57.74-56.876 10.050-0.212 20.102-0.212 30.58-0.212 3.85 0 7.7 0 12.19 0v-26.952c-0.428-14.644-3.85-15.28-24.38-19.524-2.138-0.424-4.276-0.848-6.202-1.274-62.23-12.734-119.329-37.564-170.655-74.704-1.924-1.274-3.636-2.758-5.346-4.244-21.172-16.128-45.764-29.286-96.661-98.897-167.875-239.177-56.67-566.007 212.569-660.234 47.476-17.404 96.449-26.108 146.917-25.892 50.47-0.424 99.657 8.49 147.133 25.892 271.592 95.287 382.364 427.42 207.219 667.238zM313.789 695.261c4.064 2.122 8.126 4.456 12.19 7.216 23.952 16.342 48.544 29.074 73.778 38.838 12.832 4.668 26.090 8.488 39.776 11.672 24.592 5.518 48.758 8.276 72.282 8.488 23.738-0.212 47.902-2.972 72.282-8.488 13.688-3.184 26.946-7.004 39.776-11.672 25.234-9.55 50.044-22.496 73.782-38.838 4.062-2.758 8.124-5.094 12.19-7.216 144.345-108.023 179.421-324.28 47.474-472.839-19.676-22.074-40.848-40.75-63.302-56.242-4.276-1.696-8.338-3.818-12.614-6.364-41.276-25.044-85.968-40.96-134.087-45.632-12.19-1.058-23.952-1.696-35.714-1.696s-23.524 0.638-35.714 1.696c-48.33 4.456-93.027 20.372-134.085 45.632-4.064 2.546-8.34 4.666-12.618 6.364-22.454 15.282-43.626 34.168-63.3 56.242-131.519 148.559-96.449 364.816 47.902 472.839zM510.328 348.691c48.758 0 88.75 39.264 88.106 87.65-0.214 9.128 2.356 15.916 8.128 22.922 29.51 35.864 58.378 72.152 87.678 108.235 8.338 10.398 14.112 21.434 10.694 35.016-6.418 25.68-35.714 35.23-57.53 18.252-37.848-29.5-75.274-59.424-112.699-89.348-7.056-5.73-13.686-11.668-22.24-8.060-50.040 0.21-89.39-38.414-90.033-86.592-0.428-48.386 39.134-88.074 87.892-88.074z" />
</font>
</defs>
</svg>
