<svg width="15" height="11" viewBox="0 0 15 11" version="1.1" xmlns="http://www.w3.org/2000/svg" xmlns:xlink="http://www.w3.org/1999/xlink">
<title>Group</title>
<desc>Created using Figma</desc>
<g id="Canvas" transform="translate(7235 -13792)">
<g id="Group">
<g id="Vector">
<use xlink:href="#path0_fill" transform="translate(-7235 13792)" fill="#FFFFFF"/>
</g>
<g id="Vector">
<use xlink:href="#path1_fill" transform="translate(-7226.87 13792)" fill="#FFFFFF"/>
</g>
</g>
</g>
<defs>
<path id="path0_fill" d="M 2.27676 8.2422C 2.27676 9.15827 2.27676 10.0384 2.27676 10.9545C 1.52895 10.9545 0.808489 10.9545 0.0424345 10.9545C 0.0333148 10.8557 0.00595572 10.7479 0.00595572 10.6312C 0.00595572 8.45774 -0.0122837 6.29329 0.0150754 4.11985C 0.0333148 2.11705 1.6019 0.383691 3.6356 0.0603695C 5.8152 -0.280914 7.8033 0.850711 8.4964 2.79962C 9.16213 4.67668 8.39608 7.92786 5.41394 8.53857C 4.55669 8.70922 3.56264 8.62839 2.27676 8.2422ZM 6.47182 4.29049C 6.4627 3.15887 5.51425 2.22483 4.39253 2.23381C 3.24345 2.25177 2.33148 3.16785 2.32236 4.29947C 2.32236 5.45804 3.24345 6.40106 4.40165 6.40106C 5.55073 6.41004 6.48094 5.45804 6.47182 4.29049Z"/>
<path id="path1_fill" d="M 2.3387 8.40464C 1.6 8.40464 0.934265 8.40464 0.268527 8.40464C 0.195569 8.40464 0.122609 8.38668 0.0040532 8.3777C 0.0040532 7.85679 -0.0050665 7.35385 0.0040532 6.8509C 0.0222926 5.72826 -0.0415453 4.59664 0.0952502 3.49195C 0.286764 1.95618 1.17138 0.824554 2.66701 0.285685C 4.1444 -0.244203 5.55795 -0.0466175 6.87119 0.959271C 6.34224 1.50712 5.83154 2.02803 5.33908 2.54893C 5.02901 2.45912 4.75542 2.32441 4.46359 2.28848C 3.34187 2.1358 2.37517 2.9441 2.35693 4.05777C 2.3387 5.33309 2.34782 6.59943 2.34782 7.87475C 2.3387 8.02743 2.3387 8.1891 2.3387 8.40464Z"/>
</defs>
</svg>
