<?xml version="1.0" encoding="utf-8"?>
<!-- Generator: Adobe Illustrator 17.1.0, SVG Export Plug-In . SVG Version: 6.00 Build 0)  -->
<!DOCTYPE svg PUBLIC "-//W3C//DTD SVG 1.1//EN" "http://www.w3.org/Graphics/SVG/1.1/DTD/svg11.dtd">
<svg version="1.1" id="Слой_1" xmlns="http://www.w3.org/2000/svg" xmlns:xlink="http://www.w3.org/1999/xlink" x="0px" y="0px"
	 viewBox="-116.3 -8.3 34.8 52.5" enable-background="new -116.3 -8.3 34.8 52.5" xml:space="preserve">
<title>Vector</title>
<desc>Created using Figma</desc>
<g>
	<path fill="#FFFFFF" d="M-85.7,22.3c2.2,5.8,3.2,11.3,3.8,15.3c0.3,2,0.4,3.6,0.5,4.8c0,0.6,0.1,1,0.1,1.3c0,0.2,0,0.3,0,0.3
		c0,0,0,0.1,0,0.1c0,0,0,0,0,0V-7.3h-31.9C-97.8-1.1-89.8,11.3-85.7,22.3z"/>
	<path fill="#B6B6B6" d="M-82.4,44.2c0,0,0,0,0.5,0s0.5,0,0.5,0L-82.4,44.2C-82.4,44.2-82.4,44.2-82.4,44.2z"/>
	<path fill="#B6B6B6" d="M-116.1-8.3l-0.2,1c0.1,0,0.2,0.1,0.3,0.1c16.7,5.7,25.1,18.5,29.3,29.9c2.1,5.7,3.2,11.1,3.7,15.1
		c0.3,2,0.4,3.6,0.5,4.7c0,0.6,0,1,0.1,1.3c0,0.1,0,0.3,0,0.3c0,0,0,0.1,0,0.1c0,0,0,0,0,0c0,0,0,0,0,0c0,0,0,0,0,0h1c0,0,0,0,0,0
		c0,0,0,0,0,0c0,0,0,0,0,0c0,0,0-0.1,0-0.1c0-0.1,0-0.2,0-0.3c0-0.3,0-0.8-0.1-1.3c-0.1-1.1-0.2-2.8-0.5-4.8
		c-0.5-4-1.6-9.5-3.8-15.3c-4.1-11-12.1-23.4-27.6-29.6h31.9v-0.5v-0.5v0H-116.1z"/>
</g>
</svg>
