<svg width="17" height="19" viewBox="0 0 17 19" version="1.1" xmlns="http://www.w3.org/2000/svg" xmlns:xlink="http://www.w3.org/1999/xlink">
<title>Group</title>
<desc>Created using Figma</desc>
<g id="Canvas" transform="translate(7189 -14048)">
<g id="Group">
<g id="Vector">
<use xlink:href="#path0_stroke" transform="matrix(0.56035 0.828256 -0.828256 0.56035 -7177.66 14049.4)" fill="#FFFFFF"/>
</g>
<g id="Vector">
<use xlink:href="#path1_stroke" transform="matrix(0.56035 0.828256 -0.828256 0.56035 -7173.75 14054.5)" fill="#FFFFFF"/>
</g>
<g id="Vector">
<use xlink:href="#path2_stroke" transform="matrix(0.56035 0.828256 -0.828256 0.56035 -7176.04 14050.5)" fill="#FFFFFF"/>
</g>
<g id="Vector">
<use xlink:href="#path3_stroke" transform="matrix(0.56035 0.828256 -0.828256 0.56035 -7180.23 14061.5)" fill="#FFFFFF"/>
</g>
</g>
</g>
<defs>
<path id="path0_stroke" d="M 4.40559 0.471955C 4.66625 0.380771 4.80363 0.0955513 4.71245 -0.165102C 4.62126 -0.425756 4.33604 -0.563138 4.07539 -0.471955L 4.40559 0.471955ZM 6.42874 12.6217C 6.70488 12.6217 6.92874 12.3978 6.92874 12.1217C 6.92874 11.8455 6.70488 11.6217 6.42874 11.6217L 6.42874 12.6217ZM 4.07539 -0.471955C 1.41495 0.458737 -0.5 2.9459 -0.5 5.87463L 0.5 5.87463C 0.5 3.39726 2.12086 1.27122 4.40559 0.471955L 4.07539 -0.471955ZM -0.5 5.87463C -0.5 9.61209 2.61803 12.6217 6.42874 12.6217L 6.42874 11.6217C 3.1431 11.6217 0.5 9.03297 0.5 5.87463L -0.5 5.87463Z"/>
<path id="path1_stroke" d="M 0 -0.5C -0.276142 -0.5 -0.5 -0.276142 -0.5 -2.29141e-08C -0.5 0.276142 -0.276142 0.5 0 0.5L 0 -0.5ZM 1.98954 11.6605C 1.72822 11.7498 1.58874 12.034 1.67799 12.2953C 1.76725 12.5566 2.05144 12.6961 2.31276 12.6069L 1.98954 11.6605ZM 0 0.5C 3.28563 0.5 5.92874 3.08872 5.92874 6.24706L 6.92874 6.24706C 6.92874 2.5096 3.8107 -0.5 0 -0.5L 0 0.5ZM 5.92874 6.24706C 5.92874 8.73599 4.29634 10.8727 1.98954 11.6605L 2.31276 12.6069C 5.0006 11.6888 6.92874 9.18825 6.92874 6.24706L 5.92874 6.24706Z"/>
<path id="path2_stroke" d="M 0.074815 -0.494371C -0.198219 -0.53569 -0.453052 -0.347849 -0.494371 -0.074815C -0.53569 0.198219 -0.347849 0.453052 -0.074815 0.494371L 0.074815 -0.494371ZM 2.54031 0.384434L 3.04024 0.392555L 3.04734 -0.0445276L 2.61512 -0.109937L 2.54031 0.384434ZM 2.00013 2.85364C 1.99564 3.12974 2.21584 3.35721 2.49194 3.36169C 2.76805 3.36618 2.99551 3.14599 3 2.86988L 2.00013 2.85364ZM -0.074815 0.494371L 2.46549 0.878805L 2.61512 -0.109937L 0.074815 -0.494371L -0.074815 0.494371ZM 2.04037 0.376313L 2.00013 2.85364L 3 2.86988L 3.04024 0.392555L 2.04037 0.376313Z"/>
<path id="path3_stroke" d="M 2.73577 4.06222C 3.00364 4.1293 3.27517 3.96652 3.34224 3.69865C 3.40932 3.43077 3.24654 3.15925 2.97866 3.09217L 2.73577 4.06222ZM 0 2.86176L -0.485117 2.74067L -0.606113 3.22543L -0.121449 3.34678L 0 2.86176ZM 1.19942 0.121087C 1.26629 -0.146836 1.10331 -0.418242 0.835391 -0.485117C 0.567468 -0.551991 0.296062 -0.389009 0.229187 -0.121087L 1.19942 0.121087ZM 2.97866 3.09217L 0.121449 2.37673L -0.121449 3.34678L 2.73577 4.06222L 2.97866 3.09217ZM 0.485117 2.98284L 1.19942 0.121087L 0.229187 -0.121087L -0.485117 2.74067L 0.485117 2.98284Z"/>
</defs>
</svg>
