<svg width="37" height="30" viewBox="0 0 37 30" version="1.1" xmlns="http://www.w3.org/2000/svg" xmlns:xlink="http://www.w3.org/1999/xlink">
<title>Group 58.2</title>
<desc>Created using Figma</desc>
<g id="Canvas" transform="translate(6551 -15870)">
<g id="Group 58.2">
<g id="Rectangle">
<mask id="mask0_outline_ins">
<use xlink:href="#path0_fill" fill="white" transform="translate(-6551 15870)"/>
</mask>
<g mask="url(#mask0_outline_ins)">
<use xlink:href="#path1_stroke_2x" transform="translate(-6551 15870)" fill="#C4C4C4"/>
</g>
</g>
<g id="Ellipse">
<mask id="mask1_outline_ins">
<use xlink:href="#path2_fill" fill="white" transform="translate(-6541.91 15877.5)"/>
</mask>
<g mask="url(#mask1_outline_ins)">
<use xlink:href="#path3_stroke_2x" transform="translate(-6541.91 15877.5)" fill="#C4C4C4"/>
</g>
</g>
</g>
</g>
<defs>
<path id="path0_fill" d="M 36.375 29L 36.375 6.02941C 36.375 5.47713 35.9273 5.02941 35.375 5.02941L 29.0586 5.02941C 28.7081 5.02941 28.3831 4.84585 28.2022 4.54561L 26.0457 0.967604C 25.6838 0.367125 25.0339 0 24.3327 0L 12.0423 0C 11.3412 0 10.6912 0.367125 10.3293 0.967604L 8.17284 4.54561C 7.99188 4.84585 7.66693 5.02941 7.31637 5.02941L 0.999999 5.02941C 0.447715 5.02941 0 5.47713 0 6.02941L 0 29C 0 29.5523 0.447715 30 0.999999 30L 35.375 30C 35.9273 30 36.375 29.5523 36.375 29Z"/>
<path id="path1_stroke_2x" d="M 26.0457 0.967604L 27.7586 -0.0647918L 27.7586 -0.0647925L 26.0457 0.967604ZM 28.2022 4.54561L 26.4892 5.57801L 26.4892 5.57801L 28.2022 4.54561ZM 10.3293 0.967604L 8.61638 -0.0647925L 8.61638 -0.0647918L 10.3293 0.967604ZM 8.17284 4.54561L 9.88578 5.57801L 9.88578 5.57801L 8.17284 4.54561ZM 34.375 6.02941L 34.375 29L 38.375 29L 38.375 6.02941L 34.375 6.02941ZM 35.375 28L 0.999999 28L 0.999999 32L 35.375 32L 35.375 28ZM 2 29L 2 6.02941L -2 6.02941L -2 29L 2 29ZM 12.0423 2L 24.3327 2L 24.3327 -2L 12.0423 -2L 12.0423 2ZM 29.0586 7.02941L 35.375 7.02941L 35.375 3.02941L 29.0586 3.02941L 29.0586 7.02941ZM 24.3327 2L 26.4892 5.57801L 29.9151 3.51322L 27.7586 -0.0647918L 24.3327 2ZM 8.61638 -0.0647918L 6.4599 3.51322L 9.88578 5.57801L 12.0423 2L 8.61638 -0.0647918ZM 7.31637 3.02941L 0.999999 3.02941L 0.999999 7.02941L 7.31637 7.02941L 7.31637 3.02941ZM 6.4599 3.51321C 6.64086 3.21298 6.96582 3.02941 7.31637 3.02941L 7.31637 7.02941C 8.36804 7.02941 9.34291 6.47873 9.88578 5.57801L 6.4599 3.51321ZM 29.0586 3.02941C 29.4092 3.02941 29.7341 3.21297 29.9151 3.51321L 26.4892 5.57801C 27.0321 6.47873 28.007 7.02941 29.0586 7.02941L 29.0586 3.02941ZM 24.3327 2L 24.3327 2L 27.7586 -0.0647925C 27.0348 -1.26575 25.735 -2 24.3327 -2L 24.3327 2ZM 12.0423 -2C 10.64 -2 9.34021 -1.26575 8.61638 -0.0647925L 12.0423 2L 12.0423 2L 12.0423 -2ZM 0.999999 28C 1.55229 28 2 28.4477 2 29L -2 29C -2 30.6569 -0.656857 32 0.999999 32L 0.999999 28ZM 34.375 29C 34.375 28.4477 34.8227 28 35.375 28L 35.375 32C 37.0319 32 38.375 30.6569 38.375 29L 34.375 29ZM 38.375 6.02941C 38.375 4.37256 37.0319 3.02941 35.375 3.02941L 35.375 7.02941C 34.8227 7.02941 34.375 6.5817 34.375 6.02941L 38.375 6.02941ZM 2 6.02941C 2 6.5817 1.55229 7.02941 0.999999 7.02941L 0.999999 3.02941C -0.656857 3.02941 -2 4.37256 -2 6.02941L 2 6.02941Z"/>
<path id="path2_fill" d="M 18.1875 9C 18.1875 13.9706 14.1161 18 9.09375 18C 4.07141 18 0 13.9706 0 9C 0 4.02944 4.07141 0 9.09375 0C 14.1161 0 18.1875 4.02944 18.1875 9Z"/>
<path id="path3_stroke_2x" d="M 16.1875 9C 16.1875 12.8465 13.0311 16 9.09375 16L 9.09375 20C 15.2011 20 20.1875 15.0946 20.1875 9L 16.1875 9ZM 9.09375 16C 5.15639 16 2 12.8465 2 9L -2 9C -2 15.0946 2.98643 20 9.09375 20L 9.09375 16ZM 2 9C 2 5.1535 5.15639 2 9.09375 2L 9.09375 -2C 2.98643 -2 -2 2.90538 -2 9L 2 9ZM 9.09375 2C 13.0311 2 16.1875 5.1535 16.1875 9L 20.1875 9C 20.1875 2.90538 15.2011 -2 9.09375 -2L 9.09375 2Z"/>
</defs>
</svg>
