<svg width="31" height="30" viewBox="0 0 31 30" version="1.1" xmlns="http://www.w3.org/2000/svg" xmlns:xlink="http://www.w3.org/1999/xlink">
<title>Group 57.2</title>
<desc>Created using Figma</desc>
<g id="Canvas" transform="translate(6618 -17514)">
<g id="Group 57.2">
<g id="Ellipse">
<mask id="mask0_outline_ins">
<use xlink:href="#path0_fill" fill="white" transform="translate(-6618 17514)"/>
</mask>
<g mask="url(#mask0_outline_ins)">
<use xlink:href="#path1_stroke_2x" transform="translate(-6618 17514)" fill="#222222"/>
</g>
</g>
<g id="Ellipse 2">
<use xlink:href="#path2_stroke" transform="translate(-6610.42 17530.5)" fill="#222222"/>
</g>
<g id="Ellipse 3">
<use xlink:href="#path3_fill" transform="translate(-6608.91 17523)" fill="#222222"/>
</g>
<g id="Ellipse 3.1">
<use xlink:href="#path3_fill" transform="translate(-6599.81 17523)" fill="#222222"/>
</g>
</g>
</g>
<defs>
<path id="path0_fill" d="M 30.3125 15C 30.3125 23.2843 23.5268 30 15.1562 30C 6.78568 30 0 23.2843 0 15C 0 6.71573 6.78568 0 15.1562 0C 23.5268 0 30.3125 6.71573 30.3125 15Z"/>
<path id="path1_stroke_2x" d="M 28.3125 15C 28.3125 22.1602 22.4418 28 15.1562 28L 15.1562 32C 24.6118 32 32.3125 24.4083 32.3125 15L 28.3125 15ZM 15.1562 28C 7.87066 28 2 22.1602 2 15L -2 15C -2 24.4083 5.7007 32 15.1562 32L 15.1562 28ZM 2 15C 2 7.83979 7.87066 2 15.1562 2L 15.1562 -2C 5.7007 -2 -2 5.59167 -2 15L 2 15ZM 15.1562 2C 22.4418 2 28.3125 7.83979 28.3125 15L 32.3125 15C 32.3125 5.59167 24.6118 -2 15.1562 -2L 15.1562 2Z"/>
<path id="path2_stroke" d="M 14.1562 0C 14.1562 0.249694 14.0372 0.69501 13.6973 1.27673C 13.3694 1.83796 12.8808 2.4478 12.263 3.01095C 11.0176 4.14615 9.35259 5 7.57812 5L 7.57812 7C 9.98894 7 12.113 5.85385 13.6103 4.48905C 14.3639 3.8022 14.9851 3.03704 15.4241 2.28577C 15.8511 1.55499 16.1562 0.750306 16.1562 0L 14.1562 0ZM 7.57812 5C 5.80366 5 4.13866 4.14615 2.89323 3.01095C 2.2754 2.4478 1.78688 1.83796 1.45893 1.27673C 1.119 0.69501 1 0.249694 1 0L -1 0C -1 0.750306 -0.694899 1.55499 -0.267873 2.28577C 0.171124 3.03704 0.792387 3.8022 1.54594 4.48905C 3.04324 5.85385 5.16731 7 7.57812 7L 7.57812 5Z"/>
<path id="path3_fill" d="M 3.03125 2.25C 3.03125 3.49264 2.35268 4.5 1.51562 4.5C 0.678568 4.5 0 3.49264 0 2.25C 0 1.00736 0.678568 0 1.51562 0C 2.35268 0 3.03125 1.00736 3.03125 2.25Z"/>
</defs>
</svg>
