<svg width="14" height="14" viewBox="0 0 14 14" version="1.1" xmlns="http://www.w3.org/2000/svg" xmlns:xlink="http://www.w3.org/1999/xlink">
<title>Group</title>
<desc>Created using Figma</desc>
<g id="Canvas" transform="translate(7307 -13280)">
<g id="Group">
<g id="Vector">
<use xlink:href="#path0_fill" transform="translate(-7303.14 13292.7)" fill="#FFFFFF"/>
</g>
<g id="Vector">
<use xlink:href="#path1_fill" transform="translate(-7302.15 13290.8)" fill="#FFFFFF"/>
</g>
<g id="Vector">
<use xlink:href="#path2_fill" transform="translate(-7306.23 13280.2)" fill="#FFFFFF"/>
</g>
</g>
</g>
<defs>
<path id="path0_fill" d="M 5.66667 0L 0.604444 0C 0.302222 0 -7.20554e-08 0.226667 -7.20554e-08 0.528889C -7.20554e-08 0.83111 0.226667 1.13333 0.604444 1.13333L 5.74222 1.13333C 6.04444 1.13333 6.34667 0.906664 6.34667 0.604443C 6.34667 0.302221 6.04444 0 5.66667 0Z"/>
<path id="path1_fill" d="M 3.70222 1.13334C 4.00444 1.13334 4.30667 0.906668 4.30667 0.604446C 4.30667 0.302223 4.00444 0 3.70222 0L 0.604444 0C 0.302222 0 7.20554e-08 0.226667 7.20554e-08 0.52889C 7.20554e-08 0.831112 0.302222 1.05778 0.604444 1.05778L 3.70222 1.05778L 3.70222 1.13334Z"/>
<path id="path2_fill" d="M 12.1644 3.24889C 11.9378 2.79556 11.6356 2.34222 11.2578 2.04C 11.0311 1.81333 10.6533 1.81333 10.4267 2.04C 10.4267 1.58667 10.4267 1.05778 10.4267 0.528889C 10.4267 0.226667 10.1244 0 9.82222 0L 2.64444 0C 2.34222 0 2.04 0.226667 2.04 0.528889C 2.04 1.05778 2.04 1.51111 2.04 2.04C 1.81333 1.81333 1.43556 1.81333 1.20889 2.04C 0.831111 2.41778 0.528889 2.79556 0.302222 3.24889C 0.0755556 3.70222 0 4.23111 0 4.76C 0 6.72444 1.66222 8.38667 3.85333 8.53778C 4.08 8.91555 4.38222 9.36889 4.76 9.74667C 4.98667 9.97333 5.36444 10.0489 5.59111 9.82222C 5.74222 9.74667 5.81778 9.59555 5.81778 9.44444C 5.81778 9.29333 5.81778 9.14222 5.66667 8.99111C 4.45778 7.55555 3.32444 5.59111 3.24889 1.13333L 9.21778 1.13333C 9.14222 5.59111 8.00889 7.55555 6.8 9.06667C 6.72444 9.21778 6.64889 9.36889 6.64889 9.52C 6.64889 9.67111 6.72444 9.82222 6.87556 9.89778C 6.95111 9.97333 7.10222 9.97333 7.25333 9.97333C 7.40444 9.97333 7.63111 9.89778 7.70667 9.74667C 8.00889 9.36889 8.31111 8.91555 8.61333 8.53778C 10.8044 8.38667 12.4667 6.72444 12.4667 4.76C 12.4667 4.23111 12.3156 3.70222 12.1644 3.24889ZM 10.3511 2.72C 10.3511 2.79556 10.3511 2.79556 10.3511 2.72C 10.7289 3.02222 10.88 3.32444 11.0311 3.70222C 11.1822 4.00444 11.2578 4.38222 11.2578 4.76C 11.2578 5.89333 10.4267 6.95111 9.29333 7.32889C 9.82222 5.96889 10.2 4.53333 10.3511 2.72ZM 2.11556 2.72C 2.26667 4.53333 2.64444 5.96889 3.17333 7.25333C 2.04 6.87556 1.20889 5.89333 1.20889 4.76C 1.20889 4.38222 1.28444 4.08 1.43556 3.70222C 1.58667 3.4 1.81333 3.09778 2.11556 2.72C 2.11556 2.79556 2.11556 2.79556 2.11556 2.72Z"/>
</defs>
</svg>
