<svg width="126" height="126" viewBox="0 0 126 126" version="1.1" xmlns="http://www.w3.org/2000/svg" xmlns:xlink="http://www.w3.org/1999/xlink">
<title>Group 23</title>
<desc>Created using Figma</desc>
<g id="Canvas" transform="translate(-32804 -16330)">
<g id="Group 23">
<g id="Ellipse 2">
<mask id="mask0_outline_ins">
<use xlink:href="#path0_fill" fill="white" transform="translate(32804 16330)"/>
</mask>
<g mask="url(#mask0_outline_ins)">
<use xlink:href="#path1_stroke_2x" transform="translate(32804 16330)" fill="#DEDEDE" fill-opacity="0.7"/>
</g>
</g>
<g id="Line">
<use xlink:href="#path2_stroke" transform="matrix(-4.37115e-08 1 1 4.37115e-08 32868 16374)" fill="#222222"/>
</g>
<g id="Line">
<use xlink:href="#path2_stroke" transform="matrix(-1 -8.74228e-08 -8.74228e-08 1 32886 16394)" fill="#222222"/>
</g>
</g>
</g>
<defs>
<path id="path0_fill" d="M 126 63C 126 97.7939 97.7939 126 63 126C 28.2061 126 -2.33381e-10 97.7939 0 63C 2.33381e-10 28.2061 28.2061 2.37019e-10 63 3.63798e-12C 97.7939 -2.29743e-10 126 28.2061 126 63Z"/>
<path id="path1_stroke_2x" d="M 126.5 63C 126.5 62.164 126.484 61.3318 126.452 60.5037L 125.453 60.5423C 125.484 61.3576 125.5 62.1769 125.5 63L 126.5 63ZM 126.065 55.5324C 125.871 53.8704 125.612 52.228 125.291 50.6078L 124.31 50.8018C 124.626 52.3965 124.881 54.0129 125.072 55.6488L 126.065 55.5324ZM 124.131 45.7567C 123.678 44.1496 123.164 42.5683 122.591 41.0155L 121.653 41.3617C 122.217 42.8898 122.723 44.4461 123.168 46.0277L 124.131 45.7567ZM 120.681 36.408C 119.982 34.8945 119.225 33.4132 118.413 31.967L 117.541 32.4564C 118.34 33.8798 119.085 35.3377 119.773 36.8273L 120.681 36.408ZM 115.804 27.7181C 114.878 26.3346 113.899 24.9897 112.87 23.6861L 112.085 24.3057C 113.098 25.5889 114.062 26.9127 114.973 28.2744L 115.804 27.7181ZM 109.63 19.8961C 108.501 18.6754 107.325 17.4991 106.104 16.3702L 105.425 17.1044C 106.627 18.2156 107.784 19.3735 108.896 20.575L 109.63 19.8961ZM 102.314 13.1302C 101.01 12.1011 99.6654 11.1221 98.282 10.1959L 97.7256 11.0269C 99.0873 11.9385 100.411 12.9022 101.694 13.9151L 102.314 13.1302ZM 94.033 7.58673C 92.5868 6.77505 91.1055 6.01834 89.592 5.31944L 89.1727 6.22732C 90.6623 6.91516 92.1202 7.65991 93.5436 8.45878L 94.033 7.58673ZM 84.9845 3.40886C 83.4318 2.83581 81.8504 2.32171 80.2433 1.86928L 79.9723 2.83186C 81.5539 3.27711 83.1102 3.78305 84.6383 4.34701L 84.9845 3.40886ZM 75.3923 0.708654C 73.772 0.388114 72.1296 0.129219 70.4676 -0.0654901L 70.3512 0.927717C 71.9871 1.11936 73.6036 1.37418 75.1982 1.68964L 75.3923 0.708654ZM 65.4963 -0.451824C 64.6682 -0.483843 63.836 -0.5 63 -0.5L 63 0.5C 63.8231 0.5 64.6424 0.515907 65.4577 0.54743L 65.4963 -0.451824ZM 63 -0.5C 62.164 -0.5 61.3318 -0.483844 60.5037 -0.451824L 60.5423 0.547429C 61.3576 0.515907 62.1769 0.5 63 0.5L 63 -0.5ZM 55.5324 -0.0654916C 53.8704 0.129217 52.228 0.388111 50.6078 0.708651L 50.8018 1.68964C 52.3965 1.37417 54.0129 1.11936 55.6488 0.927716L 55.5324 -0.0654916ZM 45.7567 1.86927C 44.1496 2.3217 42.5683 2.8358 41.0155 3.40885L 41.3617 4.347C 42.8898 3.78305 44.4461 3.27711 46.0277 2.83186L 45.7567 1.86927ZM 36.408 5.31944C 34.8945 6.01834 33.4132 6.77505 31.967 7.58673L 32.4564 8.45878C 33.8798 7.6599 35.3377 6.91515 36.8273 6.22731L 36.408 5.31944ZM 27.7181 10.1959C 26.3346 11.1221 24.9897 12.1011 23.6861 13.1302L 24.3057 13.9151C 25.5889 12.9022 26.9127 11.9385 28.2744 11.0269L 27.7181 10.1959ZM 19.8961 16.3702C 18.6754 17.4991 17.4991 18.6754 16.3702 19.8961L 17.1044 20.575C 18.2156 19.3735 19.3735 18.2156 20.575 17.1044L 19.8961 16.3702ZM 13.1302 23.6861C 12.1011 24.9897 11.1221 26.3346 10.1959 27.7181L 11.0269 28.2744C 11.9385 26.9127 12.9022 25.5889 13.9151 24.3057L 13.1302 23.6861ZM 7.58673 31.967C 6.77505 33.4132 6.01834 34.8945 5.31944 36.408L 6.22732 36.8273C 6.91516 35.3377 7.65991 33.8798 8.45878 32.4564L 7.58673 31.967ZM 3.40886 41.0155C 2.83581 42.5682 2.32171 44.1496 1.86928 45.7567L 2.83186 46.0277C 3.27711 44.4461 3.78305 42.8898 4.34701 41.3617L 3.40886 41.0155ZM 0.708654 50.6077C 0.388114 52.228 0.129219 53.8704 -0.0654901 55.5324L 0.927717 55.6488C 1.11936 54.0129 1.37418 52.3964 1.68964 50.8018L 0.708654 50.6077ZM -0.451824 60.5037C -0.483843 61.3318 -0.5 62.164 -0.5 63L 0.5 63C 0.5 62.1769 0.515907 61.3576 0.54743 60.5423L -0.451824 60.5037ZM -0.5 63C -0.5 63.836 -0.483844 64.6682 -0.451824 65.4963L 0.547429 65.4577C 0.515907 64.6424 0.5 63.8231 0.5 63L -0.5 63ZM -0.0654916 70.4676C 0.129217 72.1296 0.388111 73.772 0.708651 75.3922L 1.68964 75.1982C 1.37417 73.6035 1.11936 71.9871 0.927716 70.3512L -0.0654916 70.4676ZM 1.86927 80.2432C 2.3217 81.8504 2.8358 83.4317 3.40885 84.9845L 4.347 84.6383C 3.78305 83.1102 3.27711 81.5539 2.83186 79.9723L 1.86927 80.2432ZM 5.31944 89.592C 6.01834 91.1055 6.77505 92.5868 7.58673 94.033L 8.45878 93.5436C 7.6599 92.1202 6.91515 90.6623 6.22731 89.1727L 5.31944 89.592ZM 10.1959 98.282C 11.1221 99.6654 12.1011 101.01 13.1302 102.314L 13.9151 101.694C 12.9022 100.411 11.9385 99.0873 11.0269 97.7256L 10.1959 98.282ZM 16.3702 106.104C 17.4991 107.325 18.6754 108.501 19.8961 109.63L 20.575 108.896C 19.3735 107.784 18.2156 106.627 17.1044 105.425L 16.3702 106.104ZM 23.6861 112.87C 24.9897 113.899 26.3346 114.878 27.7181 115.804L 28.2744 114.973C 26.9127 114.062 25.5889 113.098 24.3057 112.085L 23.6861 112.87ZM 31.967 118.413C 33.4132 119.225 34.8945 119.982 36.408 120.681L 36.8273 119.773C 35.3377 119.085 33.8798 118.34 32.4564 117.541L 31.967 118.413ZM 41.0155 122.591C 42.5682 123.164 44.1496 123.678 45.7567 124.131L 46.0277 123.168C 44.4461 122.723 42.8898 122.217 41.3617 121.653L 41.0155 122.591ZM 50.6077 125.291C 52.228 125.612 53.8704 125.871 55.5324 126.065L 55.6488 125.072C 54.0129 124.881 52.3964 124.626 50.8018 124.31L 50.6077 125.291ZM 60.5037 126.452C 61.3318 126.484 62.164 126.5 63 126.5L 63 125.5C 62.1769 125.5 61.3576 125.484 60.5423 125.453L 60.5037 126.452ZM 63 126.5C 63.836 126.5 64.6682 126.484 65.4963 126.452L 65.4577 125.453C 64.6424 125.484 63.8231 125.5 63 125.5L 63 126.5ZM 70.4676 126.065C 72.1296 125.871 73.772 125.612 75.3922 125.291L 75.1982 124.31C 73.6035 124.626 71.9871 124.881 70.3512 125.072L 70.4676 126.065ZM 80.2432 124.131C 81.8504 123.678 83.4317 123.164 84.9845 122.591L 84.6383 121.653C 83.1102 122.217 81.5539 122.723 79.9723 123.168L 80.2432 124.131ZM 89.592 120.681C 91.1055 119.982 92.5868 119.225 94.033 118.413L 93.5436 117.541C 92.1202 118.34 90.6623 119.085 89.1727 119.773L 89.592 120.681ZM 98.282 115.804C 99.6654 114.878 101.01 113.899 102.314 112.87L 101.694 112.085C 100.411 113.098 99.0873 114.062 97.7256 114.973L 98.282 115.804ZM 106.104 109.63C 107.325 108.501 108.501 107.325 109.63 106.104L 108.896 105.425C 107.784 106.627 106.627 107.784 105.425 108.896L 106.104 109.63ZM 112.87 102.314C 113.899 101.01 114.878 99.6654 115.804 98.282L 114.973 97.7256C 114.062 99.0873 113.098 100.411 112.085 101.694L 112.87 102.314ZM 118.413 94.033C 119.225 92.5868 119.982 91.1055 120.681 89.592L 119.773 89.1727C 119.085 90.6623 118.34 92.1202 117.541 93.5436L 118.413 94.033ZM 122.591 84.9845C 123.164 83.4318 123.678 81.8504 124.131 80.2433L 123.168 79.9723C 122.723 81.5539 122.217 83.1102 121.653 84.6383L 122.591 84.9845ZM 125.291 75.3923C 125.612 73.772 125.871 72.1296 126.065 70.4676L 125.072 70.3512C 124.881 71.9871 124.626 73.6036 124.31 75.1982L 125.291 75.3923ZM 126.452 65.4963C 126.484 64.6682 126.5 63.836 126.5 63L 125.5 63C 125.5 63.8231 125.484 64.6424 125.453 65.4577L 126.452 65.4963ZM 127 63C 127 62.1576 126.984 61.319 126.951 60.4844L 124.953 60.5616C 124.984 61.3705 125 62.1834 125 63L 127 63ZM 126.562 55.4742C 126.366 53.7992 126.105 52.1438 125.782 50.5107L 123.82 50.8989C 124.133 52.4807 124.386 54.0842 124.576 55.707L 126.562 55.4742ZM 124.612 45.6213C 124.156 44.0013 123.638 42.4075 123.06 40.8424L 121.184 41.5348C 121.743 43.0506 122.245 44.5943 122.687 46.1632L 124.612 45.6213ZM 121.134 36.1984C 120.43 34.6729 119.667 33.1799 118.849 31.7223L 117.105 32.7011C 117.898 34.1131 118.636 35.5593 119.319 37.0369L 121.134 36.1984ZM 116.22 27.4399C 115.286 26.0456 114.299 24.6901 113.262 23.3762L 111.692 24.6155C 112.697 25.8884 113.653 27.2017 114.558 28.5525L 116.22 27.4399ZM 109.997 19.5566C 108.859 18.3263 107.674 17.1409 106.443 16.0031L 105.085 17.4714C 106.277 18.5739 107.426 19.7225 108.529 20.9145L 109.997 19.5566ZM 102.624 12.7378C 101.31 11.7006 99.9544 10.7139 98.5601 9.78041L 97.4475 11.4423C 98.7983 12.3467 100.112 13.3027 101.385 14.3076L 102.624 12.7378ZM 94.2777 7.1507C 92.8201 6.33262 91.3271 5.56994 89.8016 4.8655L 88.9631 6.68125C 90.4407 7.36356 91.8869 8.10233 93.2989 8.8948L 94.2777 7.1507ZM 85.1577 2.93978C 83.5926 2.36218 81.9987 1.844 80.3788 1.38798L 79.8368 3.31316C 81.4057 3.75481 82.9494 4.25667 84.4652 4.81609L 85.1577 2.93978ZM 75.4893 0.21816C 73.8562 -0.104918 72.2008 -0.365854 70.5258 -0.562094L 70.2931 1.42432C 71.9158 1.61444 73.5193 1.86721 75.1012 2.18014L 75.4893 0.21816ZM 65.5157 -0.95145C 64.6811 -0.983719 63.8424 -1 63 -1L 63 1C 63.8166 1 64.6295 1.01578 65.4384 1.04706L 65.5157 -0.95145ZM 63 -1C 62.1576 -1 61.319 -0.983719 60.4844 -0.951451L 60.5616 1.04706C 61.3705 1.01578 62.1834 1 63 1L 63 -1ZM 55.4742 -0.562095C 53.7992 -0.365855 52.1438 -0.10492 50.5107 0.218158L 50.8989 2.18013C 52.4807 1.86721 54.0842 1.61444 55.707 1.42432L 55.4742 -0.562095ZM 45.6213 1.38798C 44.0013 1.844 42.4075 2.36218 40.8424 2.93978L 41.5348 4.81608C 43.0506 4.25667 44.5943 3.75481 46.1632 3.31315L 45.6213 1.38798ZM 36.1984 4.8655C 34.6729 5.56994 33.1799 6.33262 31.7223 7.1507L 32.7011 8.8948C 34.1131 8.10233 35.5593 7.36356 37.0369 6.68125L 36.1984 4.8655ZM 27.4399 9.78041C 26.0456 10.7139 24.6901 11.7006 23.3762 12.7378L 24.6155 14.3076C 25.8884 13.3027 27.2017 12.3467 28.5525 11.4424L 27.4399 9.78041ZM 19.5566 16.0031C 18.3263 17.1409 17.1409 18.3263 16.0031 19.5566L 17.4714 20.9145C 18.5739 19.7225 19.7225 18.5739 20.9145 17.4714L 19.5566 16.0031ZM 12.7378 23.3762C 11.7006 24.6901 10.7139 26.0456 9.78041 27.4399L 11.4423 28.5525C 12.3467 27.2017 13.3027 25.8884 14.3076 24.6155L 12.7378 23.3762ZM 7.1507 31.7223C 6.33262 33.1799 5.56994 34.6729 4.8655 36.1984L 6.68125 37.0369C 7.36356 35.5593 8.10233 34.1131 8.8948 32.7011L 7.1507 31.7223ZM 2.93978 40.8423C 2.36218 42.4074 1.844 44.0013 1.38798 45.6212L 3.31316 46.1632C 3.75481 44.5943 4.25667 43.0506 4.81609 41.5348L 2.93978 40.8423ZM 0.21816 50.5107C -0.104918 52.1438 -0.365854 53.7992 -0.562094 55.4742L 1.42432 55.7069C 1.61444 54.0842 1.86721 52.4806 2.18014 50.8988L 0.21816 50.5107ZM -0.95145 60.4843C -0.983719 61.3189 -1 62.1576 -1 63L 1 63C 1 62.1834 1.01578 61.3705 1.04706 60.5616L -0.95145 60.4843ZM -1 63C -1 63.8424 -0.983719 64.681 -0.951451 65.5156L 1.04706 65.4384C 1.01578 64.6295 1 63.8166 1 63L -1 63ZM -0.562095 70.5258C -0.365855 72.2008 -0.10492 73.8562 0.218158 75.4893L 2.18013 75.1011C 1.86721 73.5193 1.61444 71.9158 1.42432 70.2931L -0.562095 70.5258ZM 1.38798 80.3787C 1.844 81.9987 2.36218 83.5925 2.93978 85.1576L 4.81608 84.4652C 4.25667 82.9494 3.75481 81.4057 3.31315 79.8368L 1.38798 80.3787ZM 4.8655 89.8016C 5.56994 91.3271 6.33262 92.8201 7.1507 94.2777L 8.8948 93.2989C 8.10233 91.8869 7.36356 90.4407 6.68125 88.9631L 4.8655 89.8016ZM 9.78041 98.5601C 10.7139 99.9544 11.7006 101.31 12.7378 102.624L 14.3076 101.385C 13.3027 100.112 12.3467 98.7983 11.4424 97.4475L 9.78041 98.5601ZM 16.0031 106.443C 17.1409 107.674 18.3263 108.859 19.5566 109.997L 20.9145 108.529C 19.7225 107.426 18.5739 106.277 17.4714 105.085L 16.0031 106.443ZM 23.3762 113.262C 24.6901 114.299 26.0456 115.286 27.4399 116.22L 28.5525 114.558C 27.2017 113.653 25.8884 112.697 24.6155 111.692L 23.3762 113.262ZM 31.7223 118.849C 33.1799 119.667 34.6729 120.43 36.1984 121.134L 37.0369 119.319C 35.5593 118.636 34.1131 117.898 32.7011 117.105L 31.7223 118.849ZM 40.8423 123.06C 42.4074 123.638 44.0013 124.156 45.6212 124.612L 46.1632 122.687C 44.5943 122.245 43.0506 121.743 41.5348 121.184L 40.8423 123.06ZM 50.5107 125.782C 52.1438 126.105 53.7992 126.366 55.4742 126.562L 55.7069 124.576C 54.0842 124.386 52.4806 124.133 50.8988 123.82L 50.5107 125.782ZM 60.4843 126.951C 61.3189 126.984 62.1576 127 63 127L 63 125C 62.1834 125 61.3705 124.984 60.5616 124.953L 60.4843 126.951ZM 63 127C 63.8424 127 64.681 126.984 65.5156 126.951L 65.4384 124.953C 64.6295 124.984 63.8166 125 63 125L 63 127ZM 70.5258 126.562C 72.2008 126.366 73.8562 126.105 75.4893 125.782L 75.1011 123.82C 73.5193 124.133 71.9158 124.386 70.2931 124.576L 70.5258 126.562ZM 80.3787 124.612C 81.9987 124.156 83.5925 123.638 85.1576 123.06L 84.4652 121.184C 82.9494 121.743 81.4057 122.245 79.8368 122.687L 80.3787 124.612ZM 89.8016 121.134C 91.3271 120.43 92.8201 119.667 94.2777 118.849L 93.2989 117.105C 91.8869 117.898 90.4407 118.636 88.9631 119.319L 89.8016 121.134ZM 98.5601 116.22C 99.9544 115.286 101.31 114.299 102.624 113.262L 101.385 111.692C 100.112 112.697 98.7983 113.653 97.4475 114.558L 98.5601 116.22ZM 106.443 109.997C 107.674 108.859 108.859 107.674 109.997 106.443L 108.529 105.085C 107.426 106.277 106.277 107.426 105.085 108.529L 106.443 109.997ZM 113.262 102.624C 114.299 101.31 115.286 99.9544 116.22 98.5601L 114.558 97.4475C 113.653 98.7983 112.697 100.112 111.692 101.385L 113.262 102.624ZM 118.849 94.2777C 119.667 92.8201 120.43 91.3271 121.134 89.8016L 119.319 88.9631C 118.636 90.4407 117.898 91.8869 117.105 93.2989L 118.849 94.2777ZM 123.06 85.1577C 123.638 83.5926 124.156 81.9987 124.612 80.3788L 122.687 79.8368C 122.245 81.4057 121.743 82.9494 121.184 84.4652L 123.06 85.1577ZM 125.782 75.4893C 126.105 73.8562 126.366 72.2008 126.562 70.5258L 124.576 70.2931C 124.386 71.9158 124.133 73.5193 123.82 75.1012L 125.782 75.4893ZM 126.951 65.5157C 126.984 64.6811 127 63.8424 127 63L 125 63C 125 63.8166 124.984 64.6295 124.953 65.4384L 126.951 65.5157Z"/>
<path id="path2_stroke" d="M 0 0L 38 0L 38 -2L 0 -2L 0 0Z"/>
</defs>
</svg>
