<svg width="1853" height="321" viewBox="0 0 1853 321" xmlns="http://www.w3.org/2000/svg" xmlns:xlink="http://www.w3.org/1999/xlink"><title>Vector</title><desc>Created using Figma</desc><g transform="translate(.3)" fill="#B81414"><use xlink:href="#a"/><use xlink:href="#b"/><use xlink:href="#c"/></g><defs><path id="a" d="M1526.69 91.465c.95-3.557 3.44-5.082 6.94-6.035 102.45-28.01 204.83-56.085 307.28-84.16 1.21-.317 2.36-.825 3.5-1.27h8.28v6.352c-8.98 17.086-17.89 34.235-26.93 51.322a119252.37 119252.37 0 0 1-94.75 178.736c-1.08 2.033-2.93 3.748-4.39 5.59h-3.82c-1.47-1.461-3.18-2.795-4.33-4.446-10.63-15.308-21.14-30.679-31.71-45.987-.57-.889-1.21-1.715-1.97-2.731-1.09.572-2.1 1.144-3.12 1.652-13.12 7.368-26.24 14.736-39.29 22.167-2.8 1.588-5.54 2.922-8.53.635-2.87-2.159-2.36-5.081-1.72-8.13 5.09-22.993 10.12-45.986 15.22-69.043.06-.381.12-.826.25-1.524-5.16-1.652-10.25-3.303-15.34-4.955-32.98-10.544-65.97-21.087-98.95-31.504-3.31-1.016-5.73-2.604-6.62-6.034v-.635zm303.59-67.52a2.992 2.992 0 0 0-.45-.38c-.95.572-1.91 1.143-2.86 1.715-54.7 34.617-109.33 69.36-164.09 103.914-2.8 1.778-2.61 3.049-.95 5.462 19.99 28.9 39.86 57.928 59.79 86.891.63.89 1.33 1.779 2.22 3.049 35.6-67.137 71-133.894 106.34-200.65zm-22.48-.634c-.13-.19-.25-.381-.38-.572-84.24 23.057-168.48 46.114-253.61 69.424 1.79.635 2.68.953 3.57 1.207 29.93 9.528 59.91 19.055 89.84 28.71 2.36.762 4.08.571 6.11-.699 50.49-32.076 101.05-64.089 151.61-96.165 1.01-.635 1.91-1.27 2.86-1.905zm-129.7 155.617c-7.07-10.227-13.88-20.262-21.2-30.87-3.63 16.578-7.13 32.394-10.76 48.908 11.01-6.224 21.39-12.068 31.96-18.038z"/><path id="b" fill-rule="evenodd" d="M1603.61 225.153c-.5.177-1.25.44-2.23.783l-1.32-3.778c.98-.34 1.72-.6 2.21-.776.25-.087.43-.153.56-.197l.14-.05.04-.015v-.001l.6 4.034zm0 0c.25-.089.44-.157.57-.202zm.57-.202l.14-.052zm.19-.068v-.001zm-1.36-3.764zm-8.32 7.102c-1.95.654-4.18 1.397-6.68 2.219l-1.25-3.801c2.5-.819 4.71-1.557 6.65-2.209l1.28 3.791zm-13.56 4.457c-2.05.659-4.23 1.354-6.53 2.081l-1.21-3.815c2.3-.725 4.47-1.417 6.51-2.074l1.23 3.808zm-13.34 4.212c-2.12.658-4.33 1.338-6.62 2.037l-1.17-3.826c2.29-.697 4.49-1.375 6.6-2.031l1.19 3.82zm-13.51 4.123c-2.13.637-4.31 1.288-6.56 1.952l-1.13-3.836c2.24-.662 4.42-1.311 6.54-1.947l1.15 3.831zm-13.47 3.981c-2.17.629-4.38 1.269-6.64 1.917l-1.11-3.845c2.26-.648 4.47-1.285 6.63-1.913l1.12 3.841zm-13.36 3.829c-2.29.645-4.62 1.299-7 1.959l-1.07-3.854c2.37-.659 4.7-1.31 6.98-1.955l1.09 3.85zm-13.57 3.773c-2.22.608-4.47 1.222-6.76 1.84l-1.04-3.861c2.28-.618 4.53-1.229 6.75-1.837l1.05 3.858zm-13.73 3.71c-2.19.581-4.41 1.166-6.65 1.755l-1.01-3.869c2.24-.588 4.45-1.172 6.63-1.752l1.03 3.866zm-13.4 3.512c-2.28.588-4.58 1.18-6.92 1.773l-.98-3.876c2.33-.593 4.63-1.183 6.9-1.77l1 3.873zm-13.73 3.494c-2.21.555-4.45 1.112-6.71 1.67l-.96-3.883c2.26-.557 4.49-1.113 6.7-1.667l.97 3.88zm-13.56 3.349c-2.31.561-4.64 1.123-6.99 1.686l-.93-3.89c2.35-.562 4.67-1.123 6.97-1.682l.95 3.886zm-13.7 3.281c-2.24.528-4.5 1.058-6.78 1.587l-.9-3.897c2.27-.528 4.53-1.056 6.76-1.583l.92 3.893zm-750.317 3.521a814.296 814.296 0 0 1-3.357-1.056l1.208-3.813c1.114.353 2.227.703 3.343 1.052l-1.194 3.817zm736.647-.346c-2.32.528-4.65 1.057-7 1.585l-.88-3.903c2.35-.527 4.68-1.054 6.98-1.582l.9 3.9zm-723.183 4.439a897.103 897.103 0 0 1-6.739-2.02l1.164-3.827c2.235.679 4.469 1.349 6.708 2.011l-1.133 3.836zm709.463-1.356c-2.25.499-4.52.998-6.81 1.495l-.85-3.908c2.28-.497 4.55-.994 6.8-1.493l.86 3.906zm-13.72 2.986c-2.32.496-4.65.992-7 1.486l-.82-3.915c2.34-.493 4.67-.987 6.98-1.482l.84 3.911zm-682.23 2.25a894.521 894.521 0 0 1-6.763-1.914l1.104-3.844c2.244.644 4.486 1.278 6.734 1.905l-1.075 3.853zm668.46.647c-2.26.467-4.54.934-6.82 1.399l-.8-3.92c2.28-.465 4.55-.93 6.81-1.397l.81 3.918zm-654.889 3.029a944.755 944.755 0 0 1-6.796-1.814l1.045-3.861c2.255.611 4.509 1.212 6.767 1.806l-1.016 3.869zm641.159-.24c-2.32.462-4.65.923-6.99 1.381l-.77-3.925c2.34-.458 4.66-.917 6.98-1.378l.78 3.922zm-627.527 3.716c-2.274-.563-4.55-1.134-6.821-1.713l.988-3.876c2.264.577 4.526 1.145 6.793 1.705l-.96 3.884zm613.667-1.002c-2.26.436-4.54.869-6.83 1.301l-.74-3.931c2.29-.431 4.56-.863 6.82-1.298l.75 3.928zm-13.72 2.59c-2.31.427-4.63.852-6.97 1.275l-.71-3.935c2.33-.423 4.64-.847 6.95-1.274l.73 3.934zm-586.277 1.686c-2.28-.529-4.562-1.067-6.839-1.612l.931-3.89c2.271.544 4.539 1.078 6.812 1.605l-.904 3.897zm572.317.845c-2.27.402-4.54.803-6.83 1.2l-.68-3.94c2.28-.397 4.55-.796 6.81-1.198l.7 3.938zm-558.598 2.235c-2.29-.497-4.583-1.004-6.871-1.517l.876-3.903c2.281.512 4.56 1.015 6.844 1.511l-.849 3.909zm544.888.151c-2.3.393-4.62.783-6.94 1.17l-.66-3.945c2.32-.387 4.63-.776 6.93-1.168l.67 3.943zm-531.121 2.738c-2.296-.465-4.594-.939-6.887-1.42l.822-3.915c2.286.48 4.571.951 6.859 1.415l-.794 3.92zm517.181-.413c-2.31.375-4.62.749-6.95 1.119l-.63-3.95c2.32-.37 4.63-.742 6.93-1.117l.65 3.948zm-503.39 3.111c-2.299-.434-4.601-.876-6.898-1.325l.768-3.926c2.291.448 4.579.888 6.872 1.32l-.742 3.931zm489.57-.91c-2.3.358-4.61.713-6.92 1.064l-.6-3.954c2.31-.351 4.61-.705 6.91-1.062l.61 3.952zm-13.89 2.11c-2.33.346-4.67.688-7.02 1.027l-.57-3.959c2.34-.338 4.68-.68 7-1.024l.59 3.956zm-461.844 1.315c-2.31-.404-4.622-.817-6.93-1.236l.716-3.936c2.301.419 4.6.829 6.903 1.231l-.689 3.941zm447.884.701c-2.29.322-4.59.641-6.9.957l-.54-3.963c2.3-.315 4.6-.634 6.88-.955l.56 3.961zm-434.014 1.632c-2.312-.374-4.626-.755-6.937-1.144l.663-3.945c2.305.388 4.606.767 6.912 1.14l-.638 3.949zm420.164.262c-2.32.309-4.65.615-6.99.917l-.51-3.967c2.33-.302 4.66-.606 6.97-.915l.53 3.965zm-406.282 1.89c-2.314-.344-4.63-.696-6.943-1.054l.613-3.953c2.306.358 4.61.707 6.917 1.05l-.587 3.957zm392.262-.079c-2.31.29-4.63.576-6.95.858l-.49-3.971c2.33-.281 4.64-.567 6.95-.856l.49 3.969zm-378.337 2.058a1191.05 1191.05 0 0 1-6.972-.969l.563-3.96c2.316.329 4.63.651 6.947.965l-.538 3.964zm364.457-.372c-2.31.272-4.64.54-6.96.805l-.45-3.975c2.32-.264 4.63-.531 6.94-.803l.47 3.973zm-350.511 2.179c-2.323-.287-4.65-.581-6.973-.882l.514-3.967c2.317.3 4.632.593 6.949.879l-.49 3.97zm336.551-.593c-2.34.257-4.69.51-7.04.758l-.42-3.978c2.35-.248 4.69-.5 7.02-.756l.44 3.976zm-322.606 2.229c-2.323-.259-4.649-.525-6.972-.797l.466-3.973c2.317.272 4.631.536 6.948.794l-.442 3.976zm308.576-.746c-2.31.235-4.62.465-6.94.692l-.39-3.981c2.32-.226 4.62-.456 6.93-.691l.4 3.98zm-13.92 1.36c-2.33.218-4.66.432-7 .642l-.36-3.984c2.34-.21 4.67-.423 6.99-.641l.37 3.983zm-280.661.859c-2.334-.231-4.67-.471-7.004-.716l.419-3.978c2.328.245 4.653.483 6.98.714l-.395 3.98zm266.621.399c-2.34.199-4.68.395-7.03.586l-.32-3.987c2.34-.191 4.68-.385 7.01-.585l.34 3.986zm-252.623.912a1280.17 1280.17 0 0 1-6.998-.635l.373-3.983c2.326.218 4.649.429 6.975.633l-.35 3.985zm238.643.225c-2.33.18-4.66.355-6.99.525l-.29-3.99c2.33-.17 4.65-.344 6.97-.523l.31 3.988zm-224.661.923c-2.328-.178-4.659-.363-6.989-.554l.328-3.987c2.324.191 4.644.375 6.967.553l-.306 3.988zm210.661.099c-2.34.161-4.68.317-7.03.469l-.26-3.992c2.34-.151 4.68-.307 7.02-.468l.27 3.991zm-196.613.898c-2.339-.153-4.682-.312-7.023-.479l.283-3.99c2.335.166 4.668.325 7.001.478l-.261 3.991zm182.523.011c-2.32.14-4.65.275-6.98.406l-.22-3.994c2.32-.13 4.64-.265 6.96-.404l.24 3.992zm-168.494.831c-2.335-.128-4.674-.262-7.011-.402l.239-3.993c2.332.14 4.66.274 6.99.401l-.218 3.994zm154.524-.05c-2.33.121-4.67.236-7.01.347l-.19-3.996c2.34-.11 4.67-.225 7-.345l.2 3.994zm-140.513.74c-2.334-.102-4.672-.211-7.008-.326l.197-3.996c2.331.115 4.658.224 6.986.326l-.175 3.996zm126.473-.077c-2.35.101-4.7.196-7.05.286l-.16-3.997c2.35-.09 4.7-.185 7.04-.285l.17 3.996zm-112.396.623c-2.342-.079-4.689-.163-7.034-.254l.155-3.997c2.34.09 4.676.175 7.014.253l-.135 3.998zm98.316-.084c-2.32.079-4.66.153-6.99.221l-.12-3.998c2.33-.068 4.66-.142 6.98-.22l.13 3.997zm-84.28.484c-2.333-.055-4.672-.116-7.011-.182l.114-3.999c2.333.067 4.663.127 6.997.182l-.1 3.999zm70.28-.074c-2.34.058-4.68.111-7.03.158l-.08-3.999c2.34-.047 4.68-.1 7.01-.157l.1 3.998zm-56.24.332c-2.34-.032-4.69-.069-7.03-.112l.07-3.999c2.34.043 4.68.08 7.01.111l-.05 4zm42.17-.049c-2.35.037-4.71.067-7.06.093l-.05-4c2.35-.025 4.7-.056 7.05-.092l.06 3.999zm-28.09.168c-2.34-.008-4.69-.022-7.03-.042l.03-4c2.34.02 4.68.034 7.02.042l-.02 4zm14.03-.017c-2.33.014-4.67.023-7.01.026v-4c2.33-.003 4.66-.012 6.99-.026l.02 4z"/><path id="c" fill-rule="evenodd" d="M570.993 181.834c-.498-.307-1.246-.763-2.228-1.352l-2.056 3.431a217.416 217.416 0 0 1 2.736 1.667l.135.084.033.021.008.005.001.001L570.69 184l1.068-1.691-.002-.001-.05-.032-.145-.091-.568-.351zm-8.243-4.874a485.858 485.858 0 0 0-6.172-3.482l-1.941 3.497a487.992 487.992 0 0 1 6.122 3.454l1.991-3.469zm-12.426-6.903a661.402 661.402 0 0 0-6.365-3.384l-1.858 3.543a612.312 612.312 0 0 1 6.325 3.362l1.898-3.521zm-12.51-6.566a688.233 688.233 0 0 0-6.34-3.203l-1.786 3.579a680.338 680.338 0 0 1 6.304 3.185l1.822-3.561zm-12.725-6.351a781.994 781.994 0 0 0-6.316-3.04l-1.718 3.612a807.348 807.348 0 0 1 6.283 3.024l1.751-3.596zm-12.806-6.09a742.537 742.537 0 0 0-6.344-2.912l-1.653 3.642c2.153.977 4.254 1.942 6.312 2.898l1.685-3.628zm-12.871-5.839a810.946 810.946 0 0 0-6.419-2.811l-1.589 3.671c2.17.939 4.297 1.871 6.388 2.797l1.62-3.657zm-12.95-5.604a845.168 845.168 0 0 0-6.528-2.725l-1.525 3.698c2.2.907 4.363 1.81 6.496 2.711l1.557-3.684zm-13.05-5.383a866.006 866.006 0 0 0-6.656-2.646l-1.462 3.724a804.83 804.83 0 0 1 6.624 2.633l1.494-3.711zm-13.163-5.169c-2.195-.84-4.42-1.681-6.668-2.52l-1.398 3.748c2.239.835 4.449 1.671 6.636 2.508l1.43-3.736zm-13.286-4.957c-2.186-.794-4.4-1.589-6.632-2.379l-1.334 3.771c2.224.787 4.422 1.576 6.6 2.367l1.366-3.759zm-13.403-4.741a820.422 820.422 0 0 0-6.612-2.245l-1.27 3.793c2.215.742 4.406 1.486 6.581 2.234l1.301-3.782zm-13.337-4.463a791.584 791.584 0 0 0-6.792-2.175l-1.203 3.814c2.273.717 4.524 1.438 6.759 2.165l1.236-3.804zM3.358 111.231c-1.118.403-2.24.811-3.358 1.222l1.38 3.755a558.25 558.25 0 0 1 3.334-1.214l-1.356-3.763zm403.386-.591a813.636 813.636 0 0 0-6.794-2.046l-1.137 3.835c2.272.673 4.523 1.351 6.76 2.036l1.171-3.825zm-389.966-4.049c-2.233.74-4.473 1.498-6.708 2.271l1.307 3.78a553.416 553.416 0 0 1 6.659-2.254l-1.258-3.797zm376.348.013a811.086 811.086 0 0 0-6.754-1.906l-1.069 3.855a776.47 776.47 0 0 1 6.72 1.896l1.103-3.845zm-362.893-4.281a558.37 558.37 0 0 0-6.754 2.095l1.21 3.813c2.238-.71 4.469-1.402 6.705-2.08l-1.16-3.828zm349.291.509a785.167 785.167 0 0 0-6.87-1.806l-.999 3.873a796.07 796.07 0 0 1 6.835 1.797l1.034-3.864zM43.874 98.38a550.564 550.564 0 0 0-6.816 1.923l1.11 3.843c2.26-.654 4.511-1.289 6.767-1.91l-1.061-3.856zm321.972.922a777.96 777.96 0 0 0-6.89-1.679l-.929 3.891c2.3.549 4.582 1.105 6.855 1.67l.964-3.882zm-308.31-4.495c-2.282.565-4.57 1.148-6.855 1.746l1.012 3.87a542.659 542.659 0 0 1 6.805-1.734l-.963-3.882zm294.494 1.197c-2.27-.52-4.557-1.033-6.852-1.536l-.856 3.907a744.53 744.53 0 0 1 6.815 1.528l.893-3.9zM71.354 91.566a557.032 557.032 0 0 0-6.903 1.573l.913 3.894a526.252 526.252 0 0 1 6.853-1.56l-.863-3.907zm266.899 1.417a745.395 745.395 0 0 0-6.986-1.428l-.782 3.922c2.329.465 4.642.938 6.948 1.421l.82-3.915zm-13.873-2.769a734.276 734.276 0 0 0-6.953-1.284l-.708 3.937c2.317.416 4.619.841 6.915 1.277l.746-3.93zM85.187 88.691c-2.31.45-4.628.916-6.942 1.397l.814 3.917c2.302-.479 4.595-.94 6.893-1.388l-.765-3.926zm225.223-.987a719.112 719.112 0 0 0-6.948-1.144l-.63 3.95c2.314.369 4.614.748 6.909 1.137l.669-3.943zm-211.268-1.55c-2.318.391-4.646.8-6.97 1.221l.716 3.936c2.311-.42 4.614-.824 6.92-1.213l-.666-3.944zm197.345-.673a706.89 706.89 0 0 0-7.031-1.015l-.552 3.962a703.3 703.3 0 0 1 6.992 1.01l.591-3.957zm-183.375-1.509c-2.334.335-4.677.686-7.017 1.052l.618 3.952c2.327-.364 4.646-.711 6.967-1.044l-.568-3.96zm169.327-.448c-2.32-.299-4.653-.588-6.991-.866l-.471 3.972c2.327.277 4.64.563 6.95.862l.512-3.968zm-155.276-1.392c-2.333.276-4.676.568-7.016.875l.52 3.966a586.17 586.17 0 0 1 6.967-.87l-.471-3.971zm141.244-.273a686.206 686.206 0 0 0-7.081-.73l-.39 3.981c2.357.23 4.7.472 7.04.726l.431-3.977zm-127.172-1.223c-2.353.222-4.717.458-7.078.71l.423 3.977a580.66 580.66 0 0 1 7.03-.704l-.375-3.983zm113.09-.154a670.533 670.533 0 0 0-7.046-.577l-.305 3.988c2.343.18 4.674.37 7.003.574l.348-3.985zm-98.984-1.003c-2.34.164-4.691.343-7.04.535l.326 3.987a589.66 589.66 0 0 1 6.994-.531l-.28-3.99zm84.848-.08a655.584 655.584 0 0 0-7.055-.426l-.22 3.994c2.346.13 4.68.27 7.012.424l.263-3.991zm-70.705-.742c-2.362.11-4.734.233-7.105.371l.232 3.994c2.359-.138 4.708-.26 7.058-.37l-.185-3.995zm56.606-.033a648.024 648.024 0 0 0-7.083-.274l-.133 3.998c2.355.078 4.698.168 7.039.272l.177-3.996zm-42.483-.458c-2.342.055-4.695.123-7.047.204l.139 3.998c2.34-.081 4.67-.149 7.001-.203l-.093-3.999zm28.287-.013c-2.337-.051-4.686-.09-7.035-.116l-.044 4c2.338.026 4.664.064 6.991.115l.088-3.999zM197.79 78c-2.36 0-4.732.015-7.103.043l.047 4a616.38 616.38 0 0 1 7.057-.043l-.001-4z"/></defs></svg>