<svg width="245" height="47" viewBox="0 0 245 47" xmlns="http://www.w3.org/2000/svg" xmlns:xlink="http://www.w3.org/1999/xlink"><title>Group 5.1</title><desc>Created using Figma</desc><g transform="translate(64 11.69)" fill="#D41122"><use xlink:href="#a"/><use xlink:href="#b"/><use xlink:href="#c"/><use xlink:href="#d"/><use xlink:href="#e"/></g><g transform="translate(160.29 7)" fill="#222"><use xlink:href="#f"/><use xlink:href="#g"/><use xlink:href="#h"/><use xlink:href="#i"/><use xlink:href="#j"/></g><use xlink:href="#k" transform="translate(14 16.07)" fill="#D41122"/><use xlink:href="#l" transform="translate(26.46 16)" fill="#222"/><g transform="translate(.44 .36)" fill="#222"><use xlink:href="#m"/><use xlink:href="#n"/><use xlink:href="#o"/><use xlink:href="#p"/></g><defs><path id="a" d="M74.184 17.106h-4.43c-.018-.346-.055-.674-.055-1.002 0-2.403.019-4.788-.018-7.191-.018-.874-.09-1.766-.31-2.603-.273-1.111-1.22-1.694-2.315-1.675-1.203.036-2.078.619-2.351 1.747-.182.729-.237 1.493-.255 2.24-.037 2.785-.019 5.57-.019 8.43h-4.557c0-2.386.019-4.753 0-7.101 0-.965-.018-1.948-.127-2.895-.182-1.493-1.076-2.367-2.37-2.403-1.404-.055-2.297.692-2.607 2.24-.109.582-.127 1.2-.127 1.802-.019 2.457 0 4.915 0 7.373v1.02h-4.54c-.036-.055-.108-.11-.108-.146.09-3.696-.164-7.446.382-11.07C51.143.83 56.538-1.5 60.75 1.03c.456.273.893.637 1.404 1.02C63.538.61 65.325.046 67.312.12c3.208.109 5.541 1.947 6.47 5.043.22.746.402 1.547.42 2.312.055 3.04.055 6.063.055 9.103-.019.164-.055.31-.073.528z"/><path id="b" d="M4.55 16.815v5.498H.086c-.018-.2-.073-.419-.073-.656 0-4.405-.037-8.793.018-13.2C.067 4.398 3.202.885 7.267.23c4.356-.692 8.33 1.602 9.716 5.553 1.33 3.805-.2 10.395-6.162 11.633-1.713.346-3.7.182-6.27-.6zm8.386-8.011c-.018-2.294-1.914-4.188-4.156-4.17a4.203 4.203 0 0 0-4.138 4.188c0 2.349 1.841 4.26 4.156 4.26 2.297.018 4.156-1.911 4.138-4.278z"/><path id="c" d="M48.5 8.968c-.073 4.806-3.956 8.648-8.732 8.611C34.81 17.543 30.91 13.61 31 8.713c.091-4.825 4.065-8.721 8.841-8.63 4.922.11 8.731 4.005 8.659 8.885zm-4.594.018c.036-2.367-1.805-4.315-4.083-4.333-2.297-.019-4.175 1.838-4.23 4.205-.054 2.221 1.842 4.188 4.102 4.242 2.224.055 4.175-1.857 4.211-4.114z"/><path id="d" d="M84.574 17.597c-4.94-.073-8.768-3.95-8.732-8.811C75.88 3.979 79.834.065 84.628.1a8.733 8.733 0 0 1 8.714 8.921c-.091 4.807-4.01 8.648-8.768 8.575zm4.174-8.63c.036-2.348-1.823-4.314-4.101-4.314-2.297 0-4.175 1.857-4.211 4.224-.037 2.239 1.86 4.187 4.12 4.223 2.223.037 4.156-1.857 4.192-4.132z"/><path id="e" d="M22.907 17.088h-4.539c-.036-.055-.11-.11-.11-.146.037-3.24-.127-6.5.165-9.722.273-3.077 2.06-5.371 4.994-6.5 2.953-1.129 5.779-.783 8.33 1.165.037.037.055.11.128.219-1.002 1.056-2.023 2.112-2.898 3.022-1.02-.164-1.878-.473-2.716-.419-1.932.11-3.336 1.675-3.354 3.623-.018 2.895 0 5.772 0 8.758z"/><path id="f" d="M80.16 5.517V0h4.447c0 4.952.273 9.904-.055 14.82-.273 4.224-3.992 7.173-8.367 7.373-4.21.183-7.91-2.585-8.731-6.608-.748-3.642.693-8.63 5.122-10.269 2.497-.928 4.995-.728 7.583.2zm-8.386 7.92c0 2.348 1.823 4.187 4.192 4.223 2.188.037 4.12-1.948 4.138-4.224 0-2.275-1.895-4.205-4.12-4.242-2.314 0-4.21 1.912-4.21 4.242z"/><path id="g" d="M30.085 13.563c-.055 4.843-4.028 8.74-8.804 8.63-4.958-.109-8.768-3.987-8.695-8.848.073-4.825 4.046-8.72 8.822-8.648 4.904.091 8.732 3.987 8.677 8.866zm-4.612-.018c.018-2.348-1.84-4.315-4.12-4.296-2.314 0-4.174 1.875-4.192 4.242-.036 2.24 1.878 4.187 4.138 4.224 2.242.018 4.156-1.876 4.174-4.17z"/><path id="h" d="M43.3 4.77h4.43c.037.091.11.164.11.237-.019 3.186.09 6.372-.073 9.558a8.016 8.016 0 0 1-7.182 7.574c-4.339.419-7.893-1.894-9.024-5.954a8.531 8.531 0 0 1-.346-2.148c-.036-3.059-.018-6.117-.018-9.267h4.666v.947c0 2.73-.018 5.462.019 8.193.018 1.838 1.221 3.313 2.934 3.66 1.805.363 3.5-.51 4.193-2.258.219-.583.292-1.239.31-1.858.036-2.548.018-5.097.018-7.646-.036-.328-.036-.656-.036-1.038z"/><path id="i" d="M54.256 21.702H49.59c0-1.82-.037-3.605 0-5.389.036-1.693-.073-3.423.273-5.061.894-4.26 4.448-6.81 8.695-6.482 4.23.328 7.383 3.405 7.62 7.72.164 3.04.036 6.099.036 9.212h-4.447a17.666 17.666 0 0 1-.037-.965c0-2.549.018-5.098-.018-7.646-.018-1.73-1.02-3.114-2.516-3.642-1.385-.491-3.135-.073-4.01 1.184-.492.71-.838 1.638-.875 2.494-.11 2.512-.036 5.025-.036 7.556-.019.309-.019.637-.019 1.02z"/><path id="j" d="M4.675 21.738H.537c-.146 0-.292-.036-.529-.054 0-1.056-.018-2.076 0-3.095.037-2.276-.091-4.57.182-6.81.383-3.113 2.151-5.407 5.14-6.5 2.954-1.073 5.78-.673 8.404 1.366-1.057 1.11-2.078 2.167-3.062 3.223-.62-.182-1.167-.455-1.75-.528-2.242-.31-4.174 1.329-4.211 3.587-.036 2.585-.018 5.152-.018 7.737-.018.31-.018.637-.018 1.074z"/><path id="k" d="M3.491 12.738v4.191H.065c-.014-.152-.056-.319-.056-.5 0-3.358-.028-6.703.014-10.062C.051 3.272 2.456.593 5.574.093c3.342-.527 6.39 1.222 7.454 4.234 1.02 2.9-.154 7.925-4.727 8.869-1.314.264-2.838.139-4.81-.458zM9.923 6.63C9.91 4.88 8.455 3.438 6.735 3.452a3.214 3.214 0 0 0-3.174 3.193c0 1.79 1.412 3.247 3.188 3.247 1.762.014 3.188-1.457 3.174-3.261z"/><path id="l" d="M3.586 12.989H.412c-.112 0-.224-.028-.406-.042 0-.805-.014-1.582 0-2.36.028-1.734-.07-3.483.14-5.19C.44 3.023 1.796 1.274 4.089.442c2.266-.82 4.433-.514 6.447 1.04-.811.847-1.595 1.652-2.35 2.457-.475-.139-.895-.347-1.342-.402C5.124 3.3 3.642 4.55 3.614 6.27c-.028 1.97-.014 3.928-.014 5.899-.014.236-.014.486-.014.819z"/><path id="m" fill-rule="evenodd" d="M40.006 11.142c-5.33-7.245-14.422-10.075-22.517-7.75L16.767.896c9.122-2.62 19.348.57 25.337 8.71 7.652 10.402 5.5 24.98-4.844 32.553l-1.541-2.094c9.167-6.712 11.102-19.658 4.287-28.923z"/><path id="n" fill-rule="evenodd" d="M6.774 35.465C-.068 26.165 1.53 12.766 11.35 6.22L9.903 4.06C-1.277 11.514-2.95 26.636 4.676 37.002c5.752 7.819 15.414 11.07 24.25 8.994l-.598-2.529c-7.845 1.844-16.435-1.043-21.554-8z"/><path id="o" d="M13.562 3.14l-8 1.5 4.5 5 3.5-6.5z"/><path id="p" d="M30.775 43.802h8.287l-3.5-6.162-4.787 6.162z"/></defs></svg>