<svg width="81" height="83" viewBox="0 0 81 83" version="1.1" xmlns="http://www.w3.org/2000/svg" xmlns:xlink="http://www.w3.org/1999/xlink">
<title>Group</title>
<desc>Created using Figma</desc>
<g id="Canvas" transform="translate(-9611 -15628)">
<g id="Group">
<g id="Vector">
<use xlink:href="#path0_fill" transform="matrix(1 -1.3064e-17 -2.5509e-16 1 9611 15669.1)" fill="url(#paint0_linear)"/>
</g>
<g id="Vector">
<use xlink:href="#path1_fill" transform="matrix(1 -1.3064e-17 -2.5509e-16 1 9629.38 15628)" fill="url(#paint1_linear)"/>
</g>
</g>
</g>
<defs>
<linearGradient id="paint0_linear" x1="0" y1="0" x2="1" y2="0" gradientUnits="userSpaceOnUse" gradientTransform="matrix(-55.927 -29.2206 38.9794 -35.4855 36.4373 53.9762)">
<stop offset="0" stop-color="#FF2E40"/>
<stop offset="1" stop-color="#D41122"/>
</linearGradient>
<linearGradient id="paint1_linear" x1="0" y1="0" x2="1" y2="0" gradientUnits="userSpaceOnUse" gradientTransform="matrix(-62.615 -28.1239 43.6408 -34.1537 40.7946 51.9505)">
<stop offset="0" stop-color="#FF2E40"/>
<stop offset="1" stop-color="#D41122"/>
</linearGradient>
<path id="path0_fill" d="M 14.5708 -1.01756e-06C 14.31 1.41709 15.2393 1.86723 16.2176 2.08396C 18.3698 2.51743 20.5219 2.98423 22.7067 3.1843C 27.6796 3.61776 32.6361 3.51773 37.56 2.61746C 38.3263 2.48408 39.1089 2.28402 39.8426 2.03395C 41.1959 1.60048 41.3263 1.40042 41.5383 0.0166717C 43.7883 1.05032 45.8589 2.36738 47.7339 3.98453C 51.8426 7.53561 54.7285 11.8869 55.6253 17.3886C 56.7503 24.224 54.6796 30.0924 50.2448 35.1773C 47.8318 37.9448 44.897 40.0288 41.6035 41.5792C 41.147 41.796 40.6089 41.9127 40.1198 41.9127C 32.0491 41.9293 23.9785 41.9293 15.9241 41.9127C 15.5002 41.9127 15.0274 41.8793 14.6524 41.7126C 9.01104 39.0785 4.44581 35.194 1.90233 29.3089C -1.57051 21.2564 -0.184634 13.8042 5.21212 7.08547C 7.57625 4.15125 10.5436 1.96726 13.8697 0.28342C 14.0654 0.200061 14.2774 0.116701 14.5708 -1.01756e-06Z"/>
<path id="path1_fill" d="M 17.8533 31.6892C 17.8533 33.7398 17.8044 35.8071 17.8696 37.8577C 17.9022 38.808 17.5272 39.3082 16.712 39.4582C 14.8207 39.775 12.9131 40.1251 11.0055 40.2584C 7.95654 40.4752 4.92392 40.3251 1.92392 39.6916C 1.79348 39.6583 1.66305 39.6416 1.53261 39.5916C 0.0652173 39.1748 -4.9757e-07 39.0914 -4.9757e-07 37.5576C -4.9757e-07 33.5231 -4.9757e-07 29.5052 -4.9757e-07 25.4706C -4.9757e-07 24.1703 0.179348 23.9702 1.46739 23.9702C 2.85327 23.9702 4.23914 23.9702 5.62501 23.9702C 6.7011 23.9702 6.96197 23.6868 6.96197 22.5864C 6.96197 21.4194 7.01088 20.2524 6.92936 19.0854C 6.89675 18.6352 6.6848 18.1018 6.37501 17.8183C 3.58696 15.3176 3.58696 11.6998 6.37501 9.23241C 6.6848 8.96566 6.88045 8.44884 6.92936 8.03205C 7.01088 7.23181 6.94566 6.41489 6.96197 5.61465C 6.97827 4.49765 7.84241 3.6974 8.98371 3.66406C 10.1739 3.63072 11.1033 4.43096 11.1359 5.56464C 11.1685 6.36488 11.0707 7.18179 11.1685 7.98203C 11.2174 8.43217 11.4783 8.8823 11.7392 9.24908C 12.1631 9.84926 12.6359 10.4161 13.1739 10.9163C 13.5489 11.2664 14.0381 11.4831 14.4946 11.7165C 14.6739 11.7999 14.9185 11.6998 15.1468 11.7332C 16.5816 11.9332 17.4457 11.3664 18 9.91595C 18.8316 7.7653 20.4783 6.2315 22.3044 4.91444C 25.6794 2.54706 29.462 1.24666 33.4729 0.579796C 40.0272 -0.520536 46.4675 -0.120416 52.7121 2.347C 55.761 3.54736 58.5327 5.2312 60.5871 7.93202C 63.3099 11.4998 63.2936 15.6677 60.5219 19.1854C 58.2392 22.103 55.174 23.8868 51.7664 25.0205C 42.7175 28.0714 33.7664 27.8714 25.0109 23.8535C 22.5816 22.7365 20.4294 21.1693 18.8316 18.952C 18.2772 18.1851 17.8533 17.2848 17.4457 16.4179C 17.1196 15.701 16.6631 15.3176 15.8805 15.3343C 15.5544 15.3509 15.2283 15.3676 14.9022 15.3343C 13.875 15.2009 13.125 15.5176 12.6522 16.5346C 12.4729 16.9181 12.1305 17.2682 11.7881 17.5182C 11.0218 18.0517 10.8098 18.752 10.8587 19.6689C 10.9239 20.6359 10.875 21.6195 10.875 22.5864C 10.875 23.7201 11.1522 23.9869 12.2772 24.0035C 13.6957 24.0202 15.0979 24.0035 16.5163 24.0035C 17.625 24.0035 17.837 24.2369 17.837 25.3873C 17.8533 27.4713 17.8533 29.5719 17.8533 31.6892Z"/>
</defs>
</svg>
