<svg width="800" height="801" viewBox="0 0 800 801" xmlns="http://www.w3.org/2000/svg" xmlns:xlink="http://www.w3.org/1999/xlink"><title>Group 5</title><desc>Created using Figma</desc><use xlink:href="#a" transform="rotate(53.707 393.183 399.196) skewX(-.037)" fill="#DEDEDE"/><use xlink:href="#a" transform="matrix(.59192 .806 .80638 -.5914 -154 312.595)" fill="#DEDEDE"/><use xlink:href="#b" transform="rotate(53.707 44.489 165.317) skewX(-.037)" fill="#FCFCFC"/><use xlink:href="#c" transform="translate(99.5 101.447)" fill="#DEDEDE"/><use xlink:href="#d" transform="rotate(170.988 314.826 384.541) skewX(.012)" fill="#DEDEDE"/><defs><path id="a" d="M3 394.489C3 178.304 180.05 3 398.516 3v-6C176.794-3-3 174.933-3 394.489h6zM398.516 3c218.467 0 395.517 175.304 395.517 391.489h6C800.033 174.933 620.239-3 398.516-3v6z"/><path id="b" d="M0 0h870.984v57.53H0V0z"/><path id="c" d="M35.003 0l2.98-.355-.34-2.846-2.858.209L35.003 0zM.218 5.545l35.004-2.553-.437-5.984L-.218-.439l.436 5.984zM32.025.355l3.996 33.553 5.958-.71L37.982-.355l-5.957.71z"/><path id="d" d="M34.849 10.084l2.931.636.595-2.739-2.693-.78-.834 2.883zM-.834 2.882l34.849 10.083 1.667-5.763L.834-2.882-.834 2.882zm32.75 6.565l-7.543 34.749 5.864 1.273L37.78 10.72l-5.863-1.273z"/></defs></svg>