<svg width="17" height="17" viewBox="0 0 17 17" version="1.1" xmlns="http://www.w3.org/2000/svg" xmlns:xlink="http://www.w3.org/1999/xlink">
<title>Group</title>
<desc>Created using Figma</desc>
<g id="Canvas" transform="translate(-33664 -11623)">
<g id="Group">
<g id="Vector 4">
<use xlink:href="#path0_stroke" transform="translate(33669 11624)" fill="#D0011F"/>
</g>
<g id="Arrow">
<use xlink:href="#path1_stroke" transform="matrix(1 8.74228e-08 8.74228e-08 -1 33664 11631)" fill="#D0011F"/>
</g>
</g>
</g>
<defs>
<path id="path0_stroke" d="M 11 0L 11.5 0L 11.5 -0.5L 11 -0.5L 11 0ZM 11 15L 11 15.5L 11.5 15.5L 11.5 15L 11 15ZM 0 0.5L 11 0.5L 11 -0.5L 0 -0.5L 0 0.5ZM 10.5 0L 10.5 15L 11.5 15L 11.5 0L 10.5 0ZM 11 14.5L 0 14.5L 0 15.5L 11 15.5L 11 14.5Z"/>
<path id="path1_stroke" d="M 12.3536 0.353553C 12.5488 0.158291 12.5488 -0.158291 12.3536 -0.353553L 9.17157 -3.53553C 8.97631 -3.7308 8.65973 -3.7308 8.46447 -3.53553C 8.2692 -3.34027 8.2692 -3.02369 8.46447 -2.82843L 11.2929 0L 8.46447 2.82843C 8.2692 3.02369 8.2692 3.34027 8.46447 3.53553C 8.65973 3.7308 8.97631 3.7308 9.17157 3.53553L 12.3536 0.353553ZM 0 0.5L 12 0.5L 12 -0.5L 0 -0.5L 0 0.5Z"/>
</defs>
</svg>
